<svg xmlns="http://www.w3.org/2000/svg" viewBox="0 0 472.771 131.395"><path fill="#00467F" d="M155.88 129.099c-11.076 0-11.906-5.883-11.906-11.882v-20.304h6.092v23.42c0 3.112.969 6.461 5.676 6.461 5.121-.119 5.398-3.578 5.398-6.461v-21.343c0-3.229-.691-5.077-1.522-8.19-1.247-4.732-2.77-7.269-5.123-11.65l-6.092-11.653c-2.076-3.807-2.768-6.229-3.599-10.383-.831-4.037-.831-6.575-.831-10.728v-4.73c0-5.883.831-11.767 11.629-11.767 11.074 0 11.767 5.999 11.767 11.883v18.112h-6.23v-21.344c0-3-.691-6.345-5.398-6.345-5.123.116-5.676 3.46-5.676 6.345v6.345c0 4.153.138 6.807.969 11.075.831 3.808 1.66 6.115 3.599 9.806l5.814 11.076c1.245 2.654 3.461 6.344 4.707 10.498 1.384 4.381 2.214 6.345 2.214 11.419v18.575c.002 5.882-.69 11.65-11.488 11.765zm47.621-.693h-6.091v-50.297h-10.936v50.297h-6.23v-86.635c0-5.999.831-11.883 11.906-11.883 10.797 0 11.351 5.884 11.351 11.767v86.751zm-6.091-54.218v-35.648c0-2.885-.277-6.229-5.398-6.345-4.707 0-5.538 3.346-5.538 6.345v35.647h10.936zm36.684 15.458v-59.297h6.092v98.058h-6.092v-18.689l-11.074-52.605v71.293h-6.092v-98.057h5.538l11.628 59.297zm40.7-55.605h-9.137v94.366h-6.229v-94.366h-8.86v-3.576h24.226v3.576zm33.777 94.365h-6.09v-50.297h-10.938v50.297h-6.229v-86.635c0-5.999.83-11.883 11.905-11.883 10.797 0 11.351 5.884 11.351 11.767v86.751zm-6.091-54.218v-35.648c0-2.885-.277-6.229-5.399-6.345-4.707 0-5.538 3.346-5.538 6.345v35.647h10.937zm61.602 22.725v22.265c0 5.423-2.77 9.921-11.489 9.921-8.724 0-11.909-4.269-11.909-9.574v-77.754c0-5.999.831-11.883 11.909-11.883 10.796 0 11.489 5.884 11.489 11.767v18.458h-6.232v-21.573c0-2.885-.273-6.229-5.257-6.345-4.847 0-5.677 3.346-5.677 6.345v83.175c0 2.539 2.215 4.847 5.677 4.847 3.599-.114 5.257-2.191 5.257-4.73v-24.919h6.232zm30.869 31.493v-41.527c0-2.886-.416-5.885-2.354-7.153-1.939-1.385-3.324-1.731-5.676-1.731h-2.77v50.412h-6.229v-97.827h11.074c1.66 0 6.23.231 9.139 2.422 3.047 2.192 3.047 5.192 3.047 8.652v26.188c0 1.846-.277 3.115-1.523 4.73-1.385 1.845-4.848 3.576-5.125 3.691.277.116 3.047 1.615 4.293 3.115 2.217 2.308 2.355 4.614 2.355 7.268v41.759h-6.231zm-2.493-94.25c-1.107-.461-2.77-.922-4.566-.922h-3.74v41.992h2.908c2.629 0 5.26-1.153 6.367-2.538.971-1.038 1.523-4.153 1.523-6.806v-26.189c.001-2.768-.415-4.614-2.492-5.537zm27.551 87.675c0 2.539 1.797 4.73 5.396 4.73 3.463 0 5.264-2.308 5.264-4.847v-91.25h6.229v89.06c0 5.306-2.77 9.574-11.492 9.574-8.721 0-11.627-4.498-11.627-9.921v-88.712h6.23v91.366zm44.022-87.79h-13.43v-3.692h21.043l-14.537 94.021h15.369v4.036h-22.98l14.535-94.365zm-307.37-18.76c0 1.842-.109 3.548-1.354 5.039-1.246 1.488-3.114 2.057-5.01 2.057-1.815 0-3.738-.378-4.984-1.787-1.354-1.517-1.463-3.386-1.463-5.309v-11.755h2.33v11.754c0 1.112.027 2.627.704 3.602.758 1.112 2.329 1.437 3.602 1.437 1.192 0 2.546-.38 3.332-1.328.894-1.056.894-2.438.894-3.71v-11.755h1.95v11.755zm18.043 6.826h-2.276l-9.452-16.197v16.197h-1.95v-18.581h2.925l8.802 15.141v-15.141h1.951v18.581zm4.446 0v-18.581h2.33v18.581h-2.33zm13.381 0h-2.221l-6.283-18.581h2.438l5.173 15.33 5.146-15.33h2.031l-6.284 18.581zm20.805 0h-12.025v-18.581h11.755v2.004h-9.426v5.904h7.475v1.869h-7.475v6.798h9.696v2.006zm13.952 0l-3.439-8.044h-5.146v8.044h-2.33v-18.581h6.961c1.517 0 2.979.189 4.225 1.138 1.246.947 1.978 2.491 1.978 4.062 0 2.193-1.3 4.172-3.467 4.768l3.656 8.613h-2.438zm-4.225-9.94c1.246 0 2.275-.082 3.195-1.029.65-.65.948-1.544.948-2.438 0-1.083-.406-1.977-1.3-2.573-.813-.568-1.598-.596-2.573-.596h-4.631v6.636h4.361zm11.163 4.468c.758 2.574 2.898 3.766 5.498 3.766 1.111 0 2.465-.245 3.332-.922.704-.542 1.138-1.489 1.138-2.383 0-1.868-1.544-2.627-3.169-3.033l-3.087-.759c-1.246-.298-2.384-.596-3.359-1.49-.975-.867-1.516-2.14-1.516-3.439 0-3.575 3.087-5.119 6.311-5.119 3.114 0 5.606 1.544 6.608 4.55l-2.112.569c-.406-2.031-2.573-3.278-4.551-3.278-1.76 0-3.981.921-3.981 2.953 0 2.086 1.625 2.547 3.358 2.953l2.79.677c1.219.27 2.438.623 3.386 1.434 1.165.95 1.733 2.222 1.733 3.685 0 1.679-.731 3.196-2.086 4.225-1.354 1.03-3.168 1.354-4.848 1.354-3.792 0-6.284-1.679-7.53-5.281l2.085-.462zm15.902 5.472v-18.581h2.33v18.581h-2.33zm12.623 0h-2.33v-16.549h-5.281v-2.032h12.893v2.032h-5.282v16.549zm14.358-7.829v7.829h-2.329v-7.829l-6.202-10.752h2.708l4.93 8.559 4.983-8.559h2.113l-6.203 10.752zm15.309-1.326c0-4.632 2.275-9.696 7.638-9.696 5.228 0 7.638 4.766 7.638 9.343 0 4.55-2.329 9.777-7.61 9.777-5.337 0-7.666-4.766-7.666-9.424zm12.838-.217c0-1.652-.271-3.576-1.11-5.064-.839-1.464-2.275-2.493-4.008-2.493-4.144 0-5.282 4.468-5.282 7.8 0 3.196 1.3 7.502 5.228 7.502 3.98.001 5.172-4.549 5.172-7.745zm5.963 9.372v-18.581h11.375v2.004h-9.045v5.904h7.502v1.869h-7.502v8.803h-2.33zm34.484-5.796c-.867 3.521-2.953 6.065-6.88 6.065-5.363 0-7.557-5.173-7.557-9.75 0-4.793 2.356-9.371 7.745-9.371 3.738 0 5.934 2.519 6.691 5.931l-2.193.407c-.65-2.357-1.816-4.388-4.578-4.388-4.037 0-5.12 4.388-5.12 7.611 0 1.461.244 3.276.867 4.631.759 1.652 2.195 2.98 4.145 2.98 2.844 0 4.171-2.142 4.767-4.579l2.113.463zm16.172 5.796h-2.383l-1.869-5.418h-6.879l-1.652 5.418h-1.95l6.013-18.581h2.682l6.038 18.581zm-7.61-16.089l-2.871 8.911h5.715l-2.844-8.911zm21.074 16.089h-10.969v-18.581h2.329v16.521h8.64v2.06zm2.659 0v-18.581h2.33v18.581h-2.33zm6.908 0v-18.581h11.375v2.004h-9.047v5.904h7.504v1.869h-7.504v8.803h-2.328zm12.082-9.155c0-4.632 2.277-9.696 7.639-9.696 5.229 0 7.639 4.766 7.639 9.343 0 4.55-2.328 9.777-7.611 9.777-5.337 0-7.667-4.766-7.667-9.424zm12.84-.217c0-1.652-.271-3.576-1.111-5.064-.838-1.464-2.273-2.493-4.008-2.493-4.145 0-5.281 4.468-5.281 7.8 0 3.196 1.301 7.502 5.227 7.502 3.981.001 5.173-4.549 5.173-7.745zm16.849 9.372l-3.439-8.044h-5.146v8.044h-2.328v-18.581h6.961c1.516 0 2.979.189 4.225 1.138 1.244.947 1.977 2.491 1.977 4.062 0 2.193-1.301 4.172-3.467 4.768l3.656 8.613h-2.439zm-4.226-9.94c1.246 0 2.275-.082 3.197-1.029.65-.65.947-1.544.947-2.438 0-1.083-.404-1.977-1.301-2.573-.811-.568-1.598-.596-2.57-.596h-4.633v6.636h4.36zm23.705 9.94h-2.275l-9.454-16.197v16.197h-1.949v-18.581h2.926l8.801 15.141v-15.141h1.951v18.581zm4.445 0v-18.581h2.33v18.581h-2.33zm19.637 0h-2.381l-1.869-5.418h-6.881l-1.65 5.418h-1.951l6.012-18.581h2.682l6.038 18.581zm-7.61-16.089l-2.871 8.911h5.715l-2.844-8.911zm-353.365 61.303c-.05-.05-1.001-1.078-2.814-3.013.146-.816.229-1.754.33-3.042l.162-2.018-.847.428c-.256.132-1.063 1.025-2.007 2.117-2.039-2.169-4.669-4.951-7.881-8.32.013-3.55.022-6.418.026-8.667 6.167 4.546 11.191 8.236 11.191 8.236.32.229.676-.289.29-.583-2.182-1.666-6.435-4.808-11.479-8.516v-4.925c0-.623.04-1.922-.58-1.515-1.165.775-6.462-.2-6.589-.165-.49.136-.925.224-1.375.327-4.7-3.457-9.493-6.981-13.618-10.034-.992-.734-1.357-.255-.397.502.727.576 6.534 4.869 13.136 9.734-2.072.391-3.761.434-5.291.342-2.403-2.482-4.948-5.1-7.657-7.874-.811-.808-1.396-.327-.627.518.129.14 2.905 3.071 6.863 7.225-1.273-.146-2.473-.352-3.738-.488-.74-1.048-1.457-2.041-2.132-2.958-1.252-1.687-1.415-.573-.661.514.393.572.939 1.38 1.584 2.352-.774-.044-1.584-.047-2.467.021l-.354-1c-.471-1.344-1.386-1.768-.763.388l.237.794c-.45.134-1.16.345-1.926.665-.245-1.351-.493-2.702-.738-4.037-.26-1.402-.946-1.31-.715.158.223 1.423.443 2.832.668 4.243-.915.472-1.804 1.111-2.329 1.965-.029-2.406-.061-4.712-.101-6.883-.041-2.256-.641-1.358-.661 0-.018 1.614-.032 3.79-.047 6.338-.616-.822-1.654-1.441-2.678-1.868l.586-3.731c.229-1.469-.462-1.566-.722-.156-.219 1.185-.435 2.385-.655 3.592-.812-.272-1.543-.428-1.928-.444l.162-.553c.612-2.182-.284-1.755-.744-.393l-.324.954c-.908.021-1.759.042-2.553.064.664-.994 1.221-1.821 1.621-2.401.754-1.093.583-2.207-.66-.518-.676.914-1.389 1.906-2.128 2.951-1.291.04-2.41.083-3.392.125 3.771-3.959 6.389-6.723 6.512-6.854.771-.849.184-1.324-.625-.518-2.553 2.614-4.951 5.081-7.235 7.438-3.652.176-4.914.349-6.108.389 6.762-4.988 12.788-9.443 13.531-10.032.962-.756.591-1.233-.402-.501-4.317 3.202-9.375 6.916-14.287 10.526l-.507-.022c-.315-.018-.498.03-1.019.044-1.201.017-4.107.057-4.916-.028-.279-.026-.794-.235-.951-.247-.627-.021-.711.353-.724.969l.012 5.242c-4.942 3.634-9.099 6.711-11.248 8.345-.385.291-.025.812.294.586 0 0 4.896-3.6 10.957-8.063.006 2.417.014 5.425.021 8.739-8.342 8.753-12.709 13.488-12.817 13.595-.6.578-.068.95.401.504 1.834-1.724 6.782-6.807 12.421-12.662.013 4.181.027 8.781.047 13.321-4.551 7.345-7.805 12.758-7.866 12.847-.748 1.06-.588 1.689.176.773.178-.213 3.392-5.193 7.695-11.873l.04 8.18c-1.117.114-2.625.434-3.147 1.085-.604.757-.435 1.487-.53 2.608-.06.695-.205 1.728-.39 2.238-.336.886-1.061 1.485-1.598 2.033-.466.482-.781 1.256-1.088 1.979-.529 1.248.248 2.966 1 4.349.363.672 1.249 1.521 1.996 1.644 2.952.506 3.365-1.594 3.799-2.725l.072-.19c.031 1.958.063 3.145.099 3.212.04.075 1.535.03 3.796-.065l-.888 2.577c-.541 1.854.371 1.225.611.539.366-1.039.744-2.088 1.12-3.146 2.01-.09 4.484-.206 7.049-.32.548.78 1.573 2.005 2.006 2.811l.489.898.324.584c.364.658.714 1.263 1.075 1.838-.282 1.655-.458 2.665-.506 2.881-.613 2.595-.077 2.787.582.367.031-.108.2-.957.481-2.398.303.445.621.901.982 1.365.825 1.062 2.535 2.152 6.523 3.938 1.545.689 3.682 1.093 6.08 1.195.086 1.987.628 1.471.654.022 3.124.058 6.644-.401 9.962-1.533l.03-.015.023-.012c1.838-.858 3.077-1.893 3.892-2.755l.026.128c.663 2.425 1.197 2.229.591-.362l-.076-.395c.466-.589.693-1.029.744-1.137.206-.422 1.952-4.209-.167-6.976l-.111-.098.012-.015-.157-.122-.385-.323c3.994.17 8.256.37 11.216.485l.893 2.444c.246.671 1.176 1.288.626-.548l-.662-1.868c1.751.065 2.874.089 2.911.025.015-1.39.026-2.744.038-4.065 2.468-.445 3.308-1.056 4.925-2.528 1.876-1.714 3.087-3.996 3.001-6.328l.21.312c.763.917.928.288.178-.774l-.667-1.097c-.364-1.286-1.064-2.418-2.031-3.343-.916-1.508-2.038-3.337-3.308-5.394 1.33-.169 2.711-.573 3.77-1.04 1.191-.529 2.984-1.942 3.828-4.075l.152-.389c.098-.248.171-.496.244-.747 1.121 1.128 2.036 2.042 2.61 2.579.475.439 1.008.073.411-.502zm-5.755-4.858l-1.952 2.311c-.229-.828-.42-2.396-.603-3.487-.159-.917-.418-1.594-.7-2.171 1.164 1.199 2.25 2.317 3.255 3.347zm-7.31-7.548l2.545 2.642.039.382c.307 3.025-.261 5.355-.713 6.839-.437 1.445-.785 1.958-1.489 2.313l-.449.188c.032-4.715.052-8.832.067-12.364zm-2.347-15.394c.085-.615 1.097-.83 1.262.251.152.564.134 14.32.033 27.807-.417.085-.838.134-1.226.098l-.057-.012c.008-13.63-.03-27.866-.012-28.144zm-1.898-.04c-.02-.431.968-.589.91.289.065.236-.05 14.095-.197 27.501l-.456-.201-.055-.413c-.024-1.427.614-1.596.041-2.275-.13-.152-.395-.287-.666-.38.168-12.741.324-24.298.423-24.521zm-2.44-.621c.249-.841 1.014-.223.996.083-.021.316-.08 12.496-.151 24.997-.318.054-.712.125-1.064.198.038-7.229.106-15.752.219-25.278zm-.225 25.777l.156-.046s1.321-.429 1.672-.145c.484.382.322 2.112.335 2.718 0 0-.037.28.031.621v-.009l.003.014v.006c.021.118.064.25.124.372.238.487.672.705.704.878-.285-.101-.546-.154-.816-.226l-.031-.008v-.002c-.392-.102-.775-.181-1.136-.238v.007c-.37-.059-.722-.093-1.061-.1v-.011c-.304-.011-.597-.015-.877.004v.02c-.813.059-1.497.234-2.043.482l-.046.021c-.235.112-.435.236-.613.366l-.106.074c-.187.149-.344.305-.461.467-.294.412-.515.879-.688 1.356-.103-.504-.662-1.105-.662-1.509 0-1.598.958-2.711 1.705-3.309.248-.198.495-.37.741-.523l.23-.142.5-.28.233-.114.482-.217.169-.066c.652-.251 1.168-.38 1.455-.461zm3.148 5.289l.199.129c-.013 1.204-.025 2.402-.042 3.568-.462.021-.849.1-1.19.208.02-1.411.039-2.842.054-4.282.223.078.441.155.669.251l.31.126zm-2.108-.704c-.014 1.742-.02 3.456-.031 5.112l-.217.111c-.173.098-.494.221-.828.334.002-1.768.005-3.664.015-5.709.337.019.689.069 1.061.152zm-1.935-.112l-.019 5.943-.371.086c-1.544.104-2.381-.491-2.574-.873-.093-.172-.227-.367-.363-.696-.136-.333-.158-.873-.158-.903 0-.776.42-1.297 1.157-2.245.58-.751 1.367-1.184 2.328-1.312zm-21.341-27.279c.266-2.831 7.76-3.816 9.101-3.471 1.212.267 3.283.683 4.245.849 0 0 4.231 1 8.032-.396 0 .668 0 13.338-.027 25.51-.713.163-2.269.562-3.397 1.531-1.213 1.036-1.997 2.197-1.997 3.817 0 1.103.365 2.084.942 3.524.32.795.542 1.66.565 1.682.667 1.146.518 2.095.709 3.069.324 1.638 1.327 1.904 1.722 2.004.485.126.946.248 1.402.348l-.01 1.916-.335-.028c-2.49-.205-3.444-.582-4.879-1.298l-1.705-.99c-2.965-1.376-6.966-1.282-9.006-.432-1.076.445-1.712.755-2.275 1.545l-.155.212.077.252c.188.592.659 1.218.867 1.669.199.444.128 1.398.117 1.728-.029.793-.668 1.562-.899 1.817l.071-.047c-.698.406-.976 1.322-1.078 2.465-.812.359-1.441.743-1.987 1.144-.002-.001-.366-48.377-.1-48.42zm7.745 48.992c.142.299.336.569.565.813.247.264.536.506.854.729.338.236.703.457 1.078.663l.483.271.809.455c-.254.014-.514.037-.801.065l-1.247.102c-.266.014-.496.031-.717.057h.001-.029c-.72.069-1.298.111-2.252-.062h-.018.007c-.291-.049-.604-.118-.981-.219-.568-.147-1.035-.426-1.419-.773l-.004-.009c-.438-.396-.756-.898-.958-1.448-.091-.26-.164-.517-.207-.776v-.007c-.044-.257-.071-.501-.071-.752v-.035c.003-.446.055-.818.131-1.144v-.004c.062-.265.149-.493.261-.681l.038-.072c.118-.186.257-.338.431-.444l.166-.148c.263-.061.546-.097.849-.113.18-.009.381.007.574.017l.361.007c.293.029.603.075.917.124l.079.011c.422.079.856.168 1.307.282-.075.175-.112.322-.167.489-.083.243-.156.474-.205.693-.052.25-.097.495-.097.715-.001.455.096.843.262 1.194zm.436-1.341c.03-.396.16-.858.373-1.379l.493-.06c.993.297 2.012.643 3.04 1.012-1.339.113-2.657.252-3.906.427zm7.581.756c1.298.355 2.711.646 4.24.821-3.252.109-7.329.322-10.692.518-.36-.255-.638-.525-.827-.832 2.405-.227 4.943-.39 7.279-.507zm-6.29 4.746c.031.45-.083.873-.455 1.179-2.224 1.83-3.982 2.205-8.158 1.649-.426-.06-.818-.13-1.199-.222.011-.813.023-1.638.027-2.447 1.116-.036 2.335-.322 3.483-1.156.112-.038.457-.071.971-.081.437.251.938.46 1.496.608 2.061.538 2.37.552 3.835.47zm-7.373-3.939l-.094.042-.826-.456c.323-.135.596-.277.856-.417l-.001.022c-.004.282.02.547.065.809zm-2.582.086c1.99.076 3.096 2.04 2.944 2.2-1.447 1.578-4.396 1.657-5.671.062-.253-.315 1.069-2.186 2.727-2.262zm-2.943.832c.401.097-.374.369-.374.369-.945-.179-2.694-.332-4.822-.462l-.097-.227-.118-.359c2.374.185 4.355.411 5.411.679zm-5.787-1.822c-.134-.373-.295-.747-.553-1.12 2.567.381 6.659 1.073 7.582 1.781l-.665.539c-.774-.493-3.285-.891-6.364-1.2zm4.169 2.647c.311.042.954.042.703.58.04-.072-1.387-.105-3.573-.112-.119-.19-.243-.369-.35-.581 1.563.032 2.728.063 3.22.113zm.827 1.291c1.15.37 1.842.847 2.934 1.007l.01 2.223c-.834-.284-1.602-.639-2.391-1.082 0 0-.975-.499-2.294-1.119-.586-.277-1.072-.694-1.491-1.201 1.655-.004 2.835.045 3.232.172zm-19.079-54.724c.039-.355-.044-.506.559-.496 8.088.14 20.493-2.884 21.637 2.899 0 .231.271 37.126.119 48.462-2.69-1.058-4.772-1.477-9.406-2.059l-.8-1.104c-.883-1.306-1.122-1.818-1.758-2.292l-1.714-1.622c-.909-.746-1.979-1.831-2.203-1.96-2.524-1.683-4.688-2.531-6.535-2.932.23-22.988-.09-36.203.101-38.896zm-1.456.745c.021-1.228.664-1.156.58-.301.076 1.251-.028 14.03-.306 38.269-.3-.038-.604-.082-.882-.097.206-14.033.572-36.099.608-37.871zm-2.324-.328c-.12-.624.635-.866.664-.083.084.309-.212 23.413-.256 38.288-.315.026-.619.052-.901.093.053-15.053.376-38.038.493-38.298zm-2.616-.293c.068-.815 1.238-.429 1.208.456-.135 16.126-.313 29.283-.365 38.404l-.274.065-.611.006c.032-16.088.02-38.597.042-38.931zm-3.25 53.529c-.641.528-1.186.739-2.039.592-.546 0-1.491-1.164-2.04-2.396-.179-.467-.179-1.084-.145-1.976.009-.271.04-.495.113-.68.131-.306.319-.562.53-.815.295.437.852.776 1.451 1.113l1.174.734c.685.51 1.69.837 2.448.915-.177.657-.642 1.805-1.492 2.513zm1.429-3.476c-.217.002-1.043.077-2.233-.477l-1.072-.607c-.63-.762-.858-1.167-.858-1.351 0-.028 0-.071.08-.14.593-.528 2.957-.522 4.547-.349l.03 2.812c-.187.033-.439.077-.494.112zm1.89 3.631c-.109-.387-.151-2.771-.149-3.343l.016-3.217c.286.009.588.022.913.066.039 3.654.144 5.674.359 5.79.174.092 3.909.123 8.36.138l.048.069.254.381.122.27c-5.267.034-9.877.029-9.923-.154zm8.075-2.581c.146.178.336.439.541.727-3.552-.143-6.253-.276-6.397-.428-.08-.075-.128-1.574-.151-3.978.299.065.604.145.912.241.025 1.942.074 3.12.148 3.16.129.065 2.143.153 4.947.278zm-3.939-3.002c.325.139.643.312.962.488l.057.035c.627.35 1.23.777 1.789 1.29-1.743-.021-2.857 0-2.819.078-.006-.144 0-.826.011-1.891zm40.385 10.114c0 .27-.039.577-.091.887l-.042.223c-.064.313-.139.632-.238.952l-.005.025c-.101.323-.215.643-.337.946l-.066.171c-.121.306-.249.593-.374.855h-.004c-.173.35-.343.638-.486.815-.827 1.062-1.942 1.822-4.7 3.116-.787.269-1.564.494-2.332.687l-.432.092c-.641.155-1.272.285-1.893.384l-.27.042c-.679.104-1.348.178-1.994.229l-.082.007c-.7.043-1.379.065-2.038.05h-.015c-.666-.014-1.303-.059-1.918-.136l-.345-.046c-.337-.047-.667-.097-.987-.166l-.623-.144c-.228-.062-.462-.112-.68-.183-.432-.133-.849-.277-1.229-.448-3.713-1.658-6.232-2.864-7.345-4.365-.347-.472-.639-.946-.933-1.414-.189-.301-.394-.614-.57-.915-.327-.562-.646-1.129-.981-1.739l-.331-.598-.483-.88c-.339-.637-.703-1.282-1.082-1.899-.129-.224-.257-.446-.399-.656l-.476-1.034-.041-.074-.272-.4-.498-.736-.486-.696c-.336-.476-.63-.856-.829-1.042l-.021-.021-.27-.246c-.198-.19-.438-.387-.731-.591l-.033-.019c-.333-.238-.725-.482-1.155-.723h.002c-.437-.241-.9-.484-1.394-.722-.286-.129-.569-.264-.864-.386-.393-.172-.792-.33-1.191-.475-.303-.104-.599-.193-.898-.279-.454-.143-.883-.257-1.311-.347-.303-.064-.604-.13-.882-.159-.362-.046-.72-.08-1.034-.065l-.266.008h-.003c-1.883.061-2.219-.102-2.815-.102h-.021l-.266.014-.098.008-.475.062c.121-.212.233-.452.334-.718.239-.637.103-1.524.166-2.291.08-.948.45-2.082.861-2.543.135-.147.316-.251.518-.328l.199-.051c.157-.037.319-.07.494-.093l.229-.019c.222-.016.445-.021.672-.021.254 0 .503 0 .73-.01l.796-.078.202-.022.667-.155.014-.003c.696-.161 1.401-.327 2.147-.429l.033-.002c.42-.062.852-.1 1.304-.104h.026c.612-.003 1.258.049 1.944.2h.002c.378.083.77.197 1.174.341l.183.062c.391.147.797.329 1.22.543l.233.122c.431.222.877.489 1.338.793l.205.14c.495.328 1.001.702 1.537 1.135l.038.027.066.035c.147.079.799.619 1.375 1.094l2.285 1.807c.494.374 1.435 1.771 2.191 2.889l.615.905c.512.732.871 1.71 1.219 2.648l.149.375c.114.283.238.568.376.857l.307.589c.125.229.258.456.4.665.132.2.278.401.43.591l.022.028c.141.177.288.337.439.488l.07.079c.142.133.294.262.452.376l.103.088c.192.134.392.258.602.354l1.291.716c.545.298 1.104.599 1.693.869l.147.067c.608.273 1.257.521 1.965.698.294.078.599.143.917.188l.242.053c4.571.605 8.368-.019 9.898-1.626.541-.571.774-1.253.735-1.989l.307-.025c1.479-.143 2.043-.19 2.855.521l.005.004c.61.797 1.211 1.415 1.211 2.293zm12.79-4.075c-.384-.142-8.775-.382-15.508-.54-.445-.228-.917-.462-1.421-.701 6.582.063 13.697.117 15.85 0 .031-.08.053-.582.077-1.404l1.081-.153.034-.004c-.037 1.416-.073 2.413-.113 2.802zm6.783-15.281c.632.83 1.061 1.799 1.234 2.86.362 2.23.257 4.057-1.539 5.744l-.663.623-.388.343-.22.195-.401.316-.181.141-.414.271-.177.11c-.14.086-.291.165-.443.235l-.175.085c-.159.065-.329.14-.506.195l-.185.062c-.185.062-.383.122-.595.176l-.168.042c-.234.052-.479.11-.745.157l-.007.003c-.288.046-.584.101-.924.147l-1.262.177h-.01c-.476.063-.937.104-1.403.148h-.01c-.605.056-1.203.088-1.792.103h-.091c-.574.014-1.139.012-1.695-.01l-.134-.005c-.551-.03-1.09-.061-1.623-.115l-.099-.01c-2.82-.296-5.323-.985-7.247-1.861-.469-.213-.944-.418-1.416-.61-.395-.166-.783-.318-1.174-.46-.977-.374-1.941-.677-2.857-.883l-.166-.037c-.359-.076-.711-.131-1.052-.173l-.308-.034c-.389-.035-.774-.054-1.132-.031.245-.625.436-1.364.436-1.95 0-.137-.009-.273-.034-.393-.091-.441-.302-.897-.525-1.38-.166-.358-.333-.747-.484-1.16.414-.508.634-.897 1.423-1.232 1.551-.64 5.074-1.027 7.936.297l2.069.875c1.469.734 2.739 1.369 5.42 1.634.519.05.989.074 1.467.11l.945.057c.374.016.725.024 1.067.028.421.01.813.01 1.197 0 .493-.013.954-.028 1.387-.062.4-.023.783-.052 1.135-.098.364-.047.71-.084 1.026-.145.478-.086.896-.179 1.272-.283l.198-.053c.359-.105.684-.216.954-.327 2.67-1.112 3.079-2.846 3.079-3.822zm-12.282 2.132c.34.039.676.052 1.014.024l-.017 1.865-.993-.077-.004-1.812zm2.045 1.956l.03-2.173.095-.021c.345-.141.721-.349 1.109-.589l-.04 2.834c-.357-.007-.76-.03-1.194-.051zm2.546.048c.002-1.19.008-2.451.015-3.78.384-.312.781-.65 1.211-1.046-.019 1.649-.037 3.227-.056 4.72-.364.056-.744.093-1.17.106zm6.609-4.489c.1.61.267 2.631-2.274 3.499-.859.288-1.521.512-2.146.673.017-1.841.028-3.615.04-5.33.918-.584 2.049-.652 4.289.878l.091.28zm-.44-1.752c-.439-.085-.836-.139-1.209-.178l-.182-.015c-.306-.019-.599-.038-.865-.035l-.11.003c-.28.014-.548.032-.792.072l-.035.007c-.262.043-.509.109-.739.188-.359.12-.695.272-1.001.475-.372.236-.716.526-1.07.855l-.148.122c-.511.456-.938.74-1.318.932l-.01.007c-.375.19-.713.3-1.051.41l-.14.048-.312.117c-.253.106-.505.196-.756.274h-.004c-.627.192-1.263.266-1.903.157-.221-.034-.443-.078-.664-.172-1.136-.467-1.657-1.472-1.745-1.896-.142-.728.142-.849-.12-1.948.335.104.727.169 1.147.208.423.032.89.042 1.397.014h.295c.199-.014.391-.081.587-.157.298-.115.605-.258.933-.446l.104-.05c.445-.251.949-.499 1.543-.673.237-.076.481-.139.752-.172.333-.034.686-.036 1.075.013l1.081-.008c.617-.034 1.35-.055 2.103.051l.354.06.259.062.445.141.167.061c.202.077.4.18.596.295l.162.108c.154.097.3.208.452.331l.166.145c.19.175.379.367.556.594zm-6.143-2.548l.003-2.958c.431.202.86.375 1.256.504l-.022 2.608-1.237-.154zm5.571 1.264c-1.654-1.208-2.368-1.227-3.341-1.144l.016-2.318c.353.075.748.084 1.146.081.772 1.203 1.504 2.336 2.179 3.381zm6.467-12.745c-.166 1.05-.404 1.985-.65 2.73-.078.244-.157.472-.23.662l-.153.388c-.802 2.023-1.745 3.598-4.839 4.629-.399.132-.779.207-1.146.236-.335.028-.665.015-.985-.015h-.046c-.404-.038-.801-.108-1.195-.193h-.015l-.482-.108-.047-.012-.644-.146-.336-.104h-.001c-1.293-.355-2.283-1.104-2.632-1.793l-.038-.05-.104-.326-.02-.134c.369.09.905.193 1.53.222.396.015.823-.006 1.276-.079.321-.049.65-.121.99-.236l.043-.015.171-.059c.955-.336 2.148-.76 2.746-2.716.283-.948.362-3.843.505-5.402.903 1.958 1.371 5.527 1.442 5.897l.199 1.114s.379-.388.727-.869c.902-1.25 1.535-2.127 2.061-2.816l.009-.012c.193-.254.374-.478.546-.682v-.002l.008-.007c.232-.281.461-.528.691-.755l.051-.046c.229-.223.464-.436.73-.647-.035.459-.093.912-.162 1.346zm-59.863 27.387l.01.012.018.021-.028-.033zm-11.168-53.213c-.536.271-.806-.203-.25-.529 1.199-.708 20.271-9.253 21.761-9.951.901-.423 1.439.167.527.655.001.001-20.838 9.221-22.038 9.825zm21.695-11.944s.281.323-.064.416c-.482.124-6.545.402-6.871.402-.225.008-1.751.117-2.23.117-1.088-.13-.322-.367.182-.438 1.936-.285 8.437-.785 8.983-.497zm40.396 11.885c.533.265.803-.202.247-.527-1.198-.711-20.271-9.252-21.764-9.951-.899-.427-1.433.167-.525.649.001 0 20.839 9.226 22.042 9.829zm-21.015-11.957s-.272.294.069.38c.463.12 6.399.367 6.718.377.218.004 1.71.105 2.181.105 1.068-.122.313-.338-.175-.41-.622-.086-7.993-.845-8.793-.452zm-20.059 89.849l-.051.183c-.189-.046-.344.011-.412.258l-1.569 5.855c-.067.251.037.377.231.428l-.052.186-2.316-.622.05-.186c.256.07.41.015.477-.236l1.182-4.413c-.235-.021-.747-.045-.858.248l-.227-.057.444-1.662.226.062c-.044.157.127.234.32.287.26.073.489-.081.565-.37.042-.158-.014-.27-.184-.344l.05-.181 2.124.564zm3.25 3.853c-.661-.278-1.121-.982-1.067-1.567.087-1.008 1.278-1.802 3.288-1.626 2.174.194 3.213 1.144 3.126 2.118-.055.649-.596 1.272-1.381 1.443.937.393 1.397 1.067 1.32 1.908-.105 1.249-1.395 2.023-3.587 1.829-2.242-.194-3.416-1.337-3.316-2.419.067-.84.655-1.429 1.617-1.686zm1.749 2.964c.949.081 1.827-.223 1.89-.967.064-.748-.748-1.198-1.694-1.282-.947-.08-1.827.226-1.89.968-.066.741.747 1.196 1.694 1.281zm.302-3.278c1.064.094 1.577-.233 1.626-.783.048-.558-.399-.967-1.462-1.06-1.063-.094-1.577.233-1.626.789-.051.554.4.962 1.462 1.054zm9.471-.869l-.205-.087c.012-.381-.676-.766-1.589-.718-1.333.072-2.01 1.169-1.927 2.426.521-.529 1.268-.952 2.118-.993 1.629-.082 2.871.622 2.962 2.351.057 1.154-1.027 2.394-3.026 2.502-2.443.123-3.531-1.449-3.62-3.171-.111-2.151.958-4.015 3.54-4.152 1.163-.058 2.121.38 2.387.364.1 0 .164-.05.213-.087l.135.07-.988 1.495zm-.246 2.983c-.038-.748-.769-1.299-1.667-1.25-.898.044-1.564.667-1.526 1.41.04.751.77 1.301 1.667 1.25.896-.045 1.567-.669 1.526-1.41zm3.793-2.146c-.718-.021-1.398-.52-1.559-1.082-.277-.969.547-2.134 2.486-2.691 2.1-.604 3.411-.087 3.68.854.179.628-.103 1.396-.771 1.849 1.012.021 1.686.488 1.917 1.304.345 1.2-.582 2.388-2.695 2.993-2.164.617-3.667-.028-3.966-1.07-.232-.812.105-1.57.908-2.157zm1.805-1.031c1.024-.291 1.389-.779 1.236-1.312-.157-.539-.718-.755-1.746-.469-1.027.3-1.39.788-1.234 1.32.151.54.717.759 1.744.461zm.889 3.172c.915-.263 1.628-.865 1.421-1.583-.205-.717-1.128-.85-2.042-.587-.913.261-1.626.857-1.42 1.58.205.719 1.128.853 2.041.59zm-35.728-35.974l1.944.709c.064.022.101-.013.192-.21l.07.029-.56 1.531-.068-.022c.05-.191.042-.235-.021-.258l-2.95-1.077.034-.11c.151.037.188-.016.219-.095l1.48-4.072c.029-.078.033-.147-.103-.215l.038-.104 1.167.419-.038.111c-.149-.034-.188.019-.216.098l-1.188 3.266zm5.541 1.959l-.06-.034c.047-.113.057-.216-.046-.278l-.96-.579-.445.747 1.659.988c.055.035.098.011.232-.18l.063.035-.832 1.387-.061-.036c.065-.143.068-.192.011-.233l-2.575-1.545.059-.096c.137.06.188.014.229-.055l2.229-3.712c.044-.07.063-.141-.055-.229l.055-.103 2.576 1.55c.056.036.1.008.229-.168l.059.039-.833 1.388-.06-.043c.095-.191.097-.241.039-.274l-1.657-.994-.394.66.956.575c.104.064.19.005.269-.087l.06.036-.747 1.241zm1.046 3.084l.075-.081c.122.086.181.056.237-.003l2.417-2.505-.746-.718c-.045-.043-.095-.027-.254.109l-.053-.044 1.148-1.193.05.049c-.136.169-.148.22-.1.263l2.138 2.07c.047.04.097.028.259-.118l.052.053-1.15 1.193-.051-.051c.136-.17.151-.219.101-.266l-.742-.718-2.415 2.499c-.059.064-.091.123.006.239l-.08.079-.892-.857zm3.416 4.76l.098-.045c.081.131.145.115.225.082l3.156-1.446-.429-.945c-.031-.054-.083-.063-.283.015l-.03-.068 1.504-.687.03.065c-.185.103-.22.146-.192.207l1.242 2.703c.025.061.08.061.279-.015l.031.068-1.503.692-.032-.066c.189-.109.221-.152.194-.212l-.431-.938-3.161 1.448c-.075.038-.127.078-.082.229l-.102.04-.514-1.127zm3.593 6.407c-.068.045-.109.103-.036.235l-.089.065-.73-1.001.092-.065c.101.109.167.086.233.041l1.394-1.016-.922-1.26-1.391 1.006c-.066.05-.108.102-.036.237l-.091.063-.728-1.001.091-.072c.103.111.168.089.237.044l3.501-2.546c.068-.05.11-.098.039-.233l.087-.066.729 1-.088.066c-.107-.111-.167-.087-.237-.035l-1.192.865.916 1.268 1.197-.873c.067-.039.111-.098.034-.229l.094-.065.725 1.003-.088.065c-.102-.113-.167-.092-.232-.045l-3.509 2.549zm4.255 1.454l-.058-.043c.056-.1.074-.205-.023-.276l-.905-.661-.507.701 1.561 1.135c.053.04.102.018.256-.158l.054.041-.948 1.311-.057-.043c.078-.141.085-.191.031-.233l-2.431-1.766.065-.086c.132.069.186.029.237-.035l2.545-3.508c.047-.063.071-.129-.041-.232l.067-.09 2.43 1.766c.054.038.099.017.242-.146l.057.039-.951 1.305-.057-.031c.111-.193.118-.241.064-.278l-1.564-1.142-.453.631.908.653c.096.069.184.022.269-.063l.061.039-.852 1.17zm2.113 2.688c-.027.078-.028.144.106.206l-.034.108-1.18-.38.035-.108c.151.029.185-.026.213-.107l1.337-4.116c.028-.084.031-.148-.109-.213l.038-.107 2.093.683c.849.273 1.058.851.731 1.856-.264.815-.749 1.141-1.289 1.183l.199 1.685c.011.138.05.198.113.217l-.033.107-1.191-.389.036-.1c.081.014.142-.019.176-.127.025-.079-.186-1.495-.197-1.7l-.565-.185-.479 1.487zm.786-2.424l.961.314c.339.107.514-.088.599-.343.083-.263.056-.523-.279-.631l-.965-.314-.316.974zm5.663 2.131l-.072-.01c-.01-.124-.046-.224-.166-.228l-1.114-.076-.062.862 1.928.13c.066.009.094-.038.126-.264h.075l-.116 1.611-.07-.003c-.007-.157-.029-.208-.095-.208l-2.996-.208.009-.118c.147-.003.172-.073.176-.151l.305-4.322c.007-.078-.009-.151-.158-.176l.007-.112 2.996.21c.067.002.091-.045.127-.254l.072.004-.112 1.614-.076-.009c0-.212-.021-.261-.087-.261l-1.926-.137-.054.766 1.114.08c.12.009.172-.08.197-.199l.072.005-.1 1.454zm3.264-3.156c-.022-.075-.061-.131-.209-.11l-.032-.109 2.191-.668c.622-.183 1.185.03 1.455.908.162.532.036.935-.256 1.138l.007.015c.433.04.812.275 1.014.934.214.717.058 1.427-.761 1.675l-2.222.68-.032-.107c.139-.066.136-.131.113-.21l-1.268-4.146zm1.322 1.235l.784-.245c.493-.146.604-.239.494-.604-.11-.352-.254-.366-.747-.212l-.781.236.25.825zm.603 1.966l.979-.296c.402-.124.522-.315.398-.706-.117-.393-.324-.481-.727-.36l-.978.304.328 1.058zm5.396-3.043l-.065.031c-.07-.096-.148-.161-.258-.109l-.996.51.392.771 1.722-.88c.058-.025.058-.084-.031-.296l.064-.039.732 1.443-.062.033c-.089-.129-.13-.157-.188-.129l-2.677 1.362-.051-.102c.127-.086.113-.147.075-.227l-1.97-3.86c-.035-.069-.08-.116-.224-.069l-.051-.095 2.676-1.365c.058-.031.058-.086-.02-.283l.063-.031.732 1.439-.064.033c-.11-.183-.153-.209-.212-.183l-1.723.879.352.683.997-.504c.109-.06.102-.157.064-.272l.064-.033.659 1.293zm-1.625-16.09l2.011.506c.064.011.1-.028.171-.229l.067.018-.394 1.583-.072-.014c.033-.197.018-.243-.046-.258l-3.051-.762.028-.11c.151.018.185-.045.204-.115l1.049-4.209c.019-.082.017-.144-.125-.204l.027-.107 1.202.3-.027.108c-.147-.018-.181.036-.203.122l-.841 3.371zm2.744 2.082l.04-.104c.147.04.187-.011.217-.091l1.624-4.015c.031-.08.041-.145-.093-.22l.042-.101 1.146.464-.039.1c-.146-.034-.191.014-.219.094l-1.62 4.017c-.037.079-.04.144.089.214l-.038.106-1.149-.464zm6.037.131l-.749-.202c-.065-.017-.101.048-.138.154l-.067-.018.338-1.252.068.016c-.026.117-.02.17.045.184l1.712.46-.028.111c-.071-.014-.107.025-.132.123l-.4 1.489c-.025.085-.029.155.027.17l.029.008-.029.112c-.64.309-1.335.361-2.052.17-.971-.258-1.676-1.298-1.24-2.922.436-1.621 1.564-2.17 2.535-1.906.383.103.539.197.891.468l.362.353.098-.053.062.053-.696 1.078-.051-.075.035-.095c.048-.17-.457-.588-.939-.715-.554-.148-1.183.172-1.443 1.142-.257.974.241 1.556.744 1.694.319.086.594.088.858.042l.16-.589zm5.867 2.206c-.003.079.011.146.159.175l-.009.11-1.238-.089.007-.102c.157-.012.179-.077.182-.16l.12-1.713-1.558-.111-.124 1.716c-.005.079.009.148.157.177l-.005.109-1.237-.081.007-.11c.152-.016.174-.081.178-.159l.304-4.322c.006-.083-.007-.147-.157-.177l.008-.113 1.237.085-.01.113c-.147.009-.17.073-.178.157l-.104 1.472 1.561.111.103-1.47c.008-.089-.007-.155-.155-.183l.009-.109 1.235.081-.009.111c-.151.011-.174.077-.177.155l-.306 4.327zm3.063-.043l-.017-.111c.148-.043.153-.108.141-.19l-.544-3.433-1.02.166c-.068.001-.083.053-.068.265l-.071.016-.262-1.632.072-.011c.052.208.085.25.15.24l2.937-.466c.064-.012.081-.058.064-.276l.069-.008.262 1.628-.071.015c-.052-.209-.083-.253-.148-.243l-1.024.164.546 3.435c.013.085.042.143.192.141l.019.111-1.227.189zm-60.705 11.9l-.128.138c-.212-.147-.327-.147-.489.021l-3.798 3.933 1.437 1.386c.273.268.399.333.624.172l.167.161-1.183 1.223-.169-.162c.11-.183.042-.302-.233-.569l-4.076-3.941c-.274-.261-.399-.321-.577-.218l-.167-.155 1.18-1.229.169.169c-.152.229-.086.348.19.619l1.438 1.386 3.801-3.932c.16-.167.157-.281-.041-.533l.129-.134 1.726 1.665zm-8.64-4.49l2.249-1.575c.188-.128.205-.251.038-.555l.157-.108 1.454 2.072-.159.112c-.231-.268-.348-.284-.536-.154l-4.964 3.478c-.189.133-.206.243-.038.553l-.158.111-1.449-2.073.154-.111c.232.267.348.287.539.154l1.869-1.309-2.066-2.949-1.869 1.309c-.188.137-.208.251-.041.563l-.154.108-1.453-2.076.156-.108c.231.26.346.283.536.155l4.963-3.479c.188-.134.208-.253.039-.559l.157-.11 1.451 2.068-.154.112c-.231-.258-.348-.278-.536-.15l-2.25 1.576 2.065 2.945zm-3.596-9.885l-1.557-3.502c-.157-.351-.248-.454-.454-.413l-.096-.213 1.49-.671.098.213c-.17.13-.151.27.004.618l2.456 5.516-.174.078c-.221-.395-.327-.438-.539-.347l-5.538 2.471c-.213.095-.252.205-.094.666l-.174.075-2.375-5.326c-.154-.352-.248-.46-.454-.417l-.095-.22 1.469-.653.095.213c-.146.122-.126.264.032.604l1.464 3.29 1.613-.718-.867-1.952c-.157-.348-.25-.452-.458-.416l-.095-.211 1.466-.658.095.214c-.142.117-.124.259.033.609l.869 1.949 1.786-.799zm-10.849-18.149l.188-.007c.052.312.139.395.369.383l4.024-.14c.925-.032 1.5-.704 1.458-1.917-.042-1.215-.664-1.84-1.588-1.811l-4.026.144c-.23.006-.309.092-.337.41l-.193.007-.081-2.365.191-.006c.052.349.138.428.368.42l3.998-.141c1.63-.054 2.727.89 2.812 3.37.083 2.481-.939 3.501-2.57 3.558l-3.999.137c-.232.007-.312.093-.337.481l-.19.007-.087-2.53zm7.091-7.72l-.189-.026c.008-.305-.061-.397-.287-.437l-5.99-.946c-.227-.035-.322.029-.397.257l-.189-.026.431-2.716.188.028c-.023.23-.007.304.074.313.229.04 4.286-2.238 4.918-2.306l.007-.033-4.218-.668c-.228-.036-.324.036-.406.311l-.186-.033.354-2.237.188.028c-.005.287.063.384.291.419l5.99.948c.266.04.32-.031.394-.244l.188.033-.382 2.403-.186-.032c0-.165-.005-.323-.141-.341-.227-.037-4.026 2.232-5.328 2.562l-.006.036 4.644.731c.229.038.323-.031.404-.286l.188.027-.354 2.235zm1.986-9.653l-.183-.062c.112-.466.061-.574-.157-.646l-5.77-1.869c-.219-.071-.321-.014-.512.432l-.18-.062.865-2.662.182.061c-.11.472-.059.58.16.648l5.768 1.867c.219.076.322.017.51-.426l.184.057-.867 2.662zm2.497-6.67l-.17-.083c.104-.208.076-.41-.02-.453-.146-.071-4.689-.193-6.503-.37-.289-.028-.55-.023-.673.138l-.171-.083 1.028-2.112.172.083c-.079.257-.054.362.056.415.243.12 3.586.208 5.24.386l.014-.031c-1.234-1.307-3.425-3.764-3.609-3.854-.075-.033-.147.025-.327.27l-.173-.083.986-2.023.173.087c-.053.288.059.399.293.662 1.588 1.771 4.054 4.562 4.379 4.727.111.05.242-.035.345-.243l.173.086-1.213 2.481zm3.669-8.476l2.308-3.062c.231-.305.277-.436.145-.598l.143-.188 1.305.982-.145.186c-.19-.078-.304 0-.535.311l-3.629 4.817-.152-.114c.238-.384.222-.5.039-.637l-4.848-3.654c-.187-.136-.302-.118-.626.242l-.15-.116 3.51-4.658c.229-.308.278-.44.144-.603l.14-.186 1.285.967-.144.185c-.169-.066-.281.019-.512.32l-2.167 2.879 1.414 1.068 1.284-1.709c.228-.303.278-.44.146-.599l.141-.186 1.281.962-.14.187c-.171-.065-.282.015-.516.323l-1.283 1.703 1.562 1.178zm5.286-4.716l-.127-.141c.183-.223.19-.337.034-.51l-4.061-4.498c-.154-.171-.273-.179-.533.006l-.127-.143 3.094-2.787c1.357-1.231 2.686-1.398 3.504-.489.693.767.746 1.746-.042 2.762l2.349.664c.682.211.898.325 1.178.134l.124.143-1.831 1.65-.127-.145c.127-.128.213-.265.128-.351-.046-.05-.104-.095-.431-.182l-2.485-.689-1.125 1.014 1.621 1.795c.155.174.272.178.536-.007l.127.145-1.806 1.629zm-1.24-4.411l1.42-1.277c.754-.683.841-1.236.441-1.682-.404-.442-.96-.414-1.716.265l-1.42 1.281 1.275 1.413zm8.147-3.994l.243-.051.042.134c.246.406 1.592-.004 2.405-.493 1.316-.791 1.538-1.417 1.211-1.963-.77-1.28-4.776 2.28-6.083.103-.554-.921-.235-2.269 1.636-3.392.759-.452 1.388-.668 1.864-.78.474-.113.774-.135.916-.22.158-.092.209-.204.244-.339l.141-.021-.188 2.078-.242.05-.105-.206c-.158-.268-1.042-.311-2.227.4-.815.49-.947 1.012-.707 1.408.741 1.236 4.708-2.382 6.152.019.574.952.134 2.548-2.096 3.882-.686.411-1.334.626-1.838.756-.542.136-.811.139-1.026.271-.085.045-.1.153-.144.306l-.185.017-.013-1.959zm8.356-2.129l-.072-.175c.43-.218.476-.328.39-.543l-2.271-5.622c-.084-.212-.192-.255-.655-.119l-.07-.172 2.589-1.05.072.18c-.43.216-.477.323-.389.541l2.271 5.622c.083.211.192.258.656.119l.072.173-2.593 1.046zm6.836-2.477l-.042-.188c.233-.101.294-.193.235-.423l-1.32-5.302-1.938.486c-.374.094-.492.167-.473.44l-.228.058-.412-1.652.227-.052c.099.186.238.193.61.101l5.498-1.376c.372-.09.491-.162.491-.374l.225-.054.413 1.646-.227.057c-.116-.251-.252-.258-.625-.166l-1.94.486 1.318 5.299c.057.222.159.285.477.244l.046.188-2.335.582zm11.144-1.724l-2.463.17-.01-.185c.312-.065.392-.152.373-.382l-.167-2.416-2.837-3.522c-.089-.114-.231-.227-.434-.257l-.013-.186 2.594-.179.014.189c-.25.032-.364.09-.353.213.008.106 1.189 1.5 1.882 2.334.41-.845 1.494-2.311 1.477-2.555-.007-.133-.094-.168-.415-.176l-.012-.187 2.462-.173.014.187c-.166.057-.291.147-.411.347l-2.304 3.852.166 2.411c.016.233.106.306.423.326l.014.189zm19.726-4.299c2.411.833 3.257 2.835 2.593 4.76-.665 1.931-2.562 2.987-4.975 2.152-2.41-.832-3.258-2.83-2.594-4.761.663-1.925 2.561-2.978 4.976-2.151zm-2.009 5.835c1.403.481 2.498-.089 3.026-1.616.526-1.53.013-2.651-1.389-3.132-1.407-.491-2.5.081-3.027 1.612-.524 1.526-.013 2.655 1.39 3.136zm4.984 3.133l.093-.165c.414.181.524.151.638-.049l2.941-5.3c.111-.198.078-.312-.326-.586l.095-.164 5.111 2.837c.289.159.427.187.571.037l.203.112-.791 1.426-.205-.115c.054-.201-.043-.303-.335-.464l-3.158-1.749-.856 1.545 1.98 1.095c.334.185.469.215.625.037l.206.115-.797 1.433-.207-.11c.05-.19-.049-.293-.383-.479l-1.979-1.099-1.241 2.235c-.111.2-.079.316.34.592l-.093.166-2.432-1.35zm23.758 11.405l-1.956.206-.055-.151.114-.076c.375-.318.195-1.206-.363-1.873-1.03-1.225-2.214-1.494-3.631-.304-1.103.928-1.221 2.354-.264 3.492.597.712 1.511 1.038 1.852.747.042-.034.146-.165.177-.23l.168.115-.234 2.028-.181-.023c.008-.119-.013-.229-.073-.305-.25-.298-1.311-.076-2.694-1.73-1.629-1.938-1.302-4.131.178-5.375 1.937-1.622 4.183-.808 5.555.827.493.59.722 1.114.844 1.538.122.417.147.697.229.806.065.075.173.135.332.202l.002.106zm-4.275 5.408l.167-.094c.117.185.334.159.454.152l6.263-.697c.262-.028.38-.04.477-.09.071-.04.087-.125-.032-.399l.165-.092 1.347 2.435-.167.09c-.131-.212-.251-.258-.371-.194-.071.043-.141.137-.388.446l-3.788 4.829c-.167.21-.184.291-.115.464l-.167.094-1.099-1.98.168-.094c.126.173.189.232.272.187.062-.033.111-.079.168-.17l.838-1.072-1.452-2.624-1.215.136c-.107.004-.199.035-.245.062-.108.059-.174.192-.049.445l-.165.094-1.066-1.928zm4.839 3.014l1.961-2.346-.016-.032-3.021.438 1.076 1.94zm5.954 3.576c.221-.075.269-.184.172-.586l.18-.066.892 2.585-.181.065c-.195-.445-.301-.5-.517-.422l-5.167 1.78 1.197 3.467c.125.363.205.474.492.432l.077.219-1.619.556-.076-.219c.177-.115.17-.255.047-.613l-1.893-5.49.18-.058c.164.343.269.4.485.322l5.731-1.972zm-3.934 9.533l.185-.041c.133.472.228.536.457.493l5.949-1.164c.224-.042.291-.14.236-.62l.19-.039.533 2.749-.188.037c-.131-.468-.229-.532-.454-.49l-5.949 1.159c-.228.045-.291.142-.239.623l-.186.041-.534-2.748zm.91 4.764l.191-.015c.072.446.156.525.391.511l6.044-.424c.23-.015.306-.101.315-.589l.187-.014.407 5.833c.026.335.074.469.282.505l.017.231-1.627.112-.015-.232c.198-.064.232-.199.209-.531l-.255-3.612-1.761.125.157 2.26c.031.38.079.515.31.546l.017.235-1.637.109-.017-.229c.185-.065.215-.202.19-.582l-.159-2.259-2.549.176c-.232.017-.303.108-.311.612l-.19.009-.196-2.777zm7.139 12.913c-.314 2.53-2.096 3.77-4.121 3.529-2.021-.252-3.451-1.883-3.141-4.422.313-2.528 2.098-3.768 4.122-3.52 2.023.25 3.451 1.883 3.14 4.413zm-6.126-.747c-.183 1.473.604 2.422 2.21 2.621 1.604.196 2.6-.538 2.782-2.01.184-1.477-.606-2.426-2.21-2.624-1.607-.193-2.6.539-2.782 2.013zm-2.066 6.022l.18.059c-.055.285-.006.386.212.466l5.732 1.972c.216.076.319.019.461-.267l.18.062-1.355 3.941c-.597 1.736-1.678 2.53-2.834 2.132-.978-.335-1.496-1.169-1.301-2.445l-2.376.562c-.697.146-.944.15-1.089.451l-.179-.064.802-2.331.181.061c-.049.176-.057.333.056.375.065.021.135.03.463-.056l2.509-.591.494-1.438-2.287-.789c-.217-.078-.322-.027-.464.265l-.182-.062.797-2.303zm3.217 3.26l-.626 1.81c-.334.967-.136 1.492.427 1.686.565.19 1.042-.099 1.371-1.062l.626-1.816-1.798-.618zm-6.534 5.838l.166.096c-.118.285-.087.394.113.515l5.248 3.025c.203.11.317.082.467-.096l.168.091-1.378 2.381-.164-.09c.102-.212.112-.286.039-.327-.198-.114-4.804.563-5.419.396l-.018.028 3.697 2.134c.199.11.311.083.491-.146l.165.098-1.133 1.957-.167-.088c.11-.267.078-.382-.121-.492l-5.251-3.03c-.233-.134-.313-.083-.455.085l-.165-.099 1.217-2.101.165.092c-.059.158-.111.301.007.366.199.115 4.56-.639 5.896-.48l.017-.032-4.071-2.347c-.199-.116-.311-.091-.481.125l-.166-.094 1.133-1.967zm-5.3 8.325l.149.119c-.275.406-.265.52-.084.664l4.712 3.812c.181.147.296.133.634-.218l.147.121-1.766 2.181-.146-.123c.271-.401.259-.518.082-.661l-4.714-3.815c-.183-.144-.295-.13-.633.217l-.146-.12 1.765-2.177zm-2.798 3.503l.13.14c-.151.158-.072.363-.034.474l2.191 5.92c.096.248.129.362.202.441.061.062.143.052.382-.13l.132.139-2.04 1.895-.129-.137c.174-.179.192-.307.097-.413-.055-.053-.166-.1-.526-.27l-5.604-2.511c-.238-.112-.327-.104-.479 0l-.129-.143 1.659-1.543.131.141c-.141.17-.186.247-.118.318l.207.121 1.243.548 2.196-2.044-.427-1.144c-.031-.103-.084-.186-.121-.222-.084-.092-.228-.123-.443.059l-.131-.146 1.611-1.493zm-1.755 5.429l2.755 1.338.023-.026-1.155-2.823-1.623 1.511z"/><circle fill="#00467F" cx="15.375" cy="76.235" r="1.122"/><path fill="#00467F" d="M35.997 107.228c-.617 0-1.121.504-1.121 1.116 0 .626.504 1.125 1.121 1.125s1.117-.499 1.117-1.125c0-.613-.501-1.116-1.117-1.116zm13.481 7.64c-.618 0-1.121.507-1.121 1.123 0 .613.503 1.12 1.121 1.12.616 0 1.121-.507 1.121-1.12 0-.616-.505-1.123-1.121-1.123zm32.68-.461c-.619 0-1.121.497-1.121 1.119 0 .618.502 1.12 1.121 1.12.618 0 1.12-.502 1.12-1.12 0-.622-.503-1.119-1.12-1.119zm11.588-6.657c-.619 0-1.118.496-1.118 1.113 0 .619.499 1.12 1.118 1.12.618 0 1.121-.501 1.121-1.12 0-.617-.504-1.113-1.121-1.113z"/><circle fill="#00467F" enable-background="new" cx="99.555" cy="25.129" r="1.119"/><circle fill="#00467F" cx="73.309" cy="13.575" r="1.121"/><path d="M51.736 81.92c.214.017 1.292.017 1.486 0 .225-.028 1.252.081 1.822.189.214.046.359.647.08.623-1.635-.147-1.035-.032-2.566-.191-1.534-.15-.822-.621-.822-.621zm5.826.269c.427-.076 4.852.557 5.167.854-.03.023.198.101.08.391-.282.455-1.106-.36-4.219-.493-.61-.089-1.559.074-1.498-.407.016-.181.266-.307.47-.345zm-9.171-35.429c-.196.16-.217.806-.294 1-.048.113-.598.028-.563-.087 0 0 .167-1.157.267-1.48-.118-.064 1.294.083 1.249-.046.057-.191-.261-1.39-.334-1.437-.164.078-.388 1.474-.377 1.483l-.539-.017s.408-2.573.844-2.597c.088-.014.352-.095.464.071.143.256 1.137 3.622 1.113 3.946-.159.143-.717.269-.74.042 0 0-.034-.654-.243-.885-.101-.027-.633-.114-.847.007zm3.389 9.613c-.146.435-1.117.204-1.782.211-1.652.021-3.517.195-3.517-.236-.124-.718 2.011-.447 2.804-.44 1.183.059 2.714-.196 2.495.465zm2.523-.076c-.186.315-.661.294-1.332.237-.216-.018-.316-.035-.386-.194-.021-.438.646-.409 1.447-.401.219.028.374.185.271.358zm3.198.195c-.185.108-1.954.258-2.083-.125-.14-.414.726-.451 1.529-.442.838.01.793.434.554.567zm6.125 1.206c-.221.239-2.15-.775-3.115-1.014-.655-.156-1.182.027-1.733-.066-.388-.068-.198-.467.163-.578 1.17-.352 5.06 1.231 4.685 1.658zm-12.967 1.79c-.146.424-1.107.203-1.771.212-1.635.018-2.383.043-2.412-.542-.024-.44.919-.122 1.703-.115 1.178.05 2.696-.198 2.48.445zm4.347.015c-.141.43-1.124.204-1.796.214-1.622.03-1.653.03-1.701-.243-.057-.295.183-.432.984-.424 1.191.058 2.735-.197 2.513.453zm2.852.094c-.196.32-.725.129-1.421.129-.227 0-.334-.033-.406-.193-.021-.447.682-.417 1.523-.41.227.023.409.293.304.474zm5.858 1.31c-.113.542-1.048-.421-1.954-.644-.654-.158-2.146-.251-2.695-.338-.388-.061-.367-.474 0-.531 1.909-.309 4.765.983 4.649 1.513zm.198 3.176c-.008.716-1.433-.172-2.288-.291-.718-.089-1.939-.23-2.931-.094-.394.05-.354-.575.021-.635.852-.148 5.199.5 5.198 1.02zm-6.684-.824c-.188.297-.88.226-1.545.17-.217-.017-.373-.119-.44-.269-.019-.424.389-.446 1.185-.438.854-.064.903.367.8.537zm-6.023-.177c-.176.287-1.279.158-1.899.05-1.625-.293-2.958.473-2.99-.196-.018-.498 1.603-.375 2.391-.365 1.186.057 2.894-.145 2.498.511zm2.957.046c-.183.357-.654.33-1.315.262-.211-.018-.356-.032-.427-.205-.017-.5.684-.478 1.472-.463.219.029.373.207.27.406zm1.57-20.491c.052.446-1.132.222-1.962.331-1.651.203-1.794.359-1.681.021.267-.806 3.571-.963 3.643-.352zm.902.293c-.09-.057-.234-.228 0-.443.68-.518 1.746-.065 1.896.114.216.256-.089.497-.285.497-.262-.058-1.3.013-1.611-.168zm6.793 1.635c-.176.178-1.398-.645-2.026-.87-.99-.349-2.04-.304-2.019-.818.04-.974 4.951.823 4.045 1.688zm-8.117 5.146c-.099.205-.95.033-1.687.068-.75.032-1.299.228-1.355-.251-.028-.399.82-.315 1.625-.306.849.006 1.727-.125 1.417.489zm.855.105c-.256-.051-.242-.288-.007-.482.77-.128 1.764-.029 2.003.028.341.086.21.539-.08.546-1.646-.078-1.47-.039-1.916-.092zm7.262 1.497c-.187.143-.977-.362-1.745-.533-.721-.167-1.016-.247-1.164-.354-.343-.122-.137-.502.03-.571.164-.068 3.664.844 2.879 1.458zm-3.47-1.509c-.083.551-.625.34-.862.262-.15-.052-.232-.287-.103-.444.193-.23.946.01.965.182zm-6.618-3.424c.227.496-.658.55-.894.474-.147-.058-.227-.289-.104-.446.196-.236.848-.172.998-.028zm1.297.301c-.089-.059-.188-.283.041-.488.713-.266 2.612-.094 2.828.028.524.288.223.603.032.603-1.281-.199-2.644.016-2.901-.143zm7.169.777c-.178.176-1.549-.324-2.221-.381-.74-.057-1.155-.186-1.186-.381.02-.488 1.12-.4 2.082-.197.958.204 1.778.529 1.325.959zm1.731.41c-.084.553-.582.262-.82.184-.147-.055-.273-.375-.146-.529.198-.237 1.033.184.966.345zm-16.744 4.476c1.006-.23 1.664.999.24.777-.503-.078-.553-.205-.557-.374-.007-.143-.015-.33.317-.403zm7.323.431c-.148.431-2.268.28-2.941.292-1.663.019-2.274.04-2.449-.251-.019-.441.931-.419 1.732-.41.841.007 3.884-.277 3.658.369zm3.454.268c-.118.156-.296.078-.977.109-.748.045-1.218.035-1.264-.261-.019-.431.734-.446 1.538-.438.848.007.894.322.703.59zm4.151.729c-.493.399-.762-.248-1.622-.357-.667-.086-1.343-.064-1.891-.165-.35-.184-.225-.568.141-.661 2.059-.129 3.871.784 3.372 1.183zm1.571.693c-.051.446-.425.472-.775.188-.147-.055-.295-.389-.164-.539.192-.239.836-.015.939.351zm-.048 12.836c-.21.463-1.74-.282-2.816-.321-.753-.028-1.167.046-1.268.025-.391-.071-.352-.559.024-.631 1.206-.223 4.313.354 4.06.927zm-7.215-.699c-.186.309-.636.155-1.307.098-.215-.017-1.089.254-1.363-.046-.091-.511 1.118-.568 1.565-.537.834-.012 1.211.313 1.105.485zm-4.434-.01c-.194.349-2.449-.041-3.072-.063-1.232-.049-2.043.405-2.047-.278.199-.429 2.283-.199 2.75-.188 1.176.042 2.676-.022 2.369.529zm6.605-.288c.228.488-.656.55-.896.472-.146-.062-.229-.296-.102-.446.194-.238.847-.171.998-.026zm12.869-23.528c.951 0 1.078.232.965.55-.117.215-1.282.125-1.625.136-1.152.028-1.692.74-2.118.61-.485-.146-.223-.548.314-.771.491-.204 1.405-.525 2.464-.525zm2.489-.096s1.362.065 1.644.23c.394.233.314.5.155.618-.079.086-1.959-.116-2.032-.151-.095-.053-.207-.101-.234-.313-.014-.248.074-.367.467-.384zm12 .222c.405.065.542.719.159.776-1.432.202-1.702.13-1.72-.078-.405-.845 1.493-.713 1.561-.698zm-5.055.296s1.625.021 1.972.113c.155.036.354.325.148.611-.148.195-2.227.246-2.398-.459 0 0-.063-.244.278-.265zm-3.569-.135s1.435.105 1.781.191c.155.047.542.251.334.534-.144.198-2.219.248-2.396-.458 0 0-.059-.24.281-.267zm-3.642 3.436c.159-.445 1.383-.349 1.711-.094 0 0 .077.227-.081.362-.772.346-1.733.019-1.63-.268zm3.483.182c.366-.27 1.852-.007 1.415.554-.099.058-1.145.239-1.52.03-.079-.048-.267-.306.105-.584zm5.021.242c.549.653-1.284.643-1.487.622-.234-.028-.643-.092-.707-.313-.048-.622 1.815-.75 2.194-.309zm3.928-.319c.264.865-1.228.747-1.428.747-.233-.007-.648-.036-.732-.251-.103-.615 1.984-1.05 2.16-.496zm-14.623-.754c.354-.021 1.156-.021 1.2.427-.289.528-1.829.405-2.171.467-1.359.216-1.693.737-2.119.607-.485-.144-.225-.55.316-.768.489-.203 1.77-.684 2.774-.733zm6.641 4.07c.056.276-.11.398-.132.428-.136.185-1.497.121-1.744-.353-.045-.08-.032-.485.431-.389.383.083 1.384-.322 1.445.314zm1.463-.262c.132-.026 2.498.014 1.88.697-.091.097-.288.235-.469.233-.617-.012-1.646-.091-1.8-.233-.095-.088-.094-.252 0-.465.05-.125.207-.196.389-.232zm3.315.029c1.773.349 3.055-.216 3.243.201.187.41-.009.461-.009.461-.236.19-3.644.286-3.748-.261-.052-.272.339-.435.514-.401zm-7.905-.081c.389.636-.867.514-1.013.497-.17-.03-.479-.094-.525-.292-.037-.583 1.239-.686 1.538-.205zm-4.039-.462c.355-.022.938-.169 1.158.333-.323.644-1.056.291-2.17.468-1.364.223-1.375.628-1.724.318-.317-.275.007-.513.547-.729.488-.207 1.186-.337 2.189-.39zm1.97 3.524c.18.04.645.062.852.258.174.159.133.395 0 .465-1.708.225-1.642-.156-1.642-.156-.124-.596.545-.621.79-.567zm13.185.28c.787.387-.507.826-1.351.576-.084-.021-.235-.103-.311-.235-.141-.463 1.322-.509 1.662-.341zm-9.662-.282c.441.114.442.66 0 .771-.147.041-1.736.296-1.801-.23.026-.897 1.658-.581 1.801-.541zm7.352.477c.133.532-.353.468-.822.432-.588-.05-2.293.15-2.209-.266.067-.331.743-.152.954-.246.546-.237 1.998-.237 2.077.08zm-4.208.34c-.182.37-1.885.176-1.644-.388.082-.19 1.822-.456 1.644.388zm-9.506-1.073c.354-.005 1.088-.042 1.185.495-.517.438-1.081.119-2.186.352-1.008.22-1.223.432-1.199-.122.026-.374 1.2-.725 2.2-.725zm2.465 3.601s1.352-.164 1.787.071c.143.073.374.274.185.575-.128.208-2.169.267-2.161-.316.001-.001-.081-.249.189-.33zm3.452.272c.452-.173 2.098.242 1.368.817-.13.121-1.279-.023-1.625-.3-.077-.061-.211-.342.257-.517zm3.028.094c.385-.142 1.777.2 1.156.667-.11.102-.999.159-1.286-.064-.065-.05-.263-.459.13-.603zm3.947.266c-.518.068-1.17.23-1.215.474.058.29.388.238 1.447.193.531-.019 1.996.209 2.389.12.394-.094.427-.457.276-.471-.863-.079-1.631-.472-2.897-.316zm-12.735-.648c.354 0 1.09-.191 1.069.398-.352.532-1 .321-2.106.551-1.005.219-1.248.375-1.215-.172.016-.378 1.248-.777 2.252-.777zm2.705 4.076l.842.002c.417.007.247.523.191.58-.039.107-.689.172-1.155.145-.226-.017-.655-.149-.686-.483.087-.302.507-.223.808-.244zm2.742.042c.127-.021 2.298.015 1.728.582-.083.08-.266.193-.432.193-.566-.014-1.513-.075-1.655-.193-.087-.071-.085-.212 0-.388.052-.109.195-.163.359-.194zm3.359.116c.424-.185 1.802.402 1.255.847-.111.037-1.172-.017-1.487-.308-.069-.066-.191-.359.232-.539zm3.003.273c.133-.03 2.5.012 1.879.697-.087.095-.287.237-.47.23-.618-.01-1.643-.085-1.801-.23-.096-.086-.094-.258 0-.465.055-.128.212-.201.392-.232zm-11.966-.607c.493-.037 1.228-.234 1.209.36-.354.526-.75.297-1.861.534-1.002.216-1.247.374-1.216-.181.017-.372.869-.638 1.868-.713zm15 .793c.388-.146 1.772.2 1.158.669-.11.1-1.002.158-1.293-.063-.062-.051-.262-.461.135-.606zm-7.973 3.199c.121-.023 2.297.016 1.728.578-.08.083-.265.197-.43.197-.568-.014-1.514-.078-1.661-.197-.084-.071-.083-.209 0-.384.053-.104.198-.164.363-.194zm3.555.343c.68-.085 1.945.115 1.792.69-.066.394-.458.073-.716.083-.481.023-1.967.235-1.791-.426.004-.276.556-.324.715-.347zm2.672.735c.019.405 1.667.889 1.667.275 0-.208-1.496-1.128-1.667-.275zm-8.034-1.159c.001 0-1.168-.307-1.665-.165-.128.044-.329.261-.191.548.094.193 1.971.438 1.984-.086 0 0 .064-.18-.128-.297zm-4.51-.243c.355 0 1.883.021 1.864.613-.206.493-1.411.023-2.914.206-1.02.131-1.248.378-1.217-.175.017-.375 1.268-.64 2.267-.644zm3.631 3.557c.459-.172 2.225.181 1.495.756-.126.117-1.407.042-1.75-.235-.079-.062-.212-.34.255-.521zm3.402.445c.388-.144 1.773.194 1.159.668-.11.097-1.085-.021-1.375-.246-.064-.047-.181-.279.216-.422zm4.274.673c.369.693-1.102.531-1.261.491-.182-.042-.505-.143-.534-.365.025-.619 1.543-.597 1.795-.126zm.954.466c.012.407.969.679.969.061 0-.208-.801-.912-.969-.061zm-14.216-1.403c.13-.044 4.026-.577 3.856.143-.026.126.156.284-1.982.366-.538.021-2.105.335-2.263.194-.097-.09-.278-.439.389-.703zm4.356 6.393s1.359-.093 1.787.162c.134.08.354.295.15.587-.141.193-2.179.15-2.139-.432.001.001-.07-.25.202-.317zm3.848.472c.123-.015 2.295.133 1.692.664-.085.08-.274.184-.441.174-.564-.037-1.504-.148-1.644-.277-.08-.078-.072-.217.023-.393.058-.096.204-.146.37-.168zm3.978 1.16c-.573-.117-1.544-.355-1.349-.732.155-.303.762.072.991.055 1.252-.124 1.424.896.358.677zm3.127.323c-.589.008-1.582-.208-1.479-.615.084-.329.595-.05.815-.124 1.553-.514 1.751.711.664.739zm-12.642-1.735c.082.42-.486.328-1.526.31-.972-.019-1.747.83-1.994.241-.087-.198.128-.396.669-.619.492-.203 2.766-.359 2.851.068zm2.353-3.546c.09-.03 1.689.007 1.271.564-.061.079-.194.194-.321.189-.414-.007-1.109-.075-1.212-.189-.068-.07-.064-.21 0-.376.034-.109.138-.167.262-.188zm2.562.217c.417-.184 2.702.178 1.981.939-.112.029-1.901-.115-2.218-.397-.064-.066-.191-.364.237-.542zm4.966.634c.374-.02 2.076.276 1.975.838-.027.125-.583.102-.872.045-.896-.204-1.366-.351-2.125-.351-.307 0-.292-.287-.197-.499.054-.125 1.038-.022 1.219-.033zm-9.204-.492c.062.633-.844.349-1.881.325-.974-.015-1.736.713-1.987.128-.084-.209.134-.403.67-.616.491-.212 3.153-.276 3.198.163zm10.747 6.88c.136-.017 2.496.149 1.838.796-.089.092-.296.221-.479.207-.613-.047-1.638-.171-1.787-.323-.089-.095-.078-.263.031-.466.056-.127.216-.191.397-.214zm-1.607.46c-.198.365-1.896.082-1.623-.475.091-.185 1.844-.362 1.623.475zm-4.324-1.001c.121-.011 2.292.131 1.688.669-.083.078-.271.178-.438.173-.566-.045-1.504-.151-1.644-.283-.083-.073-.073-.211.023-.385.056-.102.2-.154.371-.174zm-2.137-.124c.359.655-.889.465-1.038.439-.171-.031-.473-.112-.506-.315-.008-.583 1.274-.617 1.544-.124zm-4.53-.276c.354-.007 1.151-.244 1.125.353-.35.527-.997.318-2.11.559-1.001.207-1.242.365-1.211-.188.018-.371 1.189-.724 2.196-.724zm-1.686 3.476s1.208-.374 1.801-.215c.155.037.314.168.151.479-.547 0-1.804.16-2 .353 0-.001-.177-.494.048-.617zm-14.383-10.565c.627-.142 2.099.619.486.732-.111.019-.989.04-1.099-.076-.557-.58.451-.62.613-.656zm-1.789.383c-.011.348-1.711.328-3.047.243-1.608-.107-2.585.057-2.574-.405.085-.588 1.615-.198 2.407-.19 1.182.063 3.242-.412 3.214.352zm9.153.569c-.111.622-2.417-.18-3.495-.222-.75-.028-1.406-.059-1.508-.076-.39-.071-.352-.567.023-.632.793-.142 5.059.485 4.98.93zm2.107 1.222c-.189.301-.485 0-1.042-.157-.209-.056-.476-.173-.381-.521.276-.389.772-.062.959.071.486.249.566.438.464.607zm-4.11 5.487c-.024.546-2.47-.248-3.537-.292-.754-.021-2.019.021-2.122 0-.387-.058-.397-.607-.024-.668 1.198-.193 5.717.224 5.683.96zm-7.068-.581c-.028.3-1.556.205-3.018.121-2.498-.028-2.679-.121-2.586-.455.163-.562 1.587-.372 2.388-.433 1.184.061 3.281.003 3.216.767zm11.311 1.861c-.205.297-1.042-.334-1.715-.39-.215-.014-.97-.085-.931-.427.017-.441.581-.41 1.425-.17.798.206 1.46.633 1.221.987zm-2.292-4.423c-.152.83-1.078-.118-3.489-.226-.751-.026-1.408-.055-1.511-.073-.391-.075-.352-.563.022-.637 1.208-.225 5.095.32 4.978.936zm-7.11-1.212c.635-.119 2.108.623.474.727-.113.006-.998.028-1.108-.064-.563-.498.467-.631.634-.663zm-2.019.299c-.018.554-2.692.218-3.319.174-1.61-.1-2.246.179-2.274-.486.085-.586 1.615-.196 2.407-.187 1.182.056 3.219-.266 3.186.499zm10.652 1.242c.619.191 1.566 1.532.078.858-.108-.045-.898-.438-.945-.566-.264-.704.707-.337.867-.292zm.437 11.866c.088.042.399.035.183.443-.22.331-4.426-.408-4.644-.443-.428-.07-.404-.158-.394-.471.115-.249.442-.181.498-.184.16-.031 4.278.61 4.357.655zm-6.252-.493c-.156.209-2 .259-1.94-.18.03-.452.484-.248 1.272-.236.878 0 .831.194.668.416zm13.376-.097c.357-.036.706-.251.68.341-.117.356-.611.235-1.724.477-.999.206-1.255.454-1.148-.088.053-.267 1.191-.62 2.192-.73zm-.024-3.035c.355 0 .848-.177.822.412-.195.251-.831.134-1.938.369-1.003.217-1.167.544-1.138-.008.021-.38 1.253-.773 2.254-.773zm-23.519-39.558c-.049.011-.068.305-.068.762 0 .455.019 1.078.036 1.742l.01 3 .084.005c-.078-.145-.087-3.004-.087-3.004-.018-.654-.034-1.29-.034-1.757 0-.442.014-.729.062-.74.882-.194 3.381-.514 4-.228.168.081.226.898.226 1.887 0 1.524-.138 3.441-.21 3.626-.056.145-.936.237-1.86.283.933-.039 1.808-.136 1.867-.283.074-.187.221-2.099.221-3.622 0-.99-.062-1.811-.243-1.898-.619-.292-3.119.033-4.004.227zm0 0zm.063 5.544c.282.065 1.207.072 2.096.032-.864.033-1.739.014-2.097-.067l.001.035zm-.131-5.863c-.348.071-.364.221-.294 2.656l-.003 1.641.019 1.566c.065.525.646.46 1.209.393l.854-.077.895-.014c1.647-.021 1.949-.045 2.068-.351l-.017-.985-.103-2.03c.066-2.785-.213-2.914-.42-3.008-.788-.367-3.544.065-4.208.209zm3.931.396l-.003.042c0 .135.049.603.049 1.545l-.015.801.11 2.104.034.543-1.434.072-.911.013-.906.081-.57.035c.074-.021.079-.779.079-1.142l.003-1.858-.003-2.021c1.056-.206 3.111-.428 3.567-.215zm74.861 18.919c-.537-3.191-.608-5.915-.669-8.113-.055-2.256-.098-3.887-.642-4.879l.035.08-4.75-11.75.016.05c-.973-3.477-9.345-13.228-9.759-13.739-.968-1.527-6.647-5.786-8.237-6.602-.051-.042-6.227-4.307-6.227-4.307-2.543-1.819-6.66-3.453-10.104-4.542l-3.986-1.402c-4.953-1.71-12.738-1.915-13.768-1.837-.413.03-2.36.03-2.777 0-1.026-.078-8.812.127-13.47 1.901l-2.912 1.022c-3.738 1.033-7.142 2.086-9.695 3.916 0 0-6.947 4.865-7.247 5.07-1.607.829-8.906 6.075-9.752 7.545l.052-.076c-.372.464-7.926 9.436-8.901 12.92l.016-.049-4.903 11.879.036-.08c-.547.992-.44 2.968-.498 5.231-.058 2.192-.277 4.57-.818 7.761-.432 2.545-.096 4.787.231 7.51.326 2.732.441 5.947.943 8.343.416 2.022.986 3.769 1.103 5.051.679 3.235 2.302 7.465 3.125 8.64.603.862 1.727 2.45 1.727 2.45.987 1.338 2.147 2.925 2.854 4.068.71 1.148.963 1.86 1.531 2.859.789 1.39 1.497 2.643 2.294 3.766.8 1.132 1.694 2.149 2.86 3.082.302.245 2.901 1.988 4.15 2.814 1.471.977 1.971 1.309 2.265 1.584l.915.917c2.54 2.563 4.434 4.544 6.081 5.483.633.354 2.254.77 2.786.779.536.005.994-.102 1.385-.331.696-.382 1.144-1.08 1.382-2.13.04-.134.369-.904.717-1.723.55.119 1.247.803 1.761 1.279l-.347 1.186c-.301 1.02-.106 2.024.572 2.908 2.717 3.531 12.82 4.856 21.627 4.61 9.104.279 20.465-2.43 21.973-5.875.293-.669.159-1.34-.38-1.891-.16-.161-.275-.359-.416-.542.055-.087.137-.184.305-.271.417-.197.918-.051 1.161-.077l.019-.004c.377.671.77 1.392 1.187 2.194.166.331.474.543.858.605 2.639.445 11.134-7.04 11.214-7.12.289-.273 1.874-1.629 3.345-2.611 1.249-.827 2.328-1.549 2.636-1.797 2.326-1.86 4.012-4.052 5.592-6.838 1.128-1.991 2.407-4.247 4.381-6.928l.171-.227c1.831-2.482 4.303-7.348 4.682-10.851.115-1.295.481-3.041.901-5.059.996-4.787 2.238-10.753 1.369-15.852zm-80.508 53.272c-.411-.37-1.008-.814-1.729-.978 1.819-4.266 2.608-6.302 2.773-7.272l.017-.168.021-.18v-.008l-.025-.222-.326-.72c-.197-.387-.792-1.164-.792-1.781 0-.88.311-.726.675-.704.38.01 2.119.396 3.291.96.9.424 1.556 1.306 1.908 1.743.143.166.127.494-.119.731-.246.229-.375.268-.88.478-.549.223-1.387.898-1.552 1.033-1.073.435-1.775 2.15-2.758 5.396l-.066.218c-.1.331-.21.69-.313 1.055l-.125.419zm-.968-10.391c-.638-.32-1.21-.614-2.019-1.193-1.235-.893-4.248-3.284-5.564-4.073-.892-.535-.977-1.047-2.059-2.179-.928-.978-1.888-1.978-2.742-2.623-1.115-.841-3.052-3.815-3.705-4.894-2.235-3.646-5.812-10.699-6.614-17.678-.103-.893-.119-3.213-.141-5.261-.024-1.756-.041-3.271-.091-3.952.103-1.426.451-5.247.829-6.249.269-.714.479-2.207.755-3.409.238-1.047.509-2.609.707-3.134.012-.057 1.011-2.933 1.695-4.156.005-.012 3.183-6.027 3.183-6.027.027-.057 1.659-3.462 2.873-4.734l1.229-1.315c1.308-1.417 2.664-2.882 3.952-3.874 2.053-1.581 5.264-3.752 8.117-5.104l3.864-1.91c1.357-.698 2.104-1.082 3.269-1.441.073-.013 7.826-2.482 12.989-2.781-.451 1.114-.822 2.139-.952 2.615 0 0-1.191.242-2.838.299-.882.033-3.563.502-3.563.502 1.862 2.85 3.5 4.586 4.271 5.372 0 0-.937 5.444-.91 6.076.095-.026 2.962-1.494 3.901-2.02.943-.531 2.04-.881 2.184-.86.056.01 2.7 1.121 3.341 1.508 1.472.876 2.468 1.42 2.82 1.531v-.071c0 .007-1.383-5.789-1.358-6.088 0-.036.714-.723 1.183-1.307.772-.971 1.598-1.639 2.114-2.231.519-.596 1.472-1.692 1.503-1.75-.052-.014-6.259-.761-6.649-.924-.019-.007-.599-1.354-1.103-2.575 1.271.083 2.074.205 3.508.428l.064.011c3.757.6 7.962 2.22 9.753 2.896-.012-.007 1.524.618 1.691.689.073.041 2.67 1.107 2.67 1.107 1.755.949 3.324 1.87 3.989 2.386l.947.669c1.925 1.347 6.079 4.131 6.771 5.229l1.062 1.428c.634.795.982 1.814 1.305 2.621.585 1.46 1.969 3.144 3.303 4.771.93 1.132 1.808 2.204 2.341 3.102-.005-.007 1.716 2.411 2.062 4.625.43 2.776 1.139 7.049 1.509 8.293 2.006 6.75 1.429 10.304.645 13.876-.242 1.092-.78 2.615-.904 3.653-.141 1.186-.331 2.612-1.095 4.22-.295.626-.88 1.989-1.125 2.779-.395 1.27-.807 2.588-1.533 3.565-.281.39-.817 1.233-1.557 2.413-1.748 2.777-4.385 6.979-6.681 9.773-.733.893-2.683 2.478-4.253 3.742-.982.793-1.832 1.479-2.25 1.889-.622.608-1.926 1.592-3.022 2.385l.056-.301c0-.16-.022-.322-.071-.48-.11-.348-.399-.809-1.151-1.021-.849-.236-1.652.142-2.773.596-.796.314-1.744.757-2.978 1.884-.498.446-1.223 1.179-.979 1.764.185.447.602.837 1.132 1.136-2.69.822-5.325 1.609-6.261 1.797-.639.121-2.824.779-4.229 1.017-1.554.268-3.182.527-3.997.555-3.288.074-8.041-1.108-9.008-1.648l-.04-.023-.042-.017c-2.254-.851-5.284-1.966-7.213-2.456l.119-.063c.823-.34 1.312-.787 1.456-1.355.083-.339.074-.884-.464-1.527-.579-.693-1.5-1.394-2.398-1.812-.239-.12-2.317-.906-3.215-.939-.675-.029-1.038-.06-1.317.115l-.048.023c-.373.225-.511.565-.511.972-.003.339.108.74.261 1.143zm22.301-79.925c-.683-.538-2.142-3.077-2.142-3.077.085-.336 2.142-4.849 2.142-4.849.176.783.146 2.394.089 3.996-.056 1.595-.143 3.186-.089 3.93zm-7.765-1.759c.666.164 2.72.796 2.72.796 1.485.56 2.829 1.107 4.401 1.524-.228.476-.718 1.356-.718 1.356s-3.387 5.263-3.649 5.642c0 0 1.018-5.39.975-5.453-.217-.324-2.283-2.114-3.729-3.865zm14.088 1.597c-.032.226-1.28 1.68-1.28 1.68-.241.026-4.024-.853-4.452-1.058 0 0 1.539-2.889 2.128-3.185l5.526.561c-.443.151-2.036.575-3.465 1.07-1.648.647-3.212 1.222-3.212 1.222s4.238-.221 4.755-.29zm-1.28 7.768c-.429-.114-4.16-2.166-4.16-2.166-.142-.107-.7-4.068-.645-4.8l4.805 6.966zm16.014 86.231c-.947 2.157-10.371 5.786-19.842 5.494-9.935.275-19.636-1.232-21.698-3.915-.309-.403-.483-1.384-.483-1.816 0-.19.03-.387.087-.588l.481-1.647.003-.006.061-.208.018-.064c.901-3.084 1.91-6.569 2.724-6.786.735-.045.708-.434 4.527.997 1.419.742 8.773 2.883 10.362 2.991 1.172.079 5.308-.034 6.972-.313l3.04-.673c1.325-.09 8.349-2.231 9.577-2.612l.027.007.114.076h.002c.257.263.53 1.068.761 1.825l.184.614c.128.443.27.913.427 1.396l.131.38c.124.361.257.719.403 1.086l.243.531c.145.322.308.635.486.941l.317.521.225.359.896 1.224-.045.186zm.253-3.123v.005c-.23.101-.395.22-.547.329-.37-.628-.668-1.3-.921-1.978l-.113-.296-.285-.834-.195-.649-.124-.414c-.483-1.652-.883-2.995-1.805-3.315l-.062-.035-.285-.026-.167-.018c-1.083.053-2.265-.425-2.433-.835-.025-.067.073-.479.236-.624 1.088-1 1.625-1.64 2.33-1.925.525-.21 1.702-.788 2.938-.466.288.072.324.469.335.505l.021.134c0 .444-.458 1.231-.84 1.693-.615.547-.889 1.071-.889 1.653 0 .978.718 2.109 1.757 3.747.523.824 1.161 1.834 1.877 3.064-.239.052-.517.141-.828.285zm35.325-38.058c-.431 2.058-.797 3.836-.922 5.189-.536 4.948-2.268 7.288-4.458 10.255l-.166.224c-2.02 2.737-3.316 5.025-4.464 7.053-1.515 2.674-2.715 4.783-4.863 6.504-.267.207-1.428.984-2.552 1.733-2.16 1.441-3.601 2.411-3.943 2.737-2.127 2.044-9.067 7.216-10.2 6.801-1.511-2.929-2.797-4.969-3.738-6.451-1.102-1.739-1.564-2.547-1.564-3.067 0-.334.19-.558.516-.835.294-.2 3.133-2.399 4.355-3.599l2.755-1.979c1.7-1.368 4.5-4.547 5.314-5.545 2.339-2.856 3.641-5.025 5.403-7.832.699-1.107 1.859-3.018 2.115-3.361.844-1.145 1.178-2.022 1.583-3.327.234-.744.743-1.604 1.001-2.16.816-1.727 1.113-3.768 1.267-5.063.116-.972.066-1.396.303-2.455.425-1.943 1.177-4.726 1.177-7.491 0-2.259-.39-4.065-1.335-7.239-.361-1.214-1.149-5.568-1.565-8.295-.379-2.404-1.967-5.547-2.034-5.681-.598-1.009-1.71-2.014-2.669-3.176-1.28-1.561-2.394-3.273-2.912-4.564-.39-.97-1.162-1.944-1.846-2.802l-.987-1.322c-.751-1.202-3.637-3.271-6.527-5.29l-.918-.652c-.724-.56-2.583-1.568-4.552-2.631l-2.498-1.377-.039-.014-1.738-.708c-1.829-.69-6.511-2.227-8.215-2.496l-.063-.007c-1.897-.299-3.387-.581-5.886-.711l-.282-.751c-.171-.525-.832-1.718-1.089-2.437-.44.315-1.149 1.719-1.785 3.183-5.282.353-12.629 2.378-12.999 2.48-1.29.39-2.071.794-3.485 1.522l-5.59 2.752c-3.695 1.749-5.637 3.442-6.658 4.231-1.369 1.051-2.415 1.834-3.762 3.29l-1.214 1.297c-1.344 1.417-3.764 6.153-3.833 6.303-.006 0-2.156 3.68-2.156 3.68-.731 1.312-2.902 6.888-2.954 7.038-.215.584-.455 1.648-.709 2.779-.265 1.17-.732 2.335-.78 3.022-.318 4.446-.593 6.414-.629 6.952l-.003.051.003.042c.05.615-.238 2.255-.187 3.585.081 2.17.056 4.418.148 5.366.419 4.123 2.768 10.975 5.111 14.795.099.168 1.76 3.849 5.956 8.699.633.73 2.234 2.113 3.13 3.052 1.139 1.192 1.505 1.778 2.531 2.396 1.279.773 2.536 1.669 3.751 2.545 1.353.972 2.755 1.975 4.209 2.826l.048.018.014.032-.005.021c-.007.099-.038.235-.081.399l-.036.126c-.05.184-.121.396-.203.636l-.076.215-.287.771-.055.145-.351.901-.113.273-.366.905-.218.521-.248.593-.19.452-.177.416-.542 1.268-.06.135-.057.133-.001.007c-.601 1.397-.768 1.803-.806 1.979-.161.698-.423 1.141-.798 1.352-.474.267-.979.486-2.005.125-1.351-.467-2.465-1.673-3.827-2.932-1.135-1.043-2.242-2.17-2.986-2.924l-1.531-1.252c-.341-.332-1.2-.986-3.364-2.425-.515-.344-1.017-.57-1.454-.865-.522-.351-1.675-1.589-1.819-1.706-2.151-1.714-2.614-2.985-4.13-5.659-1.142-2.027-2.801-4.971-3.331-5.62l-1.299-1.656c-2.192-2.967-3.917-5.307-4.452-10.266-.125-1.343-.635-2.533-1.061-4.584-.198-.949-.266-2.529-.464-3.551-.786-4.054-1.431-8.562-.766-12.461.55-3.268.461-5.375.518-7.606.052-2.012.094-3.602.498-4.33l.185-.704 4.204-11.059.008-.024c.455-1.625 3.834-7.064 5.135-8.891 1.293-1.825 4.703-5.49 4.747-5.547l.031-.036.025-.043c.622-1.077 6.342-5.009 8.059-5.867l.037-.021 7.317-5.121c2.399-1.717 7.011-3.176 10.379-4.239l2.393-.776c4.702-1.63 11.685-2.202 12.64-2.13.469.036 2.486.036 2.957 0 .952-.072 9.232.5 13.93 2.13l3.005.66c3.368 1.064 7.362 2.638 9.763 4.355.005 0 7.828 5.2 7.828 5.2l.04.018c-1.005-.502 6.559 3.733 8.106 6.403l.022.042.027.034c.094.115 8.418 10.582 9.332 13.83l.006.024 4.126 10.427.027.04c.401.729.517 2.946.569 4.959.061 2.227.452 5.208 1.007 8.477.829 4.875-.707 10.513-1.683 15.209zm-59.873 2.772c-.105.531-2.411-.434-3.482-.472-.752-.024-2.719-.103-2.821-.116-.39-.06-.559-.506-.19-.57 1.204-.191 6.611.57 6.493 1.158zm-11.098-1l-2.377.044c-2.503-.034-2.679.006-2.584-.329.158-.563 1.628-.221 2.432-.286 1.184.061 2.561-.189 2.529.571zm1.507-.11c.153-.212 1.655-.288 1.598.154-.036.447-.23.258-1.014.25-.877 0-.751-.181-.584-.404zm12.623-76.486c-.673-.012-1.181-.551-1.172-1.216.012-.669.539-1.192 1.212-1.182.674.01 1.195.556 1.185 1.222-.012.664-.549 1.185-1.225 1.176zm-4.248.113c-.671.04-1.221-.459-1.261-1.121-.04-.665.445-1.228 1.117-1.272.674-.039 1.232.46 1.276 1.125.039.665-.458 1.225-1.132 1.268zm-4.303.411c-.668.086-1.25-.371-1.336-1.031-.085-.659.359-1.262 1.028-1.344.668-.09 1.263.377 1.35 1.035.085.664-.373 1.249-1.042 1.34zm-4.258.699c-.66.134-1.274-.284-1.406-.938-.129-.653.273-1.278.937-1.414.659-.13 1.285.294 1.416.947.129.651-.287 1.274-.947 1.405zm-4.202.993c-.654.179-1.296-.191-1.47-.837-.174-.64.183-1.294.833-1.473.648-.18 1.301.2 1.479.84.177.647-.195 1.293-.842 1.47zm-4.137 1.289c-.635.223-1.302-.1-1.522-.73-.219-.628.091-1.311.731-1.534.637-.223 1.314.115 1.532.74.22.626-.106 1.302-.741 1.524zm-4.007 1.563c-.618.269-1.304-.011-1.566-.625-.263-.612 0-1.313.62-1.578.62-.266 1.318.014 1.583.633.261.611-.017 1.304-.637 1.57zm-3.909 1.848c-.598.313-1.303.078-1.606-.515-.305-.59-.091-1.308.508-1.616.603-.308 1.317-.072 1.622.517.306.593.078 1.308-.524 1.614zm-3.757 2.102c-.577.352-1.295.163-1.64-.404-.346-.568-.178-1.298.4-1.645.575-.348 1.306-.165 1.649.402.346.572.168 1.299-.409 1.647zm-3.63 2.37c-.549.394-1.279.26-1.662-.287-.387-.542-.27-1.278.28-1.671.556-.393 1.294-.256 1.681.291.38.544.252 1.28-.299 1.667zm-3.449 2.617c-.523.424-1.262.345-1.678-.173-.421-.517-.357-1.261.167-1.685.521-.428 1.272-.341 1.692.168.417.521.341 1.266-.181 1.69zm-3.265 2.841c-.492.461-1.233.427-1.687-.057-.453-.486-.44-1.237.05-1.693.496-.46 1.247-.431 1.701.058.454.481.431 1.228-.064 1.692zm-3.052 3.051c-.46.495-1.202.512-1.688.061-.484-.452-.523-1.203-.064-1.691.46-.497 1.216-.517 1.702-.057.484.452.511 1.199.05 1.687zm-2.845 3.264c-.423.523-1.162.591-1.678.171-.514-.42-.606-1.162-.179-1.686.423-.52 1.172-.592 1.692-.175.518.424.593 1.165.165 1.69zm-2.585 3.411c-.388.55-1.121.67-1.664.288-.544-.38-.682-1.118-.295-1.668.393-.552 1.136-.674 1.679-.287.543.383.67 1.118.28 1.667zm-2.376 3.634c-.349.578-1.068.745-1.639.397-.57-.344-.758-1.065-.411-1.645.35-.575 1.085-.747 1.653-.402.57.345.747 1.073.397 1.65zm-2.106 3.755c-.31.601-1.017.819-1.606.513-.591-.303-.834-1.014-.524-1.613.309-.596 1.031-.823 1.626-.518.588.307.813 1.017.504 1.618zm-1.847 3.909c-.268.619-.959.884-1.572.619-.607-.261-.899-.949-.63-1.571.266-.621.969-.89 1.583-.628.61.265.885.959.619 1.58zm-1.565 4.003c-.223.635-.892.949-1.52.73-.629-.22-.962-.888-.738-1.524.223-.636.905-.961 1.532-.737.626.223.954.893.726 1.531zm-1.289 4.131c-.18.647-.827 1.014-1.469.835-.643-.177-1.024-.821-.844-1.467.178-.653.837-1.021 1.479-.844.643.177 1.009.83.834 1.476zm-1.002 4.205c-.133.66-.754 1.066-1.408.935-.655-.134-1.073-.749-.942-1.409.133-.661.764-1.071 1.415-.943.653.13 1.067.755.935 1.417zm-.704 4.257c-.086.668-.677 1.118-1.336 1.028-.661-.083-1.127-.668-1.041-1.341.089-.667.688-1.12 1.35-1.033.659.085 1.113.673 1.027 1.346zm-.409 4.302c-.043.675-.604 1.16-1.268 1.121-.661-.044-1.168-.59-1.125-1.265.042-.676.609-1.172 1.274-1.128.661.039 1.159.6 1.119 1.272zm-.119 4.297c.011.676-.508 1.208-1.174 1.213-.667.015-1.211-.494-1.224-1.171-.009-.674.52-1.213 1.186-1.224.665-.012 1.204.509 1.212 1.182zm.178 4.352c.049.671-.438 1.23-1.101 1.282-.663.051-1.24-.428-1.29-1.1-.049-.676.444-1.244 1.109-1.294.667-.05 1.23.438 1.282 1.112zm.473 4.286c.094.667-.355 1.257-1.014 1.357-.657.09-1.265-.345-1.36-1.013-.095-.665.359-1.266 1.019-1.36.659-.096 1.256.347 1.355 1.016zm.763 4.236c.14.657-.267 1.279-.914 1.423-.65.136-1.287-.254-1.428-.916-.143-.661.269-1.294.921-1.429.65-.142 1.28.261 1.421.922zm1.055 4.177c.188.646-.176 1.295-.814 1.486-.638.18-1.301-.163-1.486-.813-.19-.65.18-1.304.819-1.494.639-.185 1.295.176 1.481.821zm1.347 4.113c.231.634-.086 1.305-.708 1.534-.627.231-1.31-.073-1.542-.709-.235-.632.089-1.306.716-1.541.623-.228 1.303.086 1.534.716zm1.617 3.981c.274.608.005 1.304-.6 1.574-.61.272-1.312.022-1.588-.598-.277-.617 0-1.317.607-1.592.607-.268 1.306-.002 1.581.616zm1.899 3.872c.318.599.098 1.308-.492 1.617-.588.315-1.303.108-1.624-.488-.317-.592-.088-1.312.495-1.626.591-.314 1.307-.095 1.621.497zm2.179 3.761c.361.571.187 1.296-.376 1.65-.563.353-1.295.198-1.652-.375-.359-.571-.184-1.304.38-1.655.565-.351 1.295-.189 1.648.38zm2.401 3.562c.396.543.273 1.275-.263 1.665-.538.392-1.279.29-1.675-.261-.397-.545-.273-1.289.266-1.677.539-.39 1.278-.269 1.672.273zm2.662 3.406c.433.521.361 1.26-.15 1.687-.511.427-1.256.373-1.689-.144-.432-.521-.357-1.271.151-1.693.511-.428 1.251-.362 1.688.15zm2.885 3.223c.468.49.446 1.226-.036 1.685-.479.465-1.226.461-1.693-.027-.466-.488-.449-1.238.035-1.699.478-.462 1.226-.446 1.694.041zm3.099 3.012c.5.457.53 1.193.081 1.687-.447.499-1.193.545-1.69.091-.502-.451-.533-1.206-.084-1.702.446-.49 1.192-.526 1.693-.076zm3.304 2.794c.527.422.607 1.157.194 1.678-.41.518-1.153.623-1.681.201-.531-.416-.611-1.164-.198-1.689.409-.517 1.154-.606 1.685-.19zm3.486 2.562c.557.389.688 1.112.312 1.664-.377.546-1.108.701-1.665.32-.558-.382-.69-1.123-.317-1.67.378-.554 1.113-.687 1.67-.314zm3.623 2.311c.583.335.764 1.054.426 1.632-.334.569-1.056.771-1.638.427-.583-.338-.765-1.067-.428-1.643.336-.573 1.058-.76 1.64-.416zm3.791 2.043c.603.303.832 1.003.537 1.602-.298.603-1 .848-1.604.541-.604-.291-.838-1.016-.544-1.604.3-.596 1.007-.838 1.611-.539zm3.936 1.794c.625.259.901.948.646 1.56-.253.617-.941.916-1.562.654-.622-.256-.908-.96-.651-1.567.255-.618.945-.902 1.567-.647zm4.037 1.51c.641.212.964.877.753 1.51-.208.631-.875.974-1.512.761-.64-.214-.973-.892-.76-1.524.21-.634.88-.96 1.519-.747zm4.156 1.229c.653.174 1.025.821.858 1.46-.167.646-.805 1.033-1.458.86-.652-.165-1.029-.817-.864-1.465.167-.639.811-1.02 1.464-.855zm4.226.944c.663.119 1.077.737.956 1.39-.12.655-.728 1.09-1.394.968-.663-.126-1.084-.747-.965-1.408.122-.654.739-1.073 1.403-.95zm4.232.638c.668.077 1.126.659 1.047 1.325-.073.653-.656 1.131-1.324 1.054-.669-.076-1.132-.673-1.058-1.331.078-.665.665-1.127 1.335-1.048zm4.32.352c.673.03 1.166.583 1.134 1.245-.026.664-.575 1.175-1.245 1.151-.675-.038-1.177-.597-1.148-1.261.03-.662.584-1.17 1.259-1.135zm4.343.053c.674-.015 1.206.502 1.217 1.166.014.669-.493 1.215-1.168 1.229-.669.014-1.212-.513-1.227-1.178s.504-1.202 1.178-1.217zm4.301-.241c.673-.061 1.237.425 1.295 1.082.062.666-.408 1.25-1.081 1.312-.669.058-1.247-.434-1.306-1.096-.061-.662.423-1.236 1.092-1.298zm4.267-.529c.667-.107 1.263.334 1.366.989.104.662-.324 1.272-.991 1.378-.666.108-1.273-.34-1.377-.997-.104-.653.335-1.262 1.002-1.37zm4.262-.83c.659-.155 1.285.242 1.436.892.149.648-.234 1.287-.895 1.44-.653.151-1.292-.255-1.441-.897-.152-.651.246-1.286.9-1.435zm4.158-1.119c.646-.198 1.295.154 1.491.793.194.636-.144 1.305-.788 1.501-.647.194-1.309-.166-1.506-.8-.193-.636.158-1.294.803-1.494zm4.082-1.404c.629-.24 1.304.066 1.543.694.239.615-.054 1.305-.685 1.545-.628.241-1.317-.07-1.554-.694-.239-.621.067-1.304.696-1.545zm3.948-1.669c.608-.288 1.304-.028 1.584.57.28.604.037 1.312-.573 1.603-.613.277-1.319.02-1.6-.593-.28-.594-.025-1.305.589-1.58zm3.888-1.977c.589-.33 1.299-.121 1.623.463.321.586.128 1.305-.462 1.634-.59.325-1.312.106-1.636-.474-.323-.583-.117-1.299.475-1.623zm3.689-2.213c.566-.367 1.289-.209 1.652.355.359.559.212 1.296-.351 1.657-.567.367-1.301.204-1.665-.353-.359-.563-.2-1.289.364-1.659zm3.554-2.476c.539-.405 1.272-.291 1.671.24.402.532.308 1.272-.232 1.68-.542.4-1.287.291-1.685-.24-.397-.534-.294-1.276.246-1.68zm3.339-2.68c.509-.442 1.249-.379 1.684.126.432.506.39 1.252-.121 1.695-.512.436-1.262.374-1.696-.134-.437-.505-.381-1.244.133-1.687zm3.175-2.935c.479-.479 1.22-.463 1.688.011.468.478.478 1.22-.006 1.695-.479.479-1.231.466-1.7-.01-.468-.468-.463-1.215.018-1.696zm2.969-3.139c.444-.506 1.185-.545 1.685-.109.499.44.557 1.188.111 1.696-.443.502-1.198.545-1.696.1-.499-.434-.546-1.178-.1-1.687zm2.748-3.335c.409-.545 1.146-.633 1.673-.225.53.4.641 1.143.229 1.676-.412.537-1.159.631-1.686.225-.53-.406-.627-1.149-.216-1.676zm2.52-3.533c.37-.561 1.099-.7 1.654-.334.551.365.714 1.094.341 1.66-.372.563-1.11.704-1.667.341-.551-.374-.703-1.106-.328-1.667zm2.244-3.658c.334-.589 1.054-.776 1.631-.453.578.331.79 1.049.452 1.644-.328.577-1.058.771-1.637.448-.58-.336-.775-1.05-.446-1.639zm1.997-3.825c.296-.604.997-.842 1.595-.56.599.287.859.987.565 1.599-.292.608-1.004.853-1.603.568-.601-.29-.847-.995-.557-1.607zm1.739-3.966c.251-.627.935-.915 1.554-.667.617.242.924.929.677 1.555-.253.624-.944.918-1.563.674-.619-.25-.916-.935-.668-1.562zm1.454-4.057c.206-.646.865-.979 1.5-.775.636.197.987.859.787 1.498-.206.647-.879.986-1.511.78-.64-.199-.978-.862-.776-1.503zm1.171-4.185c.162-.657.797-1.037 1.444-.877.645.154 1.047.787.884 1.446-.158.651-.804 1.036-1.452.88-.646-.156-1.032-.79-.876-1.449zm.872-4.199c.112-.668.722-1.093 1.377-.981.658.11 1.1.72.985 1.379-.115.668-.733 1.1-1.391.984-.656-.111-1.085-.722-.971-1.382zm.584-4.301c.065-.672.648-1.137 1.308-1.067.665.064 1.146.636 1.076 1.307-.066.67-.654 1.146-1.316 1.075-.66-.065-1.136-.645-1.068-1.315zm.283-4.288c.021-.674.565-1.178 1.23-1.152.667.017 1.184.556 1.166 1.231-.021.677-.578 1.187-1.243 1.166-.664-.025-1.177-.573-1.153-1.245zm-.004-4.347c-.027-.675.481-1.213 1.147-1.236.667-.025 1.222.473 1.248 1.148.022.677-.499 1.223-1.161 1.249-.664.024-1.212-.484-1.234-1.161zm-.298-4.283c-.073-.672.399-1.244 1.063-1.311.661-.068 1.249.392 1.319 1.063.072.671-.409 1.253-1.072 1.317-.662.075-1.241-.401-1.31-1.069zm-.597-4.295c-.119-.664.316-1.268.975-1.383.652-.113 1.27.305 1.387.971.116.666-.326 1.275-.978 1.395-.656.115-1.267-.317-1.384-.983zm-.884-4.195c-.163-.658.228-1.283.873-1.445.646-.158 1.292.214 1.453.872.162.653-.233 1.293-.88 1.456-.648.159-1.288-.226-1.446-.883zm-1.189-4.178c-.207-.641.138-1.295.77-1.503.638-.205 1.305.13 1.512.768.205.644-.14 1.312-.775 1.515-.636.203-1.3-.138-1.507-.78zm-1.459-4.055c-.253-.624.043-1.304.663-1.552.621-.248 1.311.037 1.559.663.253.625-.049 1.314-.667 1.564-.62.246-1.306-.05-1.555-.675zm-1.754-3.966c-.288-.604-.04-1.3.557-1.588.601-.294 1.313-.059 1.603.545.294.611.042 1.322-.557 1.61-.602.289-1.304.043-1.603-.567zm-2.009-3.809c-.334-.585-.131-1.3.445-1.631.579-.329 1.301-.144 1.638.438.333.589.13 1.314-.446 1.641-.578.332-1.299.135-1.637-.448zm-2.257-3.655c-.376-.557-.225-1.285.331-1.657.556-.365 1.29-.232 1.663.332.375.559.221 1.293-.333 1.666-.552.368-1.285.223-1.661-.341zm-2.529-3.517c-.414-.534-.312-1.271.213-1.673.531-.407 1.273-.325 1.685.206.411.532.31 1.281-.218 1.69-.527.407-1.268.309-1.68-.223zm-2.758-3.334c-.449-.503-.399-1.243.097-1.687.499-.441 1.246-.405 1.696.098.446.503.393 1.255-.103 1.697-.498.441-1.244.396-1.69-.108zm-2.975-3.135c-.484-.47-.484-1.213-.017-1.687.469-.476 1.213-.497 1.693-.021.48.474.48 1.228.017 1.702-.465.474-1.213.482-1.693.006zm-3.186-2.923c-.509-.438-.563-1.177-.13-1.682.432-.503 1.177-.575 1.688-.135.514.436.564 1.187.132 1.694-.432.503-1.176.561-1.69.123zm-3.384-2.694c-.543-.403-.642-1.137-.247-1.67.398-.536 1.137-.659 1.677-.253.541.403.645 1.15.25 1.688-.397.529-1.139.636-1.68.235zm-3.524-2.441c-.571-.363-.722-1.088-.36-1.648.36-.561 1.086-.733 1.655-.371.564.364.721 1.103.36 1.664-.359.56-1.088.718-1.655.355zm-3.736-2.221c-.593-.327-.795-1.038-.474-1.62.321-.586 1.033-.804 1.625-.48.589.322.795 1.048.476 1.632-.32.58-1.037.793-1.627.468zm-3.857-1.943c-.611-.282-.863-.978-.585-1.585.277-.603.977-.873 1.589-.594.61.289.866.993.587 1.597-.276.608-.977.866-1.591.582zm-3.954-1.66c-.633-.236-.93-.921-.695-1.541.237-.622.915-.939 1.544-.7.63.242.937.933.7 1.554-.237.623-.921.925-1.549.687zm-4.086-1.393c-.646-.196-.99-.849-.796-1.489.19-.636.844-1 1.492-.806.641.196.993.863.803 1.503-.197.633-.855.988-1.499.792zm-4.163-1.102c-.657-.15-1.044-.782-.895-1.428.145-.65.771-1.061 1.431-.909.656.149 1.052.794.902 1.441-.146.646-.78 1.048-1.438.896zm-4.269-.818c-.666-.109-1.099-.711-.997-1.366.105-.657.7-1.11 1.366-1.005.667.103 1.107.718 1.002 1.371-.102.662-.704 1.1-1.371 1zm-4.273-.518c-.667-.058-1.141-.629-1.085-1.292.061-.663.62-1.157 1.295-1.093.672.058 1.152.635 1.094 1.301-.055.66-.629 1.142-1.304 1.084z" fill="#00467F"/></svg>