<svg xmlns="http://www.w3.org/2000/svg" viewBox="0 0 472.77 131.39"><path fill="#00467F" d="M155.88 129.1c-11.08 0-11.91-5.88-11.91-11.88v-20.3h6.09v23.42c0 3.11.97 6.46 5.68 6.46 5.12-.12 5.4-3.58 5.4-6.46v-21.35c0-3.23-.69-5.08-1.52-8.19-1.25-4.73-2.77-7.27-5.12-11.65l-6.1-11.65c-2.08-3.81-2.77-6.23-3.6-10.38-.83-4.04-.83-6.58-.83-10.73v-4.73c0-5.88.83-11.77 11.63-11.77 11.07 0 11.77 6 11.77 11.88v18.11h-6.23v-21.34c0-3-.69-6.35-5.4-6.35-5.12.12-5.68 3.46-5.68 6.35v6.35c0 4.15.14 6.81.97 11.07.83 3.81 1.66 6.12 3.6 9.81l5.81 11.08c1.25 2.65 3.46 6.34 4.71 10.5 1.38 4.38 2.21 6.34 2.21 11.42v18.58c.01 5.87-.68 11.63-11.48 11.75zm47.62-.69h-6.09v-50.3h-10.94v50.3h-6.23v-86.64c0-6 .83-11.88 11.91-11.88 10.8 0 11.35 5.88 11.35 11.77v86.75zm-6.09-54.22v-35.65c0-2.88-.28-6.23-5.4-6.35-4.71 0-5.54 3.35-5.54 6.35v35.65h10.94zm36.68 15.46v-59.3h6.09v98.06h-6.09v-18.69l-11.07-52.6v71.29h-6.09v-98.06h5.54l11.62 59.3zm40.7-55.61h-9.14v94.37h-6.23v-94.37h-8.86v-3.58h24.23v3.58zm33.78 94.37h-6.09v-50.3h-10.94v50.3h-6.23v-86.64c0-6 .83-11.88 11.91-11.88 10.8 0 11.35 5.88 11.35 11.77v86.75zm-6.09-54.22v-35.65c0-2.88-.28-6.23-5.4-6.35-4.71 0-5.54 3.35-5.54 6.35v35.65h10.94zm61.6 22.72v22.26c0 5.42-2.77 9.92-11.49 9.92s-11.91-4.27-11.91-9.57v-77.75c0-6 .83-11.88 11.91-11.88 10.8 0 11.49 5.88 11.49 11.77v18.46h-6.23v-21.58c0-2.88-.27-6.23-5.26-6.35-4.85 0-5.68 3.35-5.68 6.35v83.17c0 2.54 2.21 4.85 5.68 4.85 3.6-.11 5.26-2.19 5.26-4.73v-24.92h6.23zm30.87 31.5v-41.53c0-2.89-.42-5.88-2.35-7.15-1.94-1.38-3.32-1.73-5.68-1.73h-2.77v50.41h-6.23v-97.83h11.07c1.66 0 6.23.23 9.14 2.42 3.05 2.19 3.05 5.19 3.05 8.65v26.19c0 1.85-.28 3.11-1.52 4.73-1.38 1.84-4.85 3.58-5.12 3.69.28.12 3.05 1.62 4.29 3.12 2.22 2.31 2.36 4.61 2.36 7.27v41.76h-6.24zm-2.49-94.25c-1.11-.46-2.77-.92-4.57-.92h-3.74v41.99h2.91c2.63 0 5.26-1.15 6.37-2.54.97-1.04 1.52-4.15 1.52-6.81v-26.19c0-2.76-.42-4.61-2.49-5.53zm27.55 87.67c0 2.54 1.8 4.73 5.4 4.73 3.46 0 5.26-2.31 5.26-4.85v-91.25h6.23v89.06c0 5.31-2.77 9.57-11.49 9.57s-11.63-4.5-11.63-9.92v-88.71h6.23v91.37zm44.02-87.79h-13.43v-3.69h21.04l-14.54 94.02h15.37v4.04h-22.97l14.53-94.37zm-307.37-18.76c0 1.84-.11 3.55-1.35 5.04-1.25 1.49-3.11 2.06-5.01 2.06-1.81 0-3.74-.38-4.98-1.79-1.35-1.52-1.46-3.39-1.46-5.31v-11.75h2.33v11.75c0 1.11.03 2.63.7 3.6.76 1.11 2.33 1.44 3.6 1.44 1.19 0 2.55-.38 3.33-1.33.89-1.06.89-2.44.89-3.71v-11.75h1.95v11.75zm18.04 6.83h-2.28l-9.45-16.2v16.2h-1.95v-18.58h2.93l8.8 15.14v-15.14h1.95v18.58zm4.45 0v-18.58h2.33v18.58h-2.33zm13.38 0h-2.22l-6.28-18.58h2.44l5.17 15.33 5.15-15.33h2.03l-6.29 18.58zm20.81 0h-12.03v-18.58h11.75v2h-9.43v5.9h7.48v1.87h-7.48v6.8h9.7v2.01zm13.95 0l-3.44-8.04h-5.15v8.04h-2.33v-18.58h6.96c1.52 0 2.98.19 4.23 1.14 1.25.95 1.98 2.49 1.98 4.06 0 2.19-1.3 4.17-3.47 4.77l3.66 8.61h-2.44zm-4.23-9.94c1.25 0 2.27-.08 3.2-1.03.65-.65.95-1.54.95-2.44 0-1.08-.41-1.98-1.3-2.57-.81-.57-1.6-.6-2.57-.6h-4.63v6.64h4.35zm11.17 4.46c.76 2.57 2.9 3.77 5.5 3.77 1.11 0 2.46-.25 3.33-.92.7-.54 1.14-1.49 1.14-2.38 0-1.87-1.54-2.63-3.17-3.03l-3.09-.76c-1.25-.3-2.38-.6-3.36-1.49-.97-.87-1.52-2.14-1.52-3.44 0-3.57 3.09-5.12 6.31-5.12 3.11 0 5.61 1.54 6.61 4.55l-2.11.57c-.41-2.03-2.57-3.28-4.55-3.28-1.76 0-3.98.92-3.98 2.95 0 2.09 1.62 2.55 3.36 2.95l2.79.68c1.22.27 2.44.62 3.39 1.43 1.16.95 1.73 2.22 1.73 3.68 0 1.68-.73 3.2-2.09 4.22-1.35 1.03-3.17 1.35-4.85 1.35-3.79 0-6.28-1.68-7.53-5.28l2.09-.45zm15.9 5.48v-18.58h2.33v18.58h-2.33zm12.62 0h-2.33v-16.55h-5.28v-2.03h12.89v2.03h-5.28v16.55zm14.36-7.83v7.83h-2.33v-7.83l-6.2-10.75h2.71l4.93 8.56 4.98-8.56h2.11l-6.2 10.75zm15.31-1.33c0-4.63 2.27-9.7 7.64-9.7 5.23 0 7.64 4.77 7.64 9.34 0 4.55-2.33 9.78-7.61 9.78-5.34.01-7.67-4.76-7.67-9.42zm12.84-.21c0-1.65-.27-3.58-1.11-5.06-.84-1.46-2.27-2.49-4.01-2.49-4.14 0-5.28 4.47-5.28 7.8 0 3.2 1.3 7.5 5.23 7.5 3.97-.01 5.17-4.56 5.17-7.75zm5.96 9.37v-18.58h11.37v2h-9.05v5.9h7.5v1.87h-7.5v8.8h-2.32zm34.48-5.8c-.87 3.52-2.95 6.07-6.88 6.07-5.36 0-7.56-5.17-7.56-9.75 0-4.79 2.36-9.37 7.75-9.37 3.74 0 5.93 2.52 6.69 5.93l-2.19.41c-.65-2.36-1.82-4.39-4.58-4.39-4.04 0-5.12 4.39-5.12 7.61 0 1.46.24 3.28.87 4.63.76 1.65 2.19 2.98 4.14 2.98 2.84 0 4.17-2.14 4.77-4.58l2.11.46zm16.17 5.8h-2.38l-1.87-5.42h-6.88l-1.65 5.42h-1.95l6.01-18.58h2.68l6.04 18.58zm-7.6-16.09l-2.87 8.91h5.71l-2.84-8.91zm21.07 16.09h-10.97v-18.58h2.33v16.52h8.64v2.06zm2.66 0v-18.58h2.33v18.58h-2.33zm6.91 0v-18.58h11.38v2h-9.05v5.9h7.5v1.87h-7.5v8.8h-2.33zm12.08-9.16c0-4.63 2.28-9.7 7.64-9.7 5.23 0 7.64 4.77 7.64 9.34 0 4.55-2.33 9.78-7.61 9.78-5.34.01-7.67-4.76-7.67-9.42zm12.84-.21c0-1.65-.27-3.58-1.11-5.06-.84-1.46-2.27-2.49-4.01-2.49-4.14 0-5.28 4.47-5.28 7.8 0 3.2 1.3 7.5 5.23 7.5 3.98-.01 5.17-4.56 5.17-7.75zm16.85 9.37l-3.44-8.04h-5.15v8.04h-2.33v-18.58h6.96c1.52 0 2.98.19 4.22 1.14 1.24.95 1.98 2.49 1.98 4.06 0 2.19-1.3 4.17-3.47 4.77l3.66 8.61h-2.43zm-4.23-9.94c1.25 0 2.28-.08 3.2-1.03.65-.65.95-1.54.95-2.44 0-1.08-.4-1.98-1.3-2.57-.81-.57-1.6-.6-2.57-.6h-4.63v6.64h4.35zm23.71 9.94h-2.28l-9.45-16.2v16.2h-1.95v-18.58h2.93l8.8 15.14v-15.14h1.95v18.58zm4.44 0v-18.58h2.33v18.58h-2.33zm19.64 0h-2.38l-1.87-5.42h-6.88l-1.65 5.42h-1.95l6.01-18.58h2.68l6.04 18.58zm-7.61-16.09l-2.87 8.91h5.71l-2.84-8.91zm-353.37 61.3c-.05-.05-1-1.08-2.81-3.01.15-.82.23-1.75.33-3.04l.16-2.02-.85.43c-.26.13-1.06 1.03-2.01 2.12-2.04-2.17-4.67-4.95-7.88-8.32.01-3.55.02-6.42.03-8.67 6.17 4.55 11.19 8.24 11.19 8.24.32.23.68-.29.29-.58-2.18-1.67-6.44-4.81-11.48-8.52v-4.93c0-.62.04-1.92-.58-1.51-1.17.77-6.46-.2-6.59-.16-.49.14-.92.22-1.38.33-4.7-3.46-9.49-6.98-13.62-10.03-.99-.73-1.36-.26-.4.5.73.58 6.53 4.87 13.14 9.73-2.07.39-3.76.43-5.29.34-2.4-2.48-4.95-5.1-7.66-7.87-.81-.81-1.4-.33-.63.52.13.14 2.91 3.07 6.86 7.23-1.27-.15-2.47-.35-3.74-.49-.74-1.05-1.46-2.04-2.13-2.96-1.25-1.69-1.41-.57-.66.51.39.57.94 1.38 1.58 2.35-.77-.04-1.58-.05-2.47.02l-.35-1c-.47-1.34-1.39-1.77-.76.39l.24.79c-.45.13-1.16.34-1.93.66l-.74-4.04c-.26-1.4-.95-1.31-.71.16.22 1.42.44 2.83.67 4.24-.92.47-1.8 1.11-2.33 1.96-.03-2.41-.06-4.71-.1-6.88-.04-2.26-.64-1.36-.66 0-.02 1.61-.03 3.79-.05 6.34-.62-.82-1.65-1.44-2.68-1.87l.59-3.73c.23-1.47-.46-1.57-.72-.16-.22 1.19-.44 2.38-.66 3.59-.81-.27-1.54-.43-1.93-.44l.16-.55c.61-2.18-.28-1.75-.74-.39l-.32.95-2.55.06c.66-.99 1.22-1.82 1.62-2.4.75-1.09.58-2.21-.66-.52-.68.91-1.39 1.91-2.13 2.95-1.29.04-2.41.08-3.39.12 3.77-3.96 6.39-6.72 6.51-6.85.77-.85.18-1.32-.62-.52-2.55 2.61-4.95 5.08-7.23 7.44-3.65.18-4.91.35-6.11.39 6.76-4.99 12.79-9.44 13.53-10.03.96-.76.59-1.23-.4-.5-4.32 3.2-9.37 6.92-14.29 10.53l-.51-.02c-.31-.02-.5.03-1.02.04-1.2.02-4.11.06-4.92-.03-.28-.03-.79-.23-.95-.25-.63-.02-.71.35-.72.97 0 .22 0 2.19.01 5.24-4.94 3.63-9.1 6.71-11.25 8.35-.38.29-.02.81.29.59 0 0 4.9-3.6 10.96-8.06.01 2.42.01 5.42.02 8.74-8.34 8.75-12.71 13.49-12.82 13.6-.6.58-.07.95.4.5 1.83-1.72 6.78-6.81 12.42-12.66.01 4.18.03 8.78.05 13.32-4.55 7.34-7.8 12.76-7.87 12.85-.75 1.06-.59 1.69.18.77.18-.21 3.39-5.19 7.69-11.87.01 2.82.03 5.58.04 8.18-1.12.11-2.62.43-3.15 1.08-.6.76-.43 1.49-.53 2.61-.06.7-.21 1.73-.39 2.24-.34.89-1.06 1.49-1.6 2.03-.47.48-.78 1.26-1.09 1.98-.53 1.25.25 2.97 1 4.35.36.67 1.25 1.52 2 1.64 2.95.51 3.37-1.59 3.8-2.72l.07-.19c.03 1.96.06 3.14.1 3.21.04.08 1.53.03 3.8-.07-.55 1.59-.88 2.54-.89 2.58-.54 1.85.37 1.22.61.54.37-1.04.74-2.09 1.12-3.15 2.01-.09 4.48-.21 7.05-.32.55.78 1.57 2 2.01 2.81l.49.9.32.58c.36.66.71 1.26 1.08 1.84-.28 1.66-.46 2.67-.51 2.88-.61 2.59-.08 2.79.58.37.03-.11.2-.96.48-2.4.3.45.62.9.98 1.37.82 1.06 2.54 2.15 6.52 3.94 1.54.69 3.68 1.09 6.08 1.2.09 1.99.63 1.47.65.02 3.12.06 6.64-.4 9.96-1.53l.03-.01.02-.01c1.84-.86 3.08-1.89 3.89-2.75l.03.13c.66 2.42 1.2 2.23.59-.36l-.08-.39c.47-.59.69-1.03.74-1.14.21-.42 1.95-4.21-.17-6.98l-.11-.1.01-.01-.16-.12-.38-.32c3.99.17 8.26.37 11.22.49.3.81.6 1.64.89 2.44.25.67 1.18 1.29.63-.55l-.66-1.87c1.75.07 2.87.09 2.91.03l.04-4.07c2.47-.45 3.31-1.06 4.93-2.53 1.88-1.71 3.09-4 3-6.33l.21.31c.76.92.93.29.18-.77l-.67-1.1c-.36-1.29-1.06-2.42-2.03-3.34-.92-1.51-2.04-3.34-3.31-5.39 1.33-.17 2.71-.57 3.77-1.04 1.19-.53 2.98-1.94 3.83-4.08l.15-.39c.1-.25.17-.5.24-.75 1.12 1.13 2.04 2.04 2.61 2.58.52.41 1.05.05.45-.53zm-5.75-4.86c-.67.79-1.37 1.62-1.95 2.31-.23-.83-.42-2.4-.6-3.49-.16-.92-.42-1.59-.7-2.17 1.16 1.2 2.24 2.32 3.25 3.35zm-7.31-7.55l2.54 2.64.04.38c.31 3.03-.26 5.36-.71 6.84-.44 1.44-.78 1.96-1.49 2.31l-.45.19c.03-4.71.05-8.82.07-12.36zm-2.35-15.39c.09-.62 1.1-.83 1.26.25.15.56.13 14.32.03 27.81-.42.09-.84.13-1.23.1l-.06-.01c.02-13.64-.02-27.87 0-28.15zm-1.9-.04c-.02-.43.97-.59.91.29.06.24-.05 14.1-.2 27.5l-.46-.2-.06-.41c-.02-1.43.61-1.6.04-2.28-.13-.15-.4-.29-.67-.38.19-12.74.34-24.3.44-24.52zm-2.44-.62c.25-.84 1.01-.22 1 .08-.02.32-.08 12.5-.15 25-.32.05-.71.13-1.06.2.03-7.23.1-15.75.21-25.28zm-.22 25.78l.16-.05s1.32-.43 1.67-.15c.48.38.32 2.11.34 2.72 0 0-.04.28.03.62v-.01.01.01c.02.12.06.25.12.37.24.49.67.71.7.88-.28-.1-.55-.15-.82-.23l-.03-.01c-.39-.1-.77-.18-1.14-.24v.01c-.37-.06-.72-.09-1.06-.1v-.01c-.3-.01-.6-.02-.88 0v.02c-.81.06-1.5.23-2.04.48l-.05.02c-.23.11-.44.24-.61.37l-.11.07c-.19.15-.34.31-.46.47-.29.41-.52.88-.69 1.36-.1-.5-.66-1.11-.66-1.51 0-1.6.96-2.71 1.71-3.31.25-.2.49-.37.74-.52l.23-.14.5-.28.23-.11.48-.22.17-.07c.66-.24 1.18-.37 1.47-.45zm3.15 5.29l.2.13c-.01 1.2-.02 2.4-.04 3.57-.46.02-.85.1-1.19.21.02-1.41.04-2.84.05-4.28.22.08.44.15.67.25l.31.12zm-2.11-.71l-.03 5.11-.22.11c-.17.1-.49.22-.83.33 0-1.77.01-3.66.02-5.71.33.03.69.08 1.06.16zm-1.94-.11l-.02 5.94-.37.09c-1.54.1-2.38-.49-2.57-.87-.09-.17-.23-.37-.36-.7-.14-.33-.16-.87-.16-.9 0-.78.42-1.3 1.16-2.25.57-.75 1.36-1.18 2.32-1.31zm-21.34-27.28c.27-2.83 7.76-3.82 9.1-3.47 1.21.27 3.28.68 4.25.85 0 0 4.23 1 8.03-.4 0 .67 0 13.34-.03 25.51-.71.16-2.27.56-3.4 1.53-1.21 1.04-2 2.2-2 3.82 0 1.1.36 2.08.94 3.52.32.79.54 1.66.57 1.68.67 1.15.52 2.09.71 3.07.32 1.64 1.33 1.9 1.72 2 .48.13.95.25 1.4.35l-.01 1.92-.34-.03c-2.49-.21-3.44-.58-4.88-1.3l-1.71-.99c-2.96-1.38-6.97-1.28-9.01-.43-1.08.45-1.71.75-2.27 1.54l-.16.21.08.25c.19.59.66 1.22.87 1.67.2.44.13 1.4.12 1.73-.03.79-.67 1.56-.9 1.82l.07-.05c-.7.41-.98 1.32-1.08 2.46-.81.36-1.44.74-1.99 1.14.02.02-.34-48.36-.08-48.4zm7.75 48.99c.14.3.34.57.56.81.25.26.54.51.85.73.34.24.7.46 1.08.66l.48.27c.27.15.54.3.81.46-.25.01-.51.04-.8.07l-1.25.1c-.27.01-.5.03-.72.06h-.03c-.72.07-1.3.11-2.25-.06h-.02.01c-.29-.05-.6-.12-.98-.22-.57-.15-1.03-.43-1.42-.77v-.01c-.44-.4-.76-.9-.96-1.45-.09-.26-.16-.52-.21-.78v-.01c-.04-.26-.07-.5-.07-.75v-.04c0-.45.06-.82.13-1.14.06-.26.15-.49.26-.68l.04-.07c.12-.19.26-.34.43-.44l.17-.15c.26-.06.55-.1.85-.11.18-.01.38.01.57.02l.36.01.92.12.08.01c.42.08.86.17 1.31.28l-.17.49c-.08.24-.16.47-.21.69-.05.25-.1.5-.1.71.01.45.11.84.28 1.19zm.43-1.34c.03-.4.16-.86.37-1.38l.49-.06c.99.3 2.01.64 3.04 1.01-1.33.12-2.65.26-3.9.43zm7.58.76c1.3.36 2.71.65 4.24.82-3.25.11-7.33.32-10.69.52-.36-.25-.64-.53-.83-.83 2.41-.23 4.95-.39 7.28-.51zm-6.29 4.74c.03.45-.08.87-.46 1.18-2.22 1.83-3.98 2.21-8.16 1.65-.43-.06-.82-.13-1.2-.22l.03-2.45c1.12-.04 2.33-.32 3.48-1.16.11-.04.46-.07.97-.08.44.25.94.46 1.5.61 2.07.54 2.38.56 3.84.47zm-7.37-3.94l-.09.04-.83-.46c.32-.13.6-.28.86-.42v.02c-.01.3.02.56.06.82zm-2.58.09c1.99.08 3.1 2.04 2.94 2.2-1.45 1.58-4.4 1.66-5.67.06-.25-.31 1.07-2.18 2.73-2.26zm-2.94.83c.4.1-.37.37-.37.37-.95-.18-2.69-.33-4.82-.46l-.1-.23-.12-.36c2.37.19 4.35.42 5.41.68zm-5.79-1.82c-.13-.37-.29-.75-.55-1.12 2.57.38 6.66 1.07 7.58 1.78l-.67.54c-.77-.49-3.28-.89-6.36-1.2zm4.17 2.65c.31.04.95.04.7.58.04-.07-1.39-.11-3.57-.11-.12-.19-.24-.37-.35-.58 1.56.03 2.73.06 3.22.11zm.83 1.29c1.15.37 1.84.85 2.93 1.01l.01 2.22c-.83-.28-1.6-.64-2.39-1.08 0 0-.97-.5-2.29-1.12-.59-.28-1.07-.69-1.49-1.2 1.65-.01 2.83.04 3.23.17zm-19.08-54.72c.04-.36-.04-.51.56-.5 8.09.14 20.49-2.88 21.64 2.9 0 .23.27 37.13.12 48.46-2.69-1.06-4.77-1.48-9.41-2.06l-.8-1.1c-.88-1.31-1.12-1.82-1.76-2.29l-1.71-1.62c-.91-.75-1.98-1.83-2.2-1.96-2.52-1.68-4.69-2.53-6.53-2.93.22-23-.11-36.21.09-38.9zm-1.46.74c.02-1.23.66-1.16.58-.3.08 1.25-.03 14.03-.31 38.27-.3-.04-.6-.08-.88-.1.21-14.03.57-36.1.61-37.87zm-2.32-.33c-.12-.62.63-.87.66-.08.08.31-.21 23.41-.26 38.29-.32.03-.62.05-.9.09.06-15.05.38-38.04.5-38.3zm-2.62-.29c.07-.82 1.24-.43 1.21.46-.14 16.13-.31 29.28-.37 38.4l-.27.07-.61.01c.03-16.1.02-38.61.04-38.94zm-3.25 53.53c-.64.53-1.19.74-2.04.59-.55 0-1.49-1.16-2.04-2.4-.18-.47-.18-1.08-.15-1.98.01-.27.04-.5.11-.68.13-.31.32-.56.53-.82.3.44.85.78 1.45 1.11l1.17.73c.68.51 1.69.84 2.45.92-.16.67-.63 1.82-1.48 2.53zm1.43-3.48c-.22 0-1.04.08-2.23-.48l-1.07-.61c-.63-.76-.86-1.17-.86-1.35 0-.03 0-.07.08-.14.59-.53 2.96-.52 4.55-.35l.03 2.81c-.19.04-.45.09-.5.12zm1.89 3.63c-.11-.39-.15-2.77-.15-3.34 0-.95.01-2.04.02-3.22.29.01.59.02.91.07.04 3.65.14 5.67.36 5.79.17.09 3.91.12 8.36.14l.05.07.25.38.12.27c-5.26.03-9.87.03-9.92-.16zm8.07-2.58c.15.18.34.44.54.73-3.55-.14-6.25-.28-6.4-.43-.08-.08-.13-1.57-.15-3.98.3.07.6.14.91.24.03 1.94.07 3.12.15 3.16.14.07 2.15.16 4.95.28zm-3.94-3c.32.14.64.31.96.49l.06.04c.63.35 1.23.78 1.79 1.29-1.74-.02-2.86 0-2.82.08 0-.15 0-.84.01-1.9zm40.39 10.11c0 .27-.04.58-.09.89l-.04.22c-.06.31-.14.63-.24.95v.03c-.1.32-.21.64-.34.95l-.07.17c-.12.31-.25.59-.37.86-.17.35-.34.64-.49.82-.83 1.06-1.94 1.82-4.7 3.12-.79.27-1.56.49-2.33.69l-.43.09c-.64.16-1.27.29-1.89.38l-.27.04c-.68.1-1.35.18-1.99.23l-.08.01c-.7.04-1.38.07-2.04.05h-.02c-.67-.01-1.3-.06-1.92-.14l-.34-.05c-.34-.05-.67-.1-.99-.17l-.62-.14c-.23-.06-.46-.11-.68-.18-.43-.13-.85-.28-1.23-.45-3.71-1.66-6.23-2.86-7.34-4.37-.35-.47-.64-.95-.93-1.41-.19-.3-.39-.61-.57-.92-.33-.56-.65-1.13-.98-1.74l-.33-.6-.48-.88c-.34-.64-.7-1.28-1.08-1.9-.13-.22-.26-.45-.4-.66l-.48-1.03-.04-.07-.27-.4-.5-.74c-.17-.25-.33-.48-.49-.7-.34-.48-.63-.86-.83-1.04l-.02-.02-.27-.25c-.2-.19-.44-.39-.73-.59l-.03-.02c-.33-.24-.72-.48-1.16-.72-.44-.24-.9-.48-1.39-.72l-.86-.39c-.39-.17-.79-.33-1.19-.47-.3-.1-.6-.19-.9-.28-.45-.14-.88-.26-1.31-.35-.3-.06-.6-.13-.88-.16-.36-.05-.72-.08-1.03-.07l-.27.01c-1.88.06-2.22-.1-2.82-.1h-.02l-.27.01-.1.01-.48.06c.12-.21.23-.45.33-.72.24-.64.1-1.52.17-2.29.08-.95.45-2.08.86-2.54.14-.15.32-.25.52-.33l.2-.05c.16-.04.32-.07.49-.09l.23-.02c.22-.02.45-.02.67-.02.25 0 .5 0 .73-.01l.8-.08.2-.02.67-.16h.01c.7-.16 1.4-.33 2.15-.43h.03c.42-.06.85-.1 1.3-.1h.03c.61 0 1.26.05 1.94.2.38.08.77.2 1.17.34l.18.06c.39.15.8.33 1.22.54l.23.12c.43.22.88.49 1.34.79l.2.14c.5.33 1 .7 1.54 1.13l.04.03.07.04c.15.08.8.62 1.37 1.09l2.29 1.81c.49.37 1.44 1.77 2.19 2.89l.61.91c.51.73.87 1.71 1.22 2.65l.15.38c.11.28.24.57.38.86l.31.59c.13.23.26.46.4.67.13.2.28.4.43.59l.02.03c.14.18.29.34.44.49l.07.08c.14.13.29.26.45.38l.1.09c.19.13.39.26.6.35l1.29.72c.55.3 1.1.6 1.69.87l.15.07c.61.27 1.26.52 1.97.7.29.08.6.14.92.19l.24.05c4.57.61 8.37-.02 9.9-1.63.54-.57.77-1.25.73-1.99l.31-.03c1.48-.14 2.04-.19 2.85.52.62.79 1.22 1.41 1.22 2.28zm12.79-4.07c-.38-.14-8.78-.38-15.51-.54-.44-.23-.92-.46-1.42-.7 6.58.06 13.7.12 15.85 0 .03-.08.05-.58.08-1.4l1.08-.15h.03c-.03 1.4-.07 2.4-.11 2.79zm6.78-15.28c.63.83 1.06 1.8 1.23 2.86.36 2.23.26 4.06-1.54 5.74l-.66.62-.39.34-.22.2-.4.32-.18.14-.41.27-.18.11c-.14.09-.29.17-.44.24l-.18.08c-.16.07-.33.14-.51.2l-.19.06-.59.18-.17.04-.75.16h-.01c-.29.05-.58.1-.92.15l-1.26.18h-.01c-.48.06-.94.1-1.4.15h-.01c-.61.06-1.2.09-1.79.1h-.09c-.57.01-1.14.01-1.69-.01h-.13c-.55-.03-1.09-.06-1.62-.12l-.1-.01c-2.82-.3-5.32-.99-7.25-1.86-.47-.21-.94-.42-1.42-.61-.39-.17-.78-.32-1.17-.46-.98-.37-1.94-.68-2.86-.88l-.17-.04c-.36-.08-.71-.13-1.05-.17l-.31-.03c-.39-.04-.77-.05-1.13-.03.25-.62.44-1.36.44-1.95 0-.14-.01-.27-.03-.39-.09-.44-.3-.9-.52-1.38-.17-.36-.33-.75-.48-1.16.41-.51.63-.9 1.42-1.23 1.55-.64 5.07-1.03 7.94.3l2.07.88c1.47.73 2.74 1.37 5.42 1.63.52.05.99.07 1.47.11l.94.06c.37.02.73.02 1.07.03.42.01.81.01 1.2 0 .49-.01.95-.03 1.39-.06.4-.02.78-.05 1.13-.1.36-.05.71-.08 1.03-.14.48-.09.9-.18 1.27-.28l.2-.05c.36-.11.68-.22.95-.33 2.65-1.15 3.06-2.89 3.06-3.86zm-12.28 2.13c.34.04.68.05 1.01.02l-.02 1.87-.99-.08v-1.81zm2.05 1.96l.03-2.17.09-.02c.35-.14.72-.35 1.11-.59-.01.99-.02 1.93-.04 2.83-.36-.01-.76-.03-1.19-.05zm2.54.04c0-1.19.01-2.45.02-3.78.38-.31.78-.65 1.21-1.05-.02 1.65-.04 3.23-.06 4.72-.36.06-.74.1-1.17.11zm6.61-4.48c.1.61.27 2.63-2.27 3.5-.86.29-1.52.51-2.15.67.02-1.84.03-3.62.04-5.33.92-.58 2.05-.65 4.29.88l.09.28zm-.44-1.76c-.44-.08-.84-.14-1.21-.18l-.18-.01c-.31-.02-.6-.04-.87-.04h-.11c-.28.01-.55.03-.79.07l-.03.01c-.26.04-.51.11-.74.19-.36.12-.69.27-1 .47-.37.24-.72.53-1.07.86l-.15.12c-.51.46-.94.74-1.32.93l-.01.01c-.38.19-.71.3-1.05.41l-.14.05-.31.12c-.25.11-.5.2-.76.27-.63.19-1.26.27-1.9.16-.22-.03-.44-.08-.66-.17-1.14-.47-1.66-1.47-1.74-1.9-.14-.73.14-.85-.12-1.95.34.1.73.17 1.15.21.42.03.89.04 1.4.01h.3c.2-.01.39-.08.59-.16.3-.12.61-.26.93-.45l.1-.05c.45-.25.95-.5 1.54-.67.24-.08.48-.14.75-.17.33-.03.69-.04 1.08.01l1.08-.01c.62-.03 1.35-.05 2.1.05l.35.06.26.06.45.14.17.06c.2.08.4.18.6.29l.16.11c.15.1.3.21.45.33l.17.14.53.62zm-6.14-2.55v-2.96c.43.2.86.38 1.26.5l-.02 2.61-1.24-.15zm5.57 1.27c-1.65-1.21-2.37-1.23-3.34-1.14 0-.79.01-1.56.02-2.32.35.08.75.08 1.15.08.76 1.2 1.49 2.33 2.17 3.38zm6.47-12.75c-.17 1.05-.4 1.99-.65 2.73l-.23.66-.15.39c-.8 2.02-1.75 3.6-4.84 4.63-.4.13-.78.21-1.15.24-.34.03-.67.01-.98-.01h-.05c-.4-.04-.8-.11-1.2-.19h-.01l-.48-.11-.05-.01-.64-.15-.34-.1c-1.29-.36-2.28-1.1-2.63-1.79l-.04-.05-.1-.33-.02-.13c.37.09.91.19 1.53.22.4.01.82-.01 1.28-.08.32-.05.65-.12.99-.24l.04-.02.17-.06c.96-.34 2.15-.76 2.75-2.72.28-.95.36-3.84.5-5.4.9 1.96 1.37 5.53 1.44 5.9l.2 1.11s.38-.39.73-.87c.9-1.25 1.54-2.13 2.06-2.82l.01-.01c.19-.25.37-.48.55-.68l.01-.01c.23-.28.46-.53.69-.75l.05-.05c.23-.22.46-.44.73-.65-.05.47-.11.92-.17 1.35zm-59.87 27.39l.01.01.02.02-.03-.03zm-11.17-53.21c-.54.27-.81-.2-.25-.53 1.2-.71 20.27-9.25 21.76-9.95.9-.42 1.44.17.53.66 0-.01-20.84 9.21-22.04 9.82zm21.7-11.95s.28.32-.06.42c-.48.12-6.54.4-6.87.4-.22.01-1.75.12-2.23.12-1.09-.13-.32-.37.18-.44 1.93-.28 8.43-.78 8.98-.5zm40.4 11.89c.53.27.8-.2.25-.53-1.2-.71-20.27-9.25-21.76-9.95-.9-.43-1.43.17-.52.65-.02 0 20.82 9.23 22.03 9.83zm-21.02-11.96s-.27.29.07.38c.46.12 6.4.37 6.72.38.22 0 1.71.11 2.18.11 1.07-.12.31-.34-.18-.41-.62-.09-7.99-.85-8.79-.46zm-20.06 89.85l-.05.18c-.19-.05-.34.01-.41.26l-1.57 5.86c-.07.25.04.38.23.43l-.05.19-2.32-.62.05-.19c.26.07.41.01.48-.24l1.18-4.41c-.23-.02-.75-.04-.86.25l-.23-.06.44-1.66.23.06c-.04.16.13.23.32.29.26.07.49-.08.56-.37.04-.16-.01-.27-.18-.34l.05-.18 2.13.55zm3.25 3.85c-.66-.28-1.12-.98-1.07-1.57.09-1.01 1.28-1.8 3.29-1.63 2.17.19 3.21 1.14 3.13 2.12-.06.65-.6 1.27-1.38 1.44.94.39 1.4 1.07 1.32 1.91-.11 1.25-1.4 2.02-3.59 1.83-2.24-.19-3.42-1.34-3.32-2.42.07-.83.66-1.42 1.62-1.68zm1.75 2.97c.95.08 1.83-.22 1.89-.97.06-.75-.75-1.2-1.69-1.28-.95-.08-1.83.23-1.89.97-.07.74.74 1.19 1.69 1.28zm.3-3.28c1.06.09 1.58-.23 1.63-.78.05-.56-.4-.97-1.46-1.06-1.06-.09-1.58.23-1.63.79-.05.55.4.96 1.46 1.05zm9.47-.87l-.21-.09c.01-.38-.68-.77-1.59-.72-1.33.07-2.01 1.17-1.93 2.43.52-.53 1.27-.95 2.12-.99 1.63-.08 2.87.62 2.96 2.35.06 1.15-1.03 2.39-3.03 2.5-2.44.12-3.53-1.45-3.62-3.17-.11-2.15.96-4.01 3.54-4.15 1.16-.06 2.12.38 2.39.36.1 0 .16-.05.21-.09l.14.07-.98 1.5zm-.24 2.98c-.04-.75-.77-1.3-1.67-1.25-.9.04-1.56.67-1.53 1.41.04.75.77 1.3 1.67 1.25.9-.04 1.57-.66 1.53-1.41zm3.79-2.14c-.72-.02-1.4-.52-1.56-1.08-.28-.97.55-2.13 2.49-2.69 2.1-.6 3.41-.09 3.68.85.18.63-.1 1.4-.77 1.85 1.01.02 1.69.49 1.92 1.3.34 1.2-.58 2.39-2.69 2.99-2.16.62-3.67-.03-3.97-1.07-.24-.81.1-1.57.9-2.15zm1.81-1.03c1.02-.29 1.39-.78 1.24-1.31-.16-.54-.72-.75-1.75-.47-1.03.3-1.39.79-1.23 1.32.14.54.71.76 1.74.46zm.89 3.17c.92-.26 1.63-.87 1.42-1.58-.21-.72-1.13-.85-2.04-.59-.91.26-1.63.86-1.42 1.58.2.72 1.12.85 2.04.59zm-35.73-35.98l1.94.71c.06.02.1-.01.19-.21l.07.03-.56 1.53-.07-.02c.05-.19.04-.24-.02-.26l-2.95-1.08.03-.11c.15.04.19-.02.22-.09l1.48-4.07c.03-.08.03-.15-.1-.21l.04-.1 1.17.42-.04.11c-.15-.03-.19.02-.22.1l-1.18 3.25zm5.54 1.96l-.06-.03c.05-.11.06-.22-.05-.28l-.96-.58-.44.75 1.66.99c.06.04.1.01.23-.18l.06.04-.83 1.39-.06-.04c.06-.14.07-.19.01-.23l-2.57-1.54.06-.1c.14.06.19.01.23-.05l2.23-3.71c.04-.07.06-.14-.06-.23l.06-.1 2.58 1.55c.06.04.1.01.23-.17l.06.04-.83 1.39-.06-.04c.09-.19.1-.24.04-.27l-1.66-.99-.39.66.96.58c.1.06.19 0 .27-.09l.06.04-.77 1.2zm1.04 3.09l.08-.08c.12.09.18.06.24 0l2.42-2.5-.75-.72c-.04-.04-.09-.03-.25.11l-.05-.04 1.15-1.19.05.05c-.14.17-.15.22-.1.26l2.14 2.07c.05.04.1.03.26-.12l.05.05-1.16 1.18-.05-.05c.14-.17.15-.22.1-.27l-.74-.72-2.42 2.5c-.06.06-.09.12.01.24l-.08.08-.9-.85zm3.42 4.76l.1-.04c.08.13.15.12.22.08l3.16-1.45-.43-.95c-.03-.05-.08-.06-.28.01l-.03-.07 1.5-.69.03.07c-.19.1-.22.15-.19.21l1.24 2.7c.02.06.08.06.28-.01l.03.07-1.5.69-.03-.07c.19-.11.22-.15.19-.21l-.43-.94-3.16 1.45c-.08.04-.13.08-.08.23l-.1.04-.52-1.12zm3.59 6.4c-.07.04-.11.1-.04.24l-.09.07-.73-1 .1-.07c.1.11.17.09.23.04l1.39-1.02-.92-1.26-1.39 1c-.07.05-.11.1-.04.24l-.09.06-.73-1 .09-.07c.1.11.17.09.24.04l3.5-2.55c.07-.05.11-.1.04-.23l.09-.07.73 1-.09.07c-.11-.11-.17-.09-.24-.04l-1.19.87.92 1.27 1.2-.87c.07-.04.11-.1.03-.23l.09-.07.73 1-.09.07c-.1-.11-.17-.09-.23-.04l-3.51 2.55zm4.26 1.46l-.06-.04c.06-.1.07-.21-.02-.28l-.91-.66-.51.7 1.56 1.13c.05.04.1.02.26-.16l.05.04-.95 1.31-.06-.04c.08-.14.08-.19.03-.23l-2.43-1.77.07-.09c.13.07.19.03.24-.04l2.54-3.51c.05-.06.07-.13-.04-.23l.07-.09 2.43 1.77c.05.04.1.02.24-.15l.06.04-.95 1.3-.06-.03c.11-.19.12-.24.06-.28l-1.56-1.14-.45.63.91.65c.1.07.18.02.27-.06l.06.04-.85 1.19zm2.11 2.69c-.03.08-.03.14.11.21l-.03.11-1.18-.38.04-.11c.15.03.19-.03.21-.11l1.34-4.12c.03-.08.03-.15-.11-.21l.04-.11 2.09.68c.85.27 1.06.85.73 1.86-.26.82-.75 1.14-1.29 1.18l.2 1.68c.01.14.05.2.11.22l-.03.11-1.19-.39.04-.1c.08.01.14-.02.18-.13.03-.08-.19-1.5-.2-1.7l-.56-.18-.5 1.49zm.79-2.43l.96.31c.34.11.51-.09.6-.34.08-.26.06-.52-.28-.63l-.97-.31-.31.97zm5.66 2.13l-.07-.01c-.01-.12-.05-.22-.17-.23l-1.11-.08-.06.86 1.93.13c.07.01.09-.04.13-.26h.07l-.12 1.61h-.07c-.01-.16-.03-.21-.09-.21l-3-.21.01-.12c.15 0 .17-.07.18-.15l.31-4.32c.01-.08-.01-.15-.16-.18l.01-.11 3 .21c.07 0 .09-.04.13-.25h.07l-.11 1.61-.08-.01c0-.21-.02-.26-.09-.26l-1.93-.14-.05.77 1.11.08c.12.01.17-.08.2-.2h.07l-.11 1.47zm3.26-3.15c-.02-.08-.06-.13-.21-.11l-.03-.11 2.19-.67c.62-.18 1.19.03 1.46.91.16.53.04.93-.26 1.14l.01.02c.43.04.81.28 1.01.93.21.72.06 1.43-.76 1.67l-2.22.68-.03-.11c.14-.07.14-.13.11-.21l-1.27-4.14zm1.33 1.23l.78-.25c.49-.15.6-.24.49-.6-.11-.35-.25-.37-.75-.21l-.78.24.26.82zm.6 1.97l.98-.3c.4-.12.52-.32.4-.71-.12-.39-.32-.48-.73-.36l-.98.3.33 1.07zm5.4-3.04l-.06.03c-.07-.1-.15-.16-.26-.11l-1 .51.39.77 1.72-.88c.06-.03.06-.08-.03-.3l.06-.04.73 1.44-.06.03c-.09-.13-.13-.16-.19-.13l-2.68 1.36-.05-.1c.13-.09.11-.15.07-.23l-1.97-3.86c-.04-.07-.08-.12-.22-.07l-.05-.09 2.68-1.37c.06-.03.06-.09-.02-.28l.06-.03.73 1.44-.06.03c-.11-.18-.15-.21-.21-.18l-1.72.88.35.68 1-.5c.11-.06.1-.16.06-.27l.06-.03.67 1.3zm-1.63-16.09l2.01.51c.06.01.1-.03.17-.23l.07.02-.39 1.58-.07-.01c.03-.2.02-.24-.05-.26l-3.05-.76.03-.11c.15.02.19-.04.2-.12l1.05-4.21c.02-.08.02-.14-.12-.2l.03-.11 1.2.3-.03.11c-.15-.02-.18.04-.2.12l-.85 3.37zm2.74 2.08l.04-.1c.15.04.19-.01.22-.09l1.62-4.01c.03-.08.04-.14-.09-.22l.04-.1 1.15.46-.04.1c-.15-.03-.19.01-.22.09l-1.62 4.02c-.04.08-.04.14.09.21l-.04.11-1.15-.47zm6.04.13l-.75-.2c-.06-.02-.1.05-.14.15l-.06-.02.34-1.25.07.02c-.03.12-.02.17.05.18l1.71.46-.03.11c-.07-.01-.11.03-.13.12l-.4 1.49c-.02.08-.03.16.03.17l.03.01-.04.11c-.64.31-1.34.36-2.05.17-.97-.26-1.68-1.3-1.24-2.92.44-1.62 1.56-2.17 2.53-1.91.38.1.54.2.89.47.17.13.31.33.36.35l.1-.05.06.05-.7 1.08-.05-.08.03-.09c.05-.17-.46-.59-.94-.71-.55-.15-1.18.17-1.44 1.14-.26.97.24 1.56.74 1.69.32.09.59.09.86.04l.17-.58zm5.87 2.21c0 .08.01.15.16.17l-.01.11-1.24-.09.01-.1c.16-.01.18-.08.18-.16l.12-1.71-1.56-.11-.12 1.72c0 .08.01.15.16.18v.11l-1.24-.08.01-.11c.15-.02.17-.08.18-.16l.3-4.32c.01-.08-.01-.15-.16-.18l.01-.11 1.24.08-.01.11c-.15.01-.17.07-.18.16l-.1 1.47 1.56.11.1-1.47c.01-.09-.01-.16-.16-.18l.01-.11 1.24.08-.01.11c-.15.01-.17.08-.18.16l-.31 4.32zm3.06-.05l-.02-.11c.15-.04.15-.11.14-.19l-.54-3.43-1.02.17c-.07 0-.08.05-.07.26l-.07.02-.26-1.63.07-.01c.05.21.09.25.15.24l2.94-.47c.06-.01.08-.06.06-.28l.07-.01.26 1.63-.07.01c-.05-.21-.08-.25-.15-.24l-1.02.16.55 3.43c.01.08.04.14.19.14l.02.11-1.23.2zm-60.7 11.9l-.13.14c-.21-.15-.33-.15-.49.02l-3.8 3.93 1.44 1.39c.27.27.4.33.62.17l.17.16-1.18 1.22-.17-.16c.11-.18.04-.3-.23-.57l-4.08-3.94c-.27-.26-.4-.32-.58-.22l-.17-.16 1.18-1.23.17.17c-.15.23-.09.35.19.62l1.44 1.39 3.8-3.93c.16-.17.16-.28-.04-.53l.13-.13 1.73 1.66zm-8.64-4.49l2.25-1.58c.19-.13.21-.25.04-.55l.16-.11 1.45 2.07-.16.11c-.23-.27-.35-.28-.54-.15l-4.96 3.48c-.19.13-.21.24-.04.55l-.16.11-1.45-2.07.15-.11c.23.27.35.29.54.15l1.87-1.31-2.07-2.95-1.87 1.31c-.19.14-.21.25-.04.56l-.15.11-1.45-2.08.16-.11c.23.26.35.28.54.16l4.96-3.48c.19-.13.21-.25.04-.56l.16-.11 1.45 2.07-.15.11c-.23-.26-.35-.28-.54-.15l-2.25 1.58 2.06 2.95zm-3.6-9.88l-1.56-3.5c-.16-.35-.25-.45-.45-.41l-.1-.21 1.49-.67.1.21c-.17.13-.15.27 0 .62l2.46 5.52-.17.08c-.22-.39-.33-.44-.54-.35l-5.54 2.46c-.21.09-.25.21-.09.67l-.17.08-2.38-5.33c-.15-.35-.25-.46-.45-.42l-.1-.22 1.47-.65.09.21c-.15.12-.13.26.03.6l1.46 3.29 1.61-.72-.87-1.95c-.16-.35-.25-.45-.46-.42l-.09-.21 1.47-.66.1.22c-.14.12-.12.26.03.61l.87 1.95 1.79-.8zm-10.85-18.15l.19-.01c.05.31.14.39.37.38l4.02-.14c.92-.03 1.5-.7 1.46-1.92-.04-1.21-.66-1.84-1.59-1.81l-4.03.14c-.23.01-.31.09-.34.41l-.19.01-.08-2.37.19-.01c.05.35.14.43.37.42l4-.14c1.63-.05 2.73.89 2.81 3.37.08 2.48-.94 3.5-2.57 3.56l-4 .14c-.23.01-.31.09-.34.48l-.19.01-.08-2.52zm7.09-7.72l-.19-.03c.01-.3-.06-.4-.29-.44l-5.99-.95c-.23-.04-.32.03-.4.26l-.19-.03.43-2.72.19.03c-.02.23-.01.3.07.31.23.04 4.29-2.24 4.92-2.31l.02-.01-4.22-.67c-.23-.04-.32.04-.41.31l-.19-.03.35-2.24.19.03c0 .29.06.38.29.42l5.99.95c.27.04.32-.03.39-.24l.19.03-.38 2.4-.19-.03c0-.16-.01-.32-.14-.34-.23-.04-4.03 2.23-5.33 2.56l-.01.04 4.64.73c.23.04.32-.03.4-.29l.19.03-.33 2.23zm1.99-9.66l-.18-.06c.11-.47.06-.57-.16-.65l-5.77-1.87c-.22-.07-.32-.01-.51.43l-.18-.06.87-2.66.18.06c-.11.47-.06.58.16.65l5.77 1.87c.22.08.32.02.51-.43l.18.06-.87 2.66zm2.5-6.67l-.17-.08c.1-.21.08-.41-.02-.45-.15-.07-4.69-.19-6.5-.37-.29-.03-.55-.02-.67.14l-.17-.08 1.03-2.11.17.08c-.08.26-.05.36.06.41.24.12 3.59.21 5.24.39l.01-.03c-1.23-1.31-3.43-3.76-3.61-3.85-.08-.03-.15.02-.33.27l-.17-.08.99-2.02.17.09c-.05.29.06.4.29.66 1.59 1.77 4.05 4.56 4.38 4.73.11.05.24-.03.35-.24l.17.09-1.22 2.45zm3.66-8.47l2.31-3.06c.23-.31.28-.44.14-.6l.14-.19 1.3.98-.14.19c-.19-.08-.3 0-.54.31l-3.63 4.82-.15-.11c.24-.38.22-.5.04-.64l-4.85-3.65c-.19-.14-.3-.12-.63.24l-.15-.12 3.51-4.66c.23-.31.28-.44.14-.6l.14-.19 1.28.97-.14.19c-.17-.07-.28.02-.51.32l-2.17 2.88 1.41 1.07 1.28-1.71c.23-.3.28-.44.15-.6l.14-.19 1.28.96-.14.19c-.17-.06-.28.01-.52.32l-1.28 1.7 1.59 1.18zm5.29-4.72l-.13-.14c.18-.22.19-.34.03-.51l-4.06-4.5c-.15-.17-.27-.18-.53.01l-.13-.14 3.09-2.79c1.36-1.23 2.69-1.4 3.5-.49.69.77.75 1.75-.04 2.76l2.35.66c.68.21.9.32 1.18.13l.12.14-1.83 1.65-.13-.14c.13-.13.21-.26.13-.35-.05-.05-.1-.1-.43-.18l-2.49-.69-1.12 1.01 1.62 1.8c.16.17.27.18.54-.01l.13.15-1.8 1.63zm-1.24-4.41l1.42-1.28c.75-.68.84-1.24.44-1.68-.4-.44-.96-.41-1.72.26l-1.42 1.28 1.28 1.42zm8.15-3.99l.24-.05.04.13c.25.41 1.59 0 2.41-.49 1.32-.79 1.54-1.42 1.21-1.96-.77-1.28-4.78 2.28-6.08.1-.55-.92-.24-2.27 1.64-3.39.76-.45 1.39-.67 1.86-.78.47-.11.77-.13.92-.22.16-.09.21-.2.24-.34l.14-.02-.19 2.08-.24.05-.1-.21c-.16-.27-1.04-.31-2.23.4-.82.49-.95 1.01-.71 1.41.74 1.24 4.71-2.38 6.15.02.57.95.13 2.55-2.1 3.88-.69.41-1.33.63-1.84.76-.54.14-.81.14-1.03.27-.09.05-.1.15-.14.31l-.18.02-.01-1.97zm8.35-2.13l-.07-.17c.43-.22.48-.33.39-.54l-2.27-5.63c-.08-.21-.19-.25-.66-.12l-.07-.17 2.59-1.05.07.18c-.43.22-.48.32-.39.54l2.27 5.62c.08.21.19.26.66.12l.07.17-2.59 1.05zm6.84-2.48l-.04-.19c.23-.1.29-.19.23-.42l-1.32-5.3-1.94.49c-.37.09-.49.17-.47.44l-.23.06-.41-1.65.23-.05c.1.19.24.19.61.1l5.5-1.38c.37-.09.49-.16.49-.37l.23-.05.41 1.65-.23.06c-.12-.25-.25-.26-.62-.17l-1.94.49 1.32 5.3c.06.22.16.28.48.24l.05.19-2.35.56zm11.14-1.72l-2.46.17-.01-.18c.31-.07.39-.15.37-.38l-.17-2.42-2.84-3.52c-.09-.11-.23-.23-.43-.26l-.01-.19 2.59-.18.01.19c-.25.03-.36.09-.35.21.01.11 1.19 1.5 1.88 2.33.41-.84 1.49-2.31 1.48-2.55-.01-.13-.09-.17-.41-.18l-.01-.18 2.46-.17.01.19c-.17.05-.29.14-.41.34l-2.3 3.85.17 2.41c.02.23.11.31.42.33l.01.19zm19.73-4.3c2.41.83 3.26 2.83 2.59 4.76-.67 1.93-2.56 2.99-4.98 2.15-2.41-.83-3.26-2.83-2.59-4.76.67-1.92 2.56-2.98 4.98-2.15zm-2.01 5.83c1.4.48 2.5-.09 3.03-1.62.53-1.53.01-2.65-1.39-3.13-1.41-.49-2.5.08-3.03 1.61-.52 1.53-.01 2.66 1.39 3.14zm4.98 3.14l.09-.17c.41.18.52.15.64-.05l2.94-5.3c.11-.2.08-.31-.33-.59l.09-.16 5.11 2.84c.29.16.43.19.57.04l.2.11-.79 1.43-.2-.11c.05-.2-.04-.3-.33-.46l-3.16-1.75-.86 1.54 1.98 1.1c.33.19.47.22.62.04l.21.12-.8 1.43-.21-.11c.05-.19-.05-.29-.38-.48l-1.98-1.1-1.24 2.23c-.11.2-.08.32.34.59l-.09.17-2.42-1.36zm23.76 11.4l-1.96.21-.05-.15.11-.08c.37-.32.2-1.21-.36-1.87-1.03-1.23-2.21-1.49-3.63-.3-1.1.93-1.22 2.35-.26 3.49.6.71 1.51 1.04 1.85.75.04-.03.15-.16.18-.23l.17.12-.23 2.03-.18-.02c.01-.12-.01-.23-.07-.3-.25-.3-1.31-.08-2.69-1.73-1.63-1.94-1.3-4.13.18-5.38 1.94-1.62 4.18-.81 5.56.83.49.59.72 1.11.84 1.54.12.42.15.7.23.81.07.07.17.14.33.2l-.02.08zm-4.27 5.41l.17-.09c.12.19.33.16.45.15l6.26-.7c.26-.03.38-.04.48-.09.07-.04.09-.12-.03-.4l.17-.09 1.35 2.44-.17.09c-.13-.21-.25-.26-.37-.19-.07.04-.14.14-.39.45l-3.79 4.83c-.17.21-.18.29-.11.46l-.17.09-1.1-1.98.17-.09c.13.17.19.23.27.19.06-.03.11-.08.17-.17l.84-1.07-1.45-2.62-1.21.14c-.11 0-.2.04-.25.06-.11.06-.17.19-.05.45l-.16.09-1.08-1.95zm4.84 3.01l1.96-2.35-.02-.03-3.02.44 1.08 1.94zm5.95 3.58c.22-.08.27-.18.17-.59l.18-.07.89 2.58-.18.06c-.2-.45-.3-.5-.52-.42l-5.17 1.78 1.2 3.47c.12.36.21.47.49.43l.08.22-1.62.56-.08-.22c.18-.12.17-.25.05-.61l-1.89-5.49.18-.06c.16.34.27.4.49.32l5.73-1.96zm-3.93 9.53l.18-.04c.13.47.23.54.46.49l5.95-1.16c.22-.04.29-.14.24-.62l.19-.04.53 2.75-.19.04c-.13-.47-.23-.53-.45-.49l-5.95 1.16c-.23.04-.29.14-.24.62l-.19.04-.53-2.75zm.91 4.77l.19-.02c.07.45.16.53.39.51l6.04-.42c.23-.02.31-.1.31-.59l.19-.01.41 5.83c.03.34.07.47.28.5l.02.23-1.63.11-.02-.23c.2-.06.23-.2.21-.53l-.25-3.61-1.76.13.16 2.26c.03.38.08.52.31.55l.02.23-1.64.11-.02-.23c.18-.06.22-.2.19-.58l-.16-2.26-2.55.18c-.23.02-.3.11-.31.61l-.19.01-.19-2.78zm7.13 12.91c-.31 2.53-2.1 3.77-4.12 3.53-2.02-.25-3.45-1.88-3.14-4.42.31-2.53 2.1-3.77 4.12-3.52 2.03.25 3.46 1.88 3.14 4.41zm-6.12-.75c-.18 1.47.6 2.42 2.21 2.62 1.6.2 2.6-.54 2.78-2.01.18-1.48-.61-2.43-2.21-2.62-1.61-.19-2.6.54-2.78 2.01zm-2.07 6.03l.18.06c-.05.29-.01.39.21.47l5.73 1.97c.22.08.32.02.46-.27l.18.06-1.36 3.94c-.6 1.74-1.68 2.53-2.83 2.13-.98-.33-1.5-1.17-1.3-2.45l-2.38.56c-.7.15-.94.15-1.09.45l-.18-.06.8-2.33.18.06c-.05.18-.06.33.06.38.06.02.14.03.46-.06l2.51-.59.49-1.44-2.29-.79c-.22-.08-.32-.03-.46.26l-.18-.06.81-2.29zm3.22 3.26l-.63 1.81c-.33.97-.14 1.49.43 1.69.57.19 1.04-.1 1.37-1.06l.63-1.82-1.8-.62zm-6.53 5.83l.17.1c-.12.29-.09.39.11.51l5.25 3.03c.2.11.32.08.47-.1l.17.09-1.38 2.38-.16-.09c.1-.21.11-.29.04-.33-.2-.11-4.8.56-5.42.4l-.02.03 3.7 2.13c.2.11.31.08.49-.15l.16.1-1.13 1.96-.17-.09c.11-.27.08-.38-.12-.49l-5.25-3.03c-.23-.13-.31-.08-.46.08l-.17-.1 1.22-2.1.17.09c-.06.16-.11.3.01.37.2.12 4.56-.64 5.9-.48l.02-.03-4.07-2.35c-.2-.12-.31-.09-.48.12l-.17-.09 1.12-1.96zm-5.3 8.33l.15.12c-.27.41-.27.52-.08.66l4.71 3.81c.18.15.3.13.63-.22l.15.12-1.77 2.18-.15-.12c.27-.4.26-.52.08-.66l-4.71-3.82c-.18-.14-.3-.13-.63.22l-.15-.12 1.77-2.17zm-2.8 3.5l.13.14c-.15.16-.07.36-.03.47l2.19 5.92c.1.25.13.36.2.44.06.06.14.05.38-.13l.13.14-2.04 1.89-.13-.14c.17-.18.19-.31.1-.41-.05-.05-.17-.1-.53-.27l-5.6-2.51c-.24-.11-.33-.1-.48 0l-.13-.14 1.66-1.54.13.14c-.14.17-.19.25-.12.32l.21.12 1.24.55 2.2-2.04-.43-1.14c-.03-.1-.08-.19-.12-.22-.08-.09-.23-.12-.44.06l-.13-.15 1.61-1.5zm-1.76 5.43l2.75 1.34.02-.03-1.15-2.82-1.62 1.51z"/><circle fill="#00467F" cx="15.37" cy="76.23" r="1.12"/><path fill="#00467F" d="M36 107.23c-.62 0-1.12.5-1.12 1.12 0 .63.5 1.12 1.12 1.12.62 0 1.12-.5 1.12-1.12-.01-.62-.51-1.12-1.12-1.12zm13.48 7.64c-.62 0-1.12.51-1.12 1.12 0 .61.5 1.12 1.12 1.12.62 0 1.12-.51 1.12-1.12 0-.61-.51-1.12-1.12-1.12zm32.68-.46c-.62 0-1.12.5-1.12 1.12 0 .62.5 1.12 1.12 1.12.62 0 1.12-.5 1.12-1.12 0-.63-.5-1.12-1.12-1.12zm11.59-6.66c-.62 0-1.12.5-1.12 1.11 0 .62.5 1.12 1.12 1.12.62 0 1.12-.5 1.12-1.12 0-.61-.51-1.11-1.12-1.11z"/><circle fill="#00467F" enable-background="new" cx="99.55" cy="25.13" r="1.12"/><circle fill="#00467F" cx="73.31" cy="13.58" r="1.12"/><path d="M51.74 81.92c.21.02 1.29.02 1.49 0 .23-.03 1.25.08 1.82.19.21.05.36.65.08.62-1.64-.15-1.03-.03-2.57-.19-1.54-.15-.82-.62-.82-.62zm5.82.27c.43-.08 4.85.56 5.17.85-.03.02.2.1.08.39-.28.46-1.11-.36-4.22-.49-.61-.09-1.56.07-1.5-.41.02-.18.27-.3.47-.34zM48.39 46.76c-.2.16-.22.81-.29 1-.05.11-.6.03-.56-.09 0 0 .17-1.16.27-1.48-.12-.06 1.29.08 1.25-.05.06-.19-.26-1.39-.33-1.44-.16.08-.39 1.47-.38 1.48l-.54-.02s.41-2.57.84-2.6c.09-.01.35-.09.46.07.14.26 1.14 3.62 1.11 3.95-.16.14-.72.27-.74.04 0 0-.03-.65-.24-.89-.1 0-.63-.09-.85.03zM51.78 56.37c-.15.44-1.12.2-1.78.21-1.65.02-3.52.2-3.52-.24-.12-.72 2.01-.45 2.8-.44 1.19.07 2.72-.19 2.5.47zm2.52-.07c-.19.31-.66.29-1.33.24-.22-.02-.32-.04-.39-.19-.02-.44.65-.41 1.45-.4.22.02.38.17.27.35zm3.2.19c-.19.11-1.95.26-2.08-.13-.14-.41.73-.45 1.53-.44.84.01.79.44.55.57zm6.13 1.21c-.22.24-2.15-.77-3.11-1.01-.66-.16-1.18.03-1.73-.07-.39-.07-.2-.47.16-.58 1.16-.35 5.05 1.23 4.68 1.66zM50.66 59.49c-.15.42-1.11.2-1.77.21-1.63.02-2.38.04-2.41-.54-.02-.44.92-.12 1.7-.12 1.18.05 2.7-.19 2.48.45zm4.35.01c-.14.43-1.12.2-1.8.21-1.62.03-1.65.03-1.7-.24-.06-.3.18-.43.98-.42 1.19.06 2.74-.2 2.52.45zm2.85.1c-.2.32-.72.13-1.42.13-.23 0-.33-.03-.41-.19-.02-.45.68-.42 1.52-.41.23.02.41.29.31.47zm5.86 1.31c-.11.54-1.05-.42-1.95-.64-.65-.16-2.15-.25-2.7-.34-.39-.06-.37-.47 0-.53 1.91-.31 4.76.98 4.65 1.51zM63.91 64.08c-.01.72-1.43-.17-2.29-.29-.72-.09-1.94-.23-2.93-.09-.39.05-.35-.58.02-.63.86-.16 5.21.49 5.2 1.01zm-6.68-.82c-.19.3-.88.23-1.55.17-.22-.02-.37-.12-.44-.27-.02-.42.39-.45 1.18-.44.86-.06.91.37.81.54zm-6.02-.18c-.18.29-1.28.16-1.9.05-1.62-.29-2.96.47-2.99-.2-.02-.5 1.6-.37 2.39-.36 1.19.06 2.89-.14 2.5.51zm2.95.05c-.18.36-.65.33-1.32.26-.21-.02-.36-.03-.43-.21-.02-.5.68-.48 1.47-.46.23.03.39.21.28.41zM55.73 42.64c.05.45-1.13.22-1.96.33-1.65.2-1.79.36-1.68.02.27-.81 3.57-.96 3.64-.35zm.91.29c-.09-.06-.23-.23 0-.44.68-.52 1.75-.06 1.9.11.22.26-.09.5-.28.5-.28-.06-1.31.01-1.62-.17zm6.79 1.63c-.18.18-1.4-.65-2.03-.87-.99-.35-2.04-.3-2.02-.82.04-.97 4.96.83 4.05 1.69zM55.31 49.71c-.1.2-.95.03-1.69.07-.75.03-1.3.23-1.36-.25-.03-.4.82-.32 1.62-.31.86.01 1.74-.12 1.43.49zm.86.11c-.26-.05-.24-.29-.01-.48.77-.13 1.76-.03 2 .03.34.09.21.54-.08.55l-1.91-.1zm7.26 1.49c-.19.14-.98-.36-1.74-.53-.72-.17-1.02-.25-1.16-.35-.34-.12-.14-.5.03-.57.15-.07 3.65.84 2.87 1.45zm-3.47-1.51c-.08.55-.62.34-.86.26-.15-.05-.23-.29-.1-.44.19-.23.94.01.96.18zM53.34 46.38c.23.5-.66.55-.89.47-.15-.06-.23-.29-.1-.45.19-.23.84-.16.99-.02zm1.3.3c-.09-.06-.19-.28.04-.49.71-.27 2.61-.09 2.83.03.52.29.22.6.03.6-1.28-.2-2.65.02-2.9-.14zm7.17.78c-.18.18-1.55-.32-2.22-.38-.74-.06-1.16-.19-1.19-.38.02-.49 1.12-.4 2.08-.2s1.78.53 1.33.96zm1.73.41c-.08.55-.58.26-.82.18-.15-.05-.27-.38-.15-.53.2-.23 1.03.19.97.35zM46.79 52.34c1.01-.23 1.66 1 .24.78-.5-.08-.55-.2-.56-.37 0-.15-.01-.33.32-.41zm7.33.44c-.15.43-2.27.28-2.94.29-1.66.02-2.27.04-2.45-.25-.02-.44.93-.42 1.73-.41.84 0 3.88-.28 3.66.37zm3.45.26c-.12.16-.3.08-.98.11-.75.04-1.22.03-1.26-.26-.02-.43.73-.45 1.54-.44.85.01.89.33.7.59zm4.15.73c-.49.4-.76-.25-1.62-.36-.67-.09-1.34-.06-1.89-.16-.35-.18-.22-.57.14-.66 2.06-.13 3.87.78 3.37 1.18zm1.57.69c-.05.45-.43.47-.78.19-.15-.05-.29-.39-.16-.54.2-.23.84-.01.94.35zM63.25 67.3c-.21.46-1.74-.28-2.82-.32-.75-.03-1.17.05-1.27.02-.39-.07-.35-.56.02-.63 1.21-.22 4.32.36 4.07.93zm-7.22-.7c-.19.31-.64.16-1.31.1-.21-.02-1.09.25-1.36-.05-.09-.51 1.12-.57 1.56-.54.84-.01 1.22.32 1.11.49zm-4.43-.01c-.19.35-2.45-.04-3.07-.06-1.23-.05-2.04.4-2.05-.28.2-.43 2.28-.2 2.75-.19 1.17.04 2.67-.02 2.37.53zm6.6-.29c.23.49-.66.55-.9.47-.15-.06-.23-.3-.1-.45.2-.23.85-.16 1-.02zM71.07 42.78c.95 0 1.08.23.96.55-.12.22-1.28.13-1.62.14-1.15.03-1.69.74-2.12.61-.48-.15-.22-.55.31-.77.5-.21 1.41-.53 2.47-.53zm2.49-.1s1.36.06 1.64.23c.39.23.31.5.15.62-.08.09-1.96-.12-2.03-.15-.1-.05-.21-.1-.23-.31-.01-.25.08-.37.47-.39zm12 .22c.41.07.54.72.16.78-1.43.2-1.7.13-1.72-.08-.41-.84 1.49-.71 1.56-.7zm-5.06.3s1.62.02 1.97.11c.16.04.35.32.15.61-.15.19-2.23.25-2.4-.46.01 0-.06-.24.28-.26zm-3.56-.14s1.44.11 1.78.19c.16.05.54.25.33.53-.14.2-2.22.25-2.4-.46 0 .01-.06-.23.29-.26zM73.29 46.5c.16-.45 1.38-.35 1.71-.09 0 0 .08.23-.08.36-.77.34-1.73.02-1.63-.27zm3.49.18c.37-.27 1.85-.01 1.42.55-.1.06-1.14.24-1.52.03-.09-.04-.28-.3.1-.58zm5.02.24c.55.65-1.28.64-1.49.62-.23-.03-.64-.09-.71-.31-.04-.62 1.82-.75 2.2-.31zm3.93-.32c.26.87-1.23.75-1.43.75-.23-.01-.65-.04-.73-.25-.11-.62 1.98-1.05 2.16-.5zm-14.63-.75c.35-.02 1.16-.02 1.2.43-.29.53-1.83.4-2.17.47-1.36.22-1.69.74-2.12.61-.48-.14-.23-.55.32-.77.49-.21 1.77-.69 2.77-.74zM77.74 49.92c.06.28-.11.4-.13.43-.14.19-1.5.12-1.74-.35-.04-.08-.03-.48.43-.39.38.08 1.38-.33 1.44.31zm1.47-.26c.13-.03 2.5.01 1.88.7-.09.1-.29.24-.47.23-.62-.01-1.65-.09-1.8-.23-.09-.09-.09-.25 0-.46.05-.13.2-.21.39-.24zm3.31.03c1.77.35 3.06-.22 3.24.2.19.41-.01.46-.01.46-.24.19-3.64.29-3.75-.26-.04-.27.35-.44.52-.4zm-7.9-.08c.39.64-.87.51-1.01.5-.17-.03-.48-.09-.52-.29-.05-.59 1.23-.7 1.53-.21zm-4.04-.47c.36-.02.94-.17 1.16.33-.32.64-1.06.29-2.17.47-1.36.22-1.37.63-1.72.32-.32-.28.01-.51.55-.73.48-.2 1.17-.33 2.18-.39zM72.55 52.67c.18.04.64.06.85.26.17.16.13.39 0 .46-1.71.23-1.64-.16-1.64-.16-.13-.59.54-.62.79-.56zm13.18.28c.79.39-.51.83-1.35.58-.08-.02-.23-.1-.31-.23-.14-.47 1.32-.52 1.66-.35zm-9.66-.28c.44.11.44.66 0 .77-.15.04-1.74.3-1.8-.23.02-.9 1.66-.58 1.8-.54zm7.35.47c.13.53-.35.47-.82.43-.59-.05-2.29.15-2.21-.27.07-.33.74-.15.95-.25.55-.22 2-.22 2.08.09zm-4.21.34c-.18.37-1.88.18-1.64-.39.08-.18 1.82-.45 1.64.39zm-9.5-1.07c.35 0 1.09-.04 1.19.5-.52.44-1.08.12-2.19.35-1.01.22-1.22.43-1.2-.12.02-.38 1.2-.73 2.2-.73zM72.17 56.01s1.35-.16 1.79.07c.14.07.37.27.19.57-.13.21-2.17.27-2.16-.32-.01.01-.09-.24.18-.32zm3.46.27c.45-.17 2.1.24 1.37.82-.13.12-1.28-.02-1.62-.3-.09-.06-.22-.34.25-.52zm3.02.1c.39-.14 1.78.2 1.16.67-.11.1-1 .16-1.29-.06-.06-.06-.26-.47.13-.61zm3.95.26c-.52.07-1.17.23-1.22.47.06.29.39.24 1.45.19.53-.02 2 .21 2.39.12.39-.09.43-.46.28-.47-.87-.07-1.63-.46-2.9-.31zm-12.74-.64c.35 0 1.09-.19 1.07.4-.35.53-1 .32-2.11.55-1 .22-1.25.37-1.22-.17.03-.39 1.26-.78 2.26-.78zM72.57 60.07h.84c.42.01.25.52.19.58-.04.11-.69.17-1.16.15-.23-.02-.66-.15-.69-.48.1-.31.52-.23.82-.25zm2.74.04c.13-.02 2.3.02 1.73.58-.08.08-.27.19-.43.19-.57-.01-1.51-.07-1.66-.19-.09-.07-.08-.21 0-.39.05-.1.2-.16.36-.19zm3.36.12c.42-.18 1.8.4 1.25.85-.11.04-1.17-.02-1.49-.31-.06-.07-.18-.36.24-.54zm3 .27c.13-.03 2.5.01 1.88.7-.09.1-.29.24-.47.23-.62-.01-1.64-.09-1.8-.23-.1-.09-.09-.26 0-.46.06-.13.21-.21.39-.24zm-11.96-.6c.49-.04 1.23-.23 1.21.36-.35.53-.75.3-1.86.53-1 .22-1.25.37-1.22-.18.02-.37.87-.64 1.87-.71zm15 .79c.39-.15 1.77.2 1.16.67-.11.1-1 .16-1.29-.06-.07-.06-.27-.47.13-.61zm-7.98 3.2c.12-.02 2.3.02 1.73.58-.08.08-.26.2-.43.2-.57-.01-1.51-.08-1.66-.2-.08-.07-.08-.21 0-.38.06-.11.2-.17.36-.2zm3.56.34c.68-.08 1.94.11 1.79.69-.07.39-.46.07-.72.08-.48.02-1.97.23-1.79-.43.01-.27.56-.32.72-.34zm2.67.73c.02.41 1.67.89 1.67.27 0-.2-1.5-1.12-1.67-.27zm-8.03-1.15s-1.17-.31-1.67-.17c-.13.04-.33.26-.19.55.09.19 1.97.44 1.98-.09.01 0 .07-.18-.12-.29zm-4.51-.25c.36 0 1.88.02 1.86.61-.21.49-1.41.02-2.91.21-1.02.13-1.25.38-1.22-.18.02-.37 1.27-.63 2.27-.64zm3.63 3.56c.46-.17 2.22.18 1.49.76-.13.12-1.41.04-1.75-.23-.07-.07-.21-.35.26-.53zm3.4.45c.39-.14 1.77.19 1.16.67-.11.1-1.09-.02-1.37-.25-.07-.05-.19-.28.21-.42zm4.28.67c.37.69-1.1.53-1.26.49-.18-.04-.5-.14-.53-.37.01-.61 1.53-.59 1.79-.12zm.95.46c.01.41.97.68.97.06 0-.2-.8-.91-.97-.06zm-14.22-1.4c.13-.04 4.03-.58 3.86.14-.03.13.16.28-1.98.37-.54.02-2.11.33-2.26.19-.1-.09-.28-.43.38-.7zm4.36 6.39s1.36-.09 1.79.16c.13.08.35.29.15.59-.14.19-2.18.15-2.14-.43 0 0-.07-.25.2-.32zm3.85.48c.12-.01 2.3.13 1.69.66-.09.08-.27.18-.44.17-.56-.04-1.5-.15-1.64-.28-.08-.08-.07-.22.02-.39.06-.09.2-.14.37-.16zm3.97 1.16c-.57-.12-1.54-.36-1.35-.73.16-.3.76.07.99.05 1.26-.12 1.43.89.36.68zm3.13.32c-.59.01-1.58-.21-1.48-.62.08-.33.59-.05.81-.12 1.56-.51 1.76.71.67.74zm-12.64-1.74c.08.42-.49.33-1.53.31-.97-.02-1.75.83-1.99.24-.09-.2.13-.4.67-.62.49-.2 2.77-.35 2.85.07zm2.35-3.54c.09-.03 1.69.01 1.27.56-.06.08-.19.19-.32.19-.41-.01-1.11-.08-1.21-.19-.07-.07-.06-.21 0-.38.04-.1.14-.16.26-.18zm2.56.21c.42-.18 2.7.18 1.98.94-.11.03-1.9-.12-2.22-.4-.06-.06-.18-.36.24-.54zm4.97.64c.37-.02 2.08.28 1.98.84-.03.12-.58.1-.87.04-.9-.2-1.37-.35-2.12-.35-.31 0-.29-.29-.2-.5.05-.12 1.03-.02 1.21-.03zm-9.2-.49c.06.63-.84.35-1.88.33-.97-.01-1.74.71-1.99.13-.08-.21.13-.4.67-.62.49-.22 3.15-.28 3.2.16zm10.74 6.88c.14-.02 2.5.15 1.84.8-.09.09-.3.22-.48.21-.61-.05-1.64-.17-1.79-.32-.09-.09-.08-.26.03-.47.06-.14.22-.2.4-.22zm-1.6.46c-.2.37-1.9.08-1.62-.47.08-.19 1.84-.37 1.62.47zm-4.33-1c.12-.01 2.29.13 1.69.67-.08.08-.27.18-.44.17-.57-.04-1.5-.15-1.64-.28-.08-.07-.07-.21.02-.38.06-.11.2-.16.37-.18zm-2.13-.13c.36.66-.89.46-1.04.44-.17-.03-.47-.11-.51-.32-.01-.58 1.28-.61 1.55-.12zm-4.53-.27c.35-.01 1.15-.24 1.12.35-.35.53-1 .32-2.11.56-1 .21-1.24.37-1.21-.19.02-.37 1.19-.72 2.2-.72zm-1.69 3.47s1.21-.37 1.8-.21c.16.04.31.17.15.48-.55 0-1.8.16-2 .35 0 0-.18-.5.05-.62zM53.89 69.58c.63-.14 2.1.62.49.73-.11.02-.99.04-1.1-.08-.56-.58.45-.62.61-.65zm-1.79.38c-.01.35-1.71.33-3.05.24-1.61-.11-2.59.06-2.57-.41.09-.59 1.62-.2 2.41-.19 1.18.07 3.24-.4 3.21.36zm9.15.57c-.11.62-2.42-.18-3.5-.22-.75-.03-1.41-.06-1.51-.08-.39-.07-.35-.57.02-.63.8-.14 5.07.48 4.99.93zm2.11 1.22c-.19.3-.49 0-1.04-.16-.21-.06-.48-.17-.38-.52.28-.39.77-.06.96.07.48.25.56.44.46.61zM59.25 77.24c-.02.55-2.47-.25-3.54-.29-.75-.02-2.02.02-2.12 0-.39-.06-.4-.61-.02-.67 1.19-.2 5.71.22 5.68.96zm-7.07-.58c-.03.3-1.56.21-3.02.12-2.5-.03-2.68-.12-2.59-.46.16-.56 1.59-.37 2.39-.43 1.19.06 3.28 0 3.22.77zm11.31 1.86c-.2.3-1.04-.33-1.72-.39-.21-.01-.97-.08-.93-.43.02-.44.58-.41 1.42-.17.81.21 1.47.63 1.23.99zM61.2 74.09c-.15.83-1.08-.12-3.49-.23-.75-.03-1.41-.05-1.51-.07-.39-.08-.35-.56.02-.64 1.21-.22 5.1.33 4.98.94zm-7.11-1.21c.63-.12 2.11.62.47.73-.11.01-1 .03-1.11-.06-.56-.5.47-.63.64-.67zm-2.02.3c-.02.55-2.69.22-3.32.17-1.61-.1-2.25.18-2.27-.49.09-.59 1.62-.2 2.41-.19 1.18.07 3.21-.25 3.18.51zm10.65 1.24c.62.19 1.57 1.53.08.86-.11-.04-.9-.44-.95-.57-.26-.7.71-.33.87-.29zM63.16 86.29c.09.04.4.04.18.44-.22.33-4.43-.41-4.64-.44-.43-.07-.4-.16-.39-.47.12-.25.44-.18.5-.18.15-.04 4.27.61 4.35.65zm-6.25-.49c-.16.21-2 .26-1.94-.18.03-.45.48-.25 1.27-.24.88 0 .83.2.67.42zM70.28 85.7c.36-.04.71-.25.68.34-.12.36-.61.24-1.72.48-1 .21-1.25.45-1.15-.09.05-.27 1.19-.62 2.19-.73zm-.02-3.03c.35 0 .85-.18.82.41-.2.25-.83.13-1.94.37-1 .22-1.17.54-1.14-.01.03-.38 1.26-.77 2.26-.77zm-23.52-39.56c-.05.01-.07.3-.07.76s.02 1.08.04 1.74l.01 3h.08c-.08-.14-.09-3-.09-3-.02-.65-.03-1.29-.03-1.76 0-.44.02-.73.06-.74.89-.19 3.39-.51 4-.22.17.08.23.9.23 1.89 0 1.52-.14 3.44-.21 3.63-.06.14-.94.24-1.86.28.93-.04 1.81-.14 1.87-.28.07-.19.22-2.1.22-3.62 0-.99-.06-1.81-.24-1.9-.63-.3-3.12.02-4.01.22zm0 0zm.06 5.54c.28.07 1.21.07 2.1.03-.86.03-1.74.01-2.1-.07v.04zm-.13-5.86c-.35.07-.36.22-.29 2.66v1.64l.02 1.57c.07.53.65.46 1.21.39l.85-.08.89-.01c1.65-.02 1.95-.04 2.07-.35l-.02-.98-.1-2.03c.07-2.78-.21-2.91-.42-3.01-.79-.38-3.54.05-4.21.2zm3.93.39v.04c0 .13.05.6.05 1.55l-.02.8.11 2.1.03.54-1.43.07-.91.01-.91.08-.57.04c.07-.02.08-.78.08-1.14v-3.88c1.06-.2 3.12-.42 3.57-.21zm74.86 18.92c-.54-3.19-.61-5.91-.67-8.11-.06-2.26-.1-3.89-.64-4.88l.03.08-4.75-11.75.02.05c-.97-3.48-9.34-13.23-9.76-13.74-.97-1.53-6.65-5.79-8.24-6.6-.05-.04-6.23-4.31-6.23-4.31-2.54-1.82-6.66-3.45-10.1-4.54l-3.99-1.4c-4.94-1.71-12.73-1.92-13.76-1.84-.41.03-2.36.03-2.78 0-1.03-.08-8.81.13-13.47 1.9l-2.91 1.02c-3.74 1.03-7.14 2.09-9.69 3.92l-7.25 5.07c-1.61.83-8.91 6.07-9.75 7.55l.05-.08c-.37.46-7.93 9.44-8.9 12.92l.02-.05-4.9 11.88.04-.08c-.55.99-.44 2.97-.5 5.23-.06 2.19-.28 4.57-.82 7.76-.43 2.54-.1 4.79.23 7.51.33 2.73.44 5.95.94 8.34.42 2.02.99 3.77 1.1 5.05.68 3.24 2.3 7.46 3.12 8.64.6.86 1.73 2.45 1.73 2.45.99 1.34 2.15 2.92 2.85 4.07.71 1.15.96 1.86 1.53 2.86.79 1.39 1.5 2.64 2.29 3.77.8 1.13 1.69 2.15 2.86 3.08.3.25 2.9 1.99 4.15 2.81 1.47.98 1.97 1.31 2.27 1.58l.92.92c2.54 2.56 4.43 4.54 6.08 5.48.63.35 2.25.77 2.79.78.54 0 .99-.1 1.38-.33.7-.38 1.14-1.08 1.38-2.13.04-.13.37-.9.72-1.72.55.12 1.25.8 1.76 1.28l-.35 1.19c-.3 1.02-.11 2.02.57 2.91 2.72 3.53 12.82 4.86 21.63 4.61 9.1.28 20.47-2.43 21.97-5.88.29-.67.16-1.34-.38-1.89-.16-.16-.27-.36-.42-.54.05-.09.14-.18.3-.27.42-.2.92-.05 1.16-.08h.02c.38.67.77 1.39 1.19 2.19.17.33.47.54.86.61 2.64.45 11.13-7.04 11.21-7.12.29-.27 1.87-1.63 3.34-2.61 1.25-.83 2.33-1.55 2.64-1.8 2.33-1.86 4.01-4.05 5.59-6.84 1.13-1.99 2.41-4.25 4.38-6.93l.17-.23c1.83-2.48 4.3-7.35 4.68-10.85.11-1.29.48-3.04.9-5.06 1.02-4.78 2.26-10.75 1.39-15.85zm-80.5 53.28c-.41-.37-1.01-.81-1.73-.98 1.82-4.27 2.61-6.3 2.77-7.27l.02-.17.02-.18v-.01l-.02-.22-.33-.72c-.2-.39-.79-1.16-.79-1.78 0-.88.31-.73.67-.7.38.01 2.12.4 3.29.96.9.42 1.56 1.31 1.91 1.74.14.17.13.49-.12.73-.25.23-.38.27-.88.48-.55.22-1.39.9-1.55 1.03-1.07.43-1.77 2.15-2.76 5.4l-.07.22c-.1.33-.21.69-.31 1.05l-.12.42zm-.97-10.4c-.64-.32-1.21-.61-2.02-1.19-1.23-.89-4.25-3.28-5.56-4.07-.89-.54-.98-1.05-2.06-2.18-.93-.98-1.89-1.98-2.74-2.62-1.12-.84-3.05-3.82-3.7-4.89-2.23-3.65-5.81-10.7-6.61-17.68-.1-.89-.12-3.21-.14-5.26-.02-1.76-.04-3.27-.09-3.95.1-1.43.45-5.25.83-6.25.27-.71.48-2.21.76-3.41.24-1.05.51-2.61.71-3.13.01-.06 1.01-2.93 1.7-4.16 0-.01 3.18-6.03 3.18-6.03.03-.06 1.66-3.46 2.87-4.73l1.23-1.31c1.31-1.42 2.66-2.88 3.95-3.87 2.05-1.58 5.26-3.75 8.12-5.1l3.86-1.91c1.36-.7 2.1-1.08 3.27-1.44.07-.01 7.83-2.48 12.99-2.78-.45 1.11-.82 2.14-.95 2.62 0 0-1.19.24-2.84.3-.88.03-3.56.5-3.56.5 1.86 2.85 3.5 4.59 4.27 5.37 0 0-.94 5.44-.91 6.08.09-.03 2.96-1.49 3.9-2.02s2.04-.88 2.18-.86c.06.01 2.7 1.12 3.34 1.51 1.47.88 2.47 1.42 2.82 1.53v-.07c0 .01-1.38-5.79-1.36-6.09 0-.04.71-.72 1.18-1.31.77-.97 1.6-1.64 2.11-2.23.52-.6 1.47-1.69 1.5-1.75-.05-.01-6.26-.76-6.65-.92-.02-.01-.6-1.35-1.1-2.58 1.27.08 2.07.21 3.51.43l.06.01c3.76.6 7.96 2.22 9.75 2.9-.01-.01 1.52.62 1.69.69.07.04 2.67 1.11 2.67 1.11 1.75.95 3.32 1.87 3.99 2.39l.95.67c1.92 1.35 6.08 4.13 6.77 5.23l1.06 1.43c.63.8.98 1.81 1.3 2.62.59 1.46 1.97 3.14 3.3 4.77.93 1.13 1.81 2.2 2.34 3.1 0-.01 1.72 2.41 2.06 4.62.43 2.78 1.14 7.05 1.51 8.29 2.01 6.75 1.43 10.3.64 13.88-.24 1.09-.78 2.62-.9 3.65-.14 1.19-.33 2.61-1.09 4.22-.3.63-.88 1.99-1.12 2.78-.39 1.27-.81 2.59-1.53 3.57-.28.39-.82 1.23-1.56 2.41-1.75 2.78-4.39 6.98-6.68 9.77-.73.89-2.68 2.48-4.25 3.74-.98.79-1.83 1.48-2.25 1.89-.62.61-1.93 1.59-3.02 2.38l.06-.3c0-.16-.02-.32-.07-.48-.11-.35-.4-.81-1.15-1.02-.85-.24-1.65.14-2.77.6-.8.31-1.74.76-2.98 1.88-.5.45-1.22 1.18-.98 1.76.19.45.6.84 1.13 1.14-2.69.82-5.32 1.61-6.26 1.8-.64.12-2.82.78-4.23 1.02-1.55.27-3.18.53-4 .55-3.29.07-8.04-1.11-9.01-1.65l-.04-.02-.04-.02c-2.25-.85-5.28-1.97-7.21-2.46l.12-.06c.82-.34 1.31-.79 1.46-1.36.08-.34.07-.88-.46-1.53-.58-.69-1.5-1.39-2.4-1.81-.24-.12-2.32-.91-3.21-.94-.67-.03-1.04-.06-1.32.12l-.05.02c-.37.22-.51.57-.51.97-.03.32.08.72.24 1.12zm22.3-79.92c-.68-.54-2.14-3.08-2.14-3.08.08-.34 2.14-4.85 2.14-4.85.18.78.15 2.39.09 4-.06 1.59-.15 3.19-.09 3.93zm-7.77-1.76c.67.16 2.72.8 2.72.8 1.48.56 2.83 1.11 4.4 1.52-.23.48-.72 1.36-.72 1.36s-3.39 5.26-3.65 5.64c0 0 1.02-5.39.97-5.45-.2-.33-2.27-2.12-3.72-3.87zm14.09 1.6c-.03.23-1.28 1.68-1.28 1.68-.24.03-4.02-.85-4.45-1.06 0 0 1.54-2.89 2.13-3.18l5.53.56c-.44.15-2.04.58-3.46 1.07-1.65.65-3.21 1.22-3.21 1.22s4.23-.22 4.74-.29zm-1.28 7.76c-.43-.11-4.16-2.17-4.16-2.17-.14-.11-.7-4.07-.64-4.8l4.8 6.97zm16.02 86.24c-.95 2.16-10.37 5.79-19.84 5.49-9.93.28-19.64-1.23-21.7-3.92-.31-.4-.48-1.38-.48-1.82 0-.19.03-.39.09-.59l.48-1.65v-.01l.06-.21.02-.06c.9-3.08 1.91-6.57 2.72-6.79.73-.04.71-.43 4.53 1 1.42.74 8.77 2.88 10.36 2.99 1.17.08 5.31-.03 6.97-.31 1.37-.24 2.45-.64 3.04-.67 1.33-.09 8.35-2.23 9.58-2.61l.03.01.11.08c.26.26.53 1.07.76 1.83l.18.61c.13.44.27.91.43 1.4l.13.38c.12.36.26.72.4 1.09l.24.53c.14.32.31.63.49.94.1.18.21.35.32.52l.23.36.9 1.22-.05.19zm.25-3.13c-.23.11-.39.22-.55.33-.37-.63-.67-1.3-.92-1.98l-.11-.3c-.1-.28-.2-.56-.28-.83l-.2-.65-.12-.41c-.48-1.65-.88-3-1.8-3.32l-.06-.04-.28-.03-.17-.02c-1.08.05-2.26-.42-2.43-.83-.03-.07.07-.48.24-.62 1.09-1 1.62-1.64 2.33-1.92.52-.21 1.7-.79 2.94-.47.29.07.32.47.34.5l.02.13c0 .44-.46 1.23-.84 1.69-.62.55-.89 1.07-.89 1.65 0 .98.72 2.11 1.76 3.75.52.82 1.16 1.83 1.88 3.06-.27.08-.55.17-.86.31zm35.32-38.06c-.43 2.06-.8 3.84-.92 5.19-.54 4.95-2.27 7.29-4.46 10.25l-.17.22c-2.02 2.74-3.32 5.03-4.46 7.05-1.51 2.67-2.72 4.78-4.86 6.5-.27.21-1.43.98-2.55 1.73-2.16 1.44-3.6 2.41-3.94 2.74-2.13 2.04-9.07 7.22-10.2 6.8-1.51-2.93-2.8-4.97-3.74-6.45-1.1-1.74-1.56-2.55-1.56-3.07 0-.33.19-.56.52-.83.29-.2 3.13-2.4 4.35-3.6l2.76-1.98c1.7-1.37 4.5-4.55 5.31-5.54 2.34-2.86 3.64-5.03 5.4-7.83.7-1.11 1.86-3.02 2.12-3.36.84-1.14 1.18-2.02 1.58-3.33.23-.74.74-1.6 1-2.16.82-1.73 1.11-3.77 1.27-5.06.12-.97.07-1.4.3-2.46.43-1.94 1.18-4.73 1.18-7.49 0-2.26-.39-4.06-1.34-7.24-.36-1.21-1.15-5.57-1.57-8.3-.38-2.4-1.97-5.55-2.03-5.68-.6-1.01-1.71-2.01-2.67-3.18-1.28-1.56-2.39-3.27-2.91-4.56-.39-.97-1.16-1.94-1.85-2.8l-.99-1.32c-.75-1.2-3.64-3.27-6.53-5.29l-.92-.65c-.72-.56-2.58-1.57-4.55-2.63l-2.49-1.36-.04-.02-1.74-.71c-1.83-.69-6.51-2.23-8.21-2.5l-.06-.01c-1.9-.3-3.39-.58-5.89-.71-.12-.31-.23-.58-.28-.75-.17-.52-.83-1.72-1.09-2.44-.44.32-1.15 1.72-1.78 3.18-5.28.35-12.63 2.38-13 2.48-1.29.39-2.07.79-3.49 1.52l-5.59 2.75c-3.7 1.75-5.64 3.44-6.66 4.23-1.37 1.05-2.42 1.83-3.76 3.29l-1.21 1.3c-1.34 1.42-3.76 6.15-3.83 6.3-.01 0-2.16 3.68-2.16 3.68-.73 1.31-2.9 6.89-2.95 7.04-.21.58-.46 1.65-.71 2.78-.26 1.17-.73 2.33-.78 3.02-.32 4.45-.59 6.41-.63 6.95v.09c.05.62-.24 2.25-.19 3.58.08 2.17.06 4.42.15 5.37.42 4.12 2.77 10.97 5.11 14.79.1.17 1.76 3.85 5.96 8.7.63.73 2.23 2.11 3.13 3.05 1.14 1.19 1.51 1.78 2.53 2.4 1.28.77 2.54 1.67 3.75 2.54 1.35.97 2.75 1.97 4.21 2.83l.05.02.01.03v.02l-.08.4-.04.13-.2.64-.08.21-.29.77-.05.14-.35.9-.11.27-.37.91-.22.52-.25.59-.19.45-.18.42-.54 1.27-.06.13-.06.13v.01c-.6 1.4-.77 1.8-.81 1.98-.16.7-.42 1.14-.8 1.35-.47.27-.98.49-2 .12-1.35-.47-2.46-1.67-3.83-2.93-1.13-1.04-2.24-2.17-2.99-2.92l-1.53-1.25c-.34-.33-1.2-.99-3.36-2.42l-1.45-.87c-.52-.35-1.68-1.59-1.82-1.71-2.15-1.71-2.61-2.99-4.13-5.66-1.14-2.03-2.8-4.97-3.33-5.62l-1.3-1.66c-2.19-2.97-3.92-5.31-4.45-10.27-.12-1.34-.63-2.53-1.06-4.58-.2-.95-.27-2.53-.46-3.55-.79-4.01-1.44-8.52-.77-12.42.55-3.27.46-5.38.52-7.61.05-2.01.09-3.6.5-4.33l.18-.7 4.2-11.06.01-.02c.45-1.62 3.83-7.06 5.14-8.89 1.29-1.82 4.7-5.49 4.75-5.55l.03-.04.02-.04c.62-1.08 6.34-5.01 8.06-5.87l.04-.02 7.32-5.12c2.4-1.72 7.01-3.18 10.38-4.24l2.39-.78c4.7-1.63 11.69-2.2 12.64-2.13.47.04 2.49.04 2.96 0 .95-.07 9.23.5 13.93 2.13l3.01.66c3.37 1.06 7.36 2.64 9.76 4.36l7.83 5.2.04.02c-1-.5 6.56 3.73 8.11 6.4l.02.04.03.03c.09.11 8.42 10.58 9.33 13.83l.01.02 4.1 10.44.03.04c.4.73.52 2.95.57 4.96.06 2.23.45 5.21 1.01 8.48.83 4.87-.71 10.51-1.69 15.2zM63.05 80.49c-.11.53-2.41-.43-3.48-.47-.75-.02-2.72-.1-2.82-.12-.39-.06-.56-.51-.19-.57 1.2-.19 6.61.57 6.49 1.16zm-11.1-1l-2.38.04c-2.5-.03-2.68.01-2.58-.33.16-.56 1.63-.22 2.43-.29 1.19.07 2.56-.18 2.53.58zm1.51-.11c.15-.21 1.66-.29 1.6.15-.04.45-.23.26-1.01.25-.88 0-.76-.18-.59-.4zM66.08 2.89c-.67-.01-1.18-.55-1.17-1.22.01-.67.54-1.19 1.21-1.18.67.01 1.19.56 1.18 1.22 0 .67-.54 1.19-1.22 1.18zm-4.25.11c-.67.04-1.22-.46-1.26-1.12-.04-.67.45-1.23 1.12-1.27.67-.04 1.23.46 1.28 1.12.04.67-.46 1.23-1.14 1.27zm-4.3.41c-.67.09-1.25-.37-1.34-1.03-.09-.66.36-1.26 1.03-1.34.67-.09 1.26.38 1.35 1.03.09.67-.37 1.25-1.04 1.34zm-4.26.7c-.66.14-1.27-.28-1.4-.93-.13-.65.27-1.28.94-1.41.66-.13 1.28.29 1.42.95.12.64-.3 1.26-.96 1.39zm-4.2 1c-.65.18-1.3-.19-1.47-.84-.17-.64.18-1.29.83-1.47.65-.18 1.3.2 1.48.84.18.64-.19 1.29-.84 1.47zm-4.14 1.29c-.64.22-1.3-.1-1.52-.73-.22-.63.09-1.31.73-1.53.64-.22 1.31.12 1.53.74.23.62-.1 1.29-.74 1.52zm-4 1.56c-.62.27-1.3-.01-1.57-.62-.26-.61 0-1.31.62-1.58s1.32.01 1.58.63c.27.61-.01 1.3-.63 1.57zm-3.91 1.85c-.6.31-1.3.08-1.61-.51-.31-.59-.09-1.31.51-1.62.6-.31 1.32-.07 1.62.52.31.59.08 1.3-.52 1.61zm-3.76 2.1c-.58.35-1.3.16-1.64-.4-.35-.57-.18-1.3.4-1.65.57-.35 1.31-.16 1.65.4.35.57.17 1.3-.41 1.65zm-3.63 2.37c-.55.39-1.28.26-1.66-.29-.39-.54-.27-1.28.28-1.67.56-.39 1.29-.26 1.68.29.38.55.25 1.28-.3 1.67zm-3.45 2.62c-.52.42-1.26.34-1.68-.17-.42-.52-.36-1.26.17-1.69.52-.43 1.27-.34 1.69.17.42.52.35 1.26-.18 1.69zm-3.26 2.84c-.49.46-1.23.43-1.69-.06-.45-.49-.44-1.24.05-1.69.5-.46 1.25-.43 1.7.06.46.48.43 1.22-.06 1.69zm-3.05 3.05c-.46.5-1.2.51-1.69.06-.48-.45-.52-1.2-.06-1.69.46-.5 1.22-.52 1.7-.06.48.45.51 1.2.05 1.69zm-2.85 3.26c-.42.52-1.16.59-1.68.17-.51-.42-.61-1.16-.18-1.69.42-.52 1.17-.59 1.69-.18.52.44.6 1.18.17 1.7zm-2.58 3.41c-.39.55-1.12.67-1.66.29-.54-.38-.68-1.12-.29-1.67.39-.55 1.14-.67 1.68-.29.53.39.66 1.12.27 1.67zm-2.38 3.64c-.35.58-1.07.75-1.64.4-.57-.34-.76-1.07-.41-1.65.35-.57 1.08-.75 1.65-.4.57.34.75 1.07.4 1.65zm-2.11 3.75c-.31.6-1.02.82-1.61.51-.59-.3-.83-1.01-.52-1.61.31-.6 1.03-.82 1.63-.52.59.31.81 1.02.5 1.62zm-1.84 3.91c-.27.62-.96.88-1.57.62-.61-.26-.9-.95-.63-1.57.27-.62.97-.89 1.58-.63.61.27.88.96.62 1.58zm-1.57 4c-.22.63-.89.95-1.52.73-.63-.22-.96-.89-.74-1.52.22-.64.91-.96 1.53-.74.63.23.96.9.73 1.53zm-1.29 4.14c-.18.65-.83 1.01-1.47.83-.64-.18-1.02-.82-.84-1.47.18-.65.84-1.02 1.48-.84.64.18 1.01.83.83 1.48zm-1 4.2c-.13.66-.75 1.07-1.41.93-.65-.13-1.07-.75-.94-1.41.13-.66.76-1.07 1.42-.94.65.13 1.06.76.93 1.42zm-.7 4.26c-.09.67-.68 1.12-1.34 1.03-.66-.08-1.13-.67-1.04-1.34.09-.67.69-1.12 1.35-1.03.66.08 1.11.66 1.03 1.34zm-.41 4.3c-.04.68-.6 1.16-1.27 1.12-.66-.04-1.17-.59-1.12-1.26.04-.68.61-1.17 1.27-1.13.66.04 1.16.6 1.12 1.27zm-.12 4.3c.01.68-.51 1.21-1.17 1.21-.67.01-1.22-.49-1.23-1.17-.01-.67.52-1.21 1.19-1.22.66-.02 1.2.5 1.21 1.18zm.18 4.35c.05.67-.44 1.23-1.1 1.28-.66.05-1.24-.43-1.29-1.1-.05-.68.44-1.24 1.11-1.29.66-.05 1.22.43 1.28 1.11zm.47 4.28c.09.67-.35 1.26-1.01 1.36-.66.09-1.27-.34-1.36-1.01-.1-.67.36-1.27 1.02-1.36.65-.1 1.25.34 1.35 1.01zm.76 4.24c.14.66-.27 1.28-.91 1.42-.65.14-1.29-.25-1.43-.91-.14-.66.27-1.29.92-1.43.65-.14 1.28.26 1.42.92zm1.06 4.18c.19.65-.18 1.29-.81 1.49-.64.18-1.3-.16-1.49-.81-.19-.65.18-1.3.82-1.49.64-.2 1.29.16 1.48.81zm1.35 4.11c.23.63-.09 1.3-.71 1.53-.63.23-1.31-.07-1.54-.71-.23-.63.09-1.31.72-1.54.61-.22 1.29.09 1.53.72zm1.61 3.98c.27.61.01 1.3-.6 1.57s-1.31.02-1.59-.6 0-1.32.61-1.59c.61-.26 1.31 0 1.58.62zm1.9 3.87c.32.6.1 1.31-.49 1.62-.59.32-1.3.11-1.62-.49-.32-.59-.09-1.31.49-1.63.59-.31 1.31-.09 1.62.5zm2.18 3.76c.36.57.19 1.3-.38 1.65-.56.35-1.29.2-1.65-.38-.36-.57-.18-1.3.38-1.66.57-.34 1.3-.17 1.65.39zm2.4 3.57c.4.54.27 1.28-.26 1.67-.54.39-1.28.29-1.67-.26-.4-.54-.27-1.29.27-1.68.53-.4 1.27-.28 1.66.27zm2.66 3.4c.43.52.36 1.26-.15 1.69-.51.43-1.26.37-1.69-.14-.43-.52-.36-1.27.15-1.69.52-.44 1.26-.37 1.69.14zm2.89 3.22c.47.49.45 1.23-.04 1.68-.48.46-1.23.46-1.69-.03-.47-.49-.45-1.24.04-1.7.47-.45 1.22-.43 1.69.05zm3.1 3.02c.5.46.53 1.19.08 1.69s-1.19.54-1.69.09c-.5-.45-.53-1.21-.08-1.7.44-.5 1.19-.53 1.69-.08zm3.3 2.79c.53.42.61 1.16.19 1.68-.41.52-1.15.62-1.68.2s-.61-1.16-.2-1.69c.42-.52 1.16-.6 1.69-.19zm3.49 2.56c.56.39.69 1.11.31 1.66-.38.55-1.11.7-1.67.32-.56-.38-.69-1.12-.32-1.67.39-.55 1.12-.68 1.68-.31zm3.62 2.31c.58.33.76 1.05.43 1.63-.33.57-1.06.77-1.64.43-.58-.34-.77-1.07-.43-1.64.34-.57 1.06-.76 1.64-.42zm3.79 2.05c.6.3.83 1 .54 1.6-.3.6-1 .85-1.6.54-.6-.29-.84-1.02-.54-1.6.29-.6 1-.84 1.6-.54zm3.94 1.79c.62.26.9.95.65 1.56-.25.62-.94.92-1.56.65-.62-.26-.91-.96-.65-1.57.25-.61.94-.89 1.56-.64zm4.03 1.51c.64.21.96.88.75 1.51-.21.63-.88.97-1.51.76-.64-.21-.97-.89-.76-1.52.22-.64.88-.96 1.52-.75zm4.16 1.23c.65.17 1.02.82.86 1.46-.17.65-.81 1.03-1.46.86-.65-.17-1.03-.82-.86-1.46.16-.64.81-1.03 1.46-.86zm4.23.94c.66.12 1.08.74.96 1.39-.12.66-.73 1.09-1.39.97-.66-.13-1.08-.75-.96-1.41.11-.65.72-1.07 1.39-.95zm4.23.64c.67.08 1.13.66 1.05 1.33-.07.65-.66 1.13-1.32 1.05-.67-.08-1.13-.67-1.06-1.33.07-.67.66-1.13 1.33-1.05zm4.32.35c.67.03 1.17.58 1.13 1.25-.03.66-.58 1.17-1.25 1.15-.67-.04-1.18-.6-1.15-1.26.04-.66.59-1.17 1.27-1.14zm4.34.06c.67-.01 1.21.5 1.22 1.17.01.67-.49 1.21-1.17 1.23-.67.01-1.21-.51-1.23-1.18s.51-1.21 1.18-1.22zm4.3-.24c.67-.06 1.24.42 1.3 1.08.06.67-.41 1.25-1.08 1.31-.67.06-1.25-.43-1.31-1.1-.06-.66.42-1.23 1.09-1.29zm4.27-.53c.67-.11 1.26.33 1.37.99.1.66-.32 1.27-.99 1.38-.67.11-1.27-.34-1.38-1-.11-.66.33-1.27 1-1.37zm4.26-.83c.66-.16 1.29.24 1.44.89.15.65-.23 1.29-.9 1.44-.65.15-1.29-.25-1.44-.9-.15-.65.25-1.28.9-1.43zm4.16-1.12c.65-.2 1.3.15 1.49.79.19.64-.14 1.3-.79 1.5-.65.19-1.31-.17-1.51-.8-.19-.63.16-1.29.81-1.49zm4.08-1.41c.63-.24 1.3.07 1.54.69.24.62-.05 1.3-.69 1.54-.63.24-1.32-.07-1.55-.69-.23-.61.07-1.29.7-1.54zm3.95-1.66c.61-.29 1.3-.03 1.58.57s.04 1.31-.57 1.6c-.61.28-1.32.02-1.6-.59-.28-.6-.02-1.31.59-1.58zm3.89-1.98c.59-.33 1.3-.12 1.62.46.32.59.13 1.3-.46 1.63-.59.33-1.31.11-1.64-.47-.32-.58-.11-1.3.48-1.62zm3.69-2.22c.57-.37 1.29-.21 1.65.36.36.56.21 1.3-.35 1.66-.57.37-1.3.2-1.66-.35-.37-.57-.21-1.3.36-1.67zm3.55-2.47c.54-.41 1.27-.29 1.67.24.4.53.31 1.27-.23 1.68-.54.4-1.29.29-1.69-.24-.39-.53-.29-1.28.25-1.68zm3.34-2.68c.51-.44 1.25-.38 1.68.13.43.51.39 1.25-.12 1.7-.51.44-1.26.37-1.7-.13-.43-.52-.37-1.26.14-1.7zm3.17-2.94c.48-.48 1.22-.46 1.69.01.47.48.48 1.22-.01 1.7-.48.48-1.23.47-1.7-.01-.46-.47-.46-1.21.02-1.7zm2.97-3.13c.44-.51 1.18-.54 1.69-.11.5.44.56 1.19.11 1.7-.44.5-1.2.54-1.7.1-.5-.44-.54-1.19-.1-1.69zm2.75-3.34c.41-.54 1.15-.63 1.67-.22.53.4.64 1.14.23 1.68-.41.54-1.16.63-1.69.22-.52-.41-.62-1.15-.21-1.68zm2.52-3.53c.37-.56 1.1-.7 1.65-.33.55.37.71 1.09.34 1.66-.37.56-1.11.7-1.67.34-.54-.38-.69-1.11-.32-1.67zm2.25-3.66c.33-.59 1.05-.78 1.63-.45.58.33.79 1.05.45 1.64-.33.58-1.06.77-1.64.45-.58-.34-.77-1.05-.44-1.64zm1.99-3.83c.3-.6 1-.84 1.6-.56.6.29.86.99.57 1.6-.29.61-1 .85-1.6.57-.61-.29-.86-.99-.57-1.61zm1.74-3.96c.25-.63.94-.92 1.55-.67.62.24.92.93.68 1.55-.25.62-.94.92-1.56.67-.62-.24-.92-.93-.67-1.55zm1.45-4.06c.21-.65.87-.98 1.5-.78.64.2.99.86.79 1.5-.21.65-.88.99-1.51.78-.64-.2-.98-.86-.78-1.5zm1.18-4.18c.16-.66.8-1.04 1.44-.88.65.15 1.05.79.88 1.45-.16.65-.8 1.04-1.45.88-.64-.16-1.03-.8-.87-1.45zm.87-4.2c.11-.67.72-1.09 1.38-.98.66.11 1.1.72.98 1.38-.12.67-.73 1.1-1.39.98-.66-.11-1.09-.72-.97-1.38zm.58-4.3c.07-.67.65-1.14 1.31-1.07.66.06 1.15.64 1.08 1.31-.07.67-.65 1.15-1.32 1.08-.66-.07-1.14-.65-1.07-1.32zm.29-4.29c.02-.67.57-1.18 1.23-1.15.67.02 1.18.56 1.17 1.23-.02.68-.58 1.19-1.24 1.17-.68-.03-1.19-.58-1.16-1.25zm-.01-4.35c-.03-.68.48-1.21 1.15-1.24.67-.02 1.22.47 1.25 1.15.02.68-.5 1.22-1.16 1.25-.67.03-1.22-.48-1.24-1.16zm-.3-4.28c-.07-.67.4-1.24 1.06-1.31.66-.07 1.25.39 1.32 1.06.07.67-.41 1.25-1.07 1.32-.66.07-1.24-.4-1.31-1.07zm-.59-4.3c-.12-.66.32-1.27.98-1.38.65-.11 1.27.3 1.39.97.12.67-.33 1.27-.98 1.4-.67.11-1.28-.32-1.39-.99zm-.89-4.19c-.16-.66.23-1.28.87-1.44.65-.16 1.29.21 1.45.87.16.65-.23 1.29-.88 1.46-.64.15-1.28-.24-1.44-.89zm-1.19-4.18c-.21-.64.14-1.3.77-1.5.64-.2 1.31.13 1.51.77.21.64-.14 1.31-.77 1.51-.64.2-1.3-.14-1.51-.78zm-1.46-4.06c-.25-.62.04-1.3.66-1.55s1.31.04 1.56.66-.05 1.31-.67 1.56c-.61.26-1.3-.04-1.55-.67zm-1.75-3.96c-.29-.6-.04-1.3.56-1.59.6-.29 1.31-.06 1.6.54.29.61.04 1.32-.56 1.61-.6.29-1.3.05-1.6-.56zm-2.01-3.81c-.33-.59-.13-1.3.45-1.63.58-.33 1.3-.14 1.64.44.33.59.13 1.31-.45 1.64-.58.33-1.3.13-1.64-.45zm-2.26-3.65c-.38-.56-.22-1.28.33-1.66.56-.37 1.29-.23 1.66.33.38.56.22 1.29-.33 1.67-.55.36-1.28.22-1.66-.34zm-2.52-3.52c-.41-.53-.31-1.27.21-1.67.53-.41 1.27-.33 1.69.21.41.53.31 1.28-.22 1.69-.53.4-1.27.3-1.68-.23zm-2.76-3.34c-.45-.5-.4-1.24.1-1.69.5-.44 1.25-.4 1.7.1.45.5.39 1.25-.1 1.7-.51.44-1.26.4-1.7-.11zm-2.98-3.13c-.48-.47-.48-1.21-.02-1.69.47-.48 1.21-.5 1.69-.02.48.47.48 1.23.02 1.7-.46.48-1.21.48-1.69.01zm-3.18-2.92c-.51-.44-.56-1.18-.13-1.68.43-.5 1.18-.57 1.69-.13.51.44.56 1.19.13 1.69-.44.5-1.18.55-1.69.12zm-3.39-2.7c-.54-.4-.64-1.14-.25-1.67.4-.54 1.14-.66 1.68-.25.54.4.64 1.15.25 1.69-.4.53-1.14.63-1.68.23zm-3.52-2.44c-.57-.36-.72-1.09-.36-1.65.36-.56 1.09-.73 1.66-.37.56.36.72 1.1.36 1.66-.37.57-1.1.72-1.66.36zm-3.74-2.22c-.59-.33-.8-1.04-.47-1.62.32-.59 1.03-.8 1.63-.48.59.32.8 1.05.48 1.63-.33.58-1.05.8-1.64.47zm-3.85-1.94c-.61-.28-.86-.98-.59-1.58.28-.6.98-.87 1.59-.59.61.29.87.99.59 1.6-.28.59-.98.85-1.59.57zm-3.96-1.66c-.63-.24-.93-.92-.69-1.54.24-.62.92-.94 1.54-.7.63.24.94.93.7 1.55s-.92.92-1.55.69zm-4.09-1.4c-.65-.2-.99-.85-.8-1.49.19-.64.84-1 1.49-.81.64.2.99.86.8 1.5-.18.65-.84 1-1.49.8zm-4.16-1.1c-.66-.15-1.04-.78-.9-1.43.14-.65.77-1.06 1.43-.91.66.15 1.05.79.9 1.44-.14.65-.77 1.05-1.43.9zm-4.27-.82c-.67-.11-1.1-.71-1-1.37.11-.66.7-1.11 1.37-1 .67.1 1.11.72 1 1.37-.1.67-.7 1.1-1.37 1zm-4.27-.51c-.67-.06-1.14-.63-1.08-1.29.06-.66.62-1.16 1.29-1.09.67.06 1.15.64 1.09 1.3-.05.65-.63 1.13-1.3 1.08z" fill="#00467F"/></svg>